<svg xmlns="http://www.w3.org/2000/svg" width="169" height="189" viewBox="0 0 169 189" fill="none">
  <path d="M58.454 104.13L55.6341 105.35L44.3641 97.49L41.3641 99.15C38.9541 100.59 36.6141 100.69 35.4941 100.05L35.264 100.16C33.524 100.92 32.494 100.24 32.144 99.42C31.794 98.6 31.9941 97.42 33.7341 96.64L33.9641 96.54C34.174 95.54 35.0841 93.86 38.6341 92.87L41.9041 91.82L43.9041 78.23L46.7241 77L48.9141 89.59L56.9741 86.83L58.1941 83.6L60.4341 82.77L60.5941 85.77L61.394 85.7L62.1241 87.37L61.524 87.96L63.644 90.16L61.5041 91.23L58.3241 89.91L50.7941 93.91L58.454 104.13ZM58.2441 89.18L61.4441 90.51L62.4441 89.99L60.5041 87.99L61.2341 87.25L60.894 86.46L59.894 86.55L59.7441 83.75L58.6541 84.15L57.4341 87.39L48.3141 90.5L46.144 77.99L44.454 78.72L42.5041 92.36L38.8141 93.54C35.3741 94.49 34.6941 96.03 34.5941 96.86V97.07L34.394 97.14C34.267 97.1762 34.1432 97.223 34.024 97.28C32.954 97.74 32.4741 98.47 32.7841 99.17C33.0941 99.87 33.944 100.03 35.014 99.56C35.1344 99.5114 35.2514 99.4546 35.3641 99.39L35.5541 99.28L35.7341 99.41C36.4641 99.95 38.5941 100.05 41.0541 98.59L44.4141 96.71L55.7141 104.6L57.4041 103.87L49.7441 93.73L58.2441 89.18Z" fill="#999999"/>
  <path d="M155.234 188.06C155.288 188.06 155.342 188.047 155.389 188.021C155.437 187.994 155.476 187.956 155.504 187.91C155.864 187.363 156.198 186.813 156.504 186.26C156.55 186.186 156.565 186.098 156.546 186.014C156.527 185.93 156.476 185.857 156.404 185.81C156.33 185.765 156.241 185.752 156.157 185.772C156.073 185.793 156 185.846 155.954 185.92C155.614 186.47 155.274 187.01 154.954 187.56C154.93 187.595 154.913 187.635 154.905 187.676C154.896 187.718 154.896 187.762 154.904 187.804C154.913 187.845 154.929 187.885 154.953 187.921C154.977 187.956 155.008 187.986 155.044 188.01C155.103 188.041 155.168 188.059 155.234 188.06ZM157.234 184.74C157.291 184.739 157.346 184.724 157.395 184.696C157.444 184.668 157.485 184.628 157.514 184.58C157.834 184.01 158.154 183.44 158.514 182.87C158.555 182.795 158.565 182.707 158.543 182.625C158.52 182.544 158.467 182.473 158.394 182.43C158.318 182.39 158.23 182.381 158.148 182.406C158.066 182.43 157.996 182.485 157.954 182.56C157.644 183.13 157.324 183.69 157.004 184.25C156.96 184.324 156.946 184.413 156.967 184.497C156.988 184.581 157.041 184.654 157.114 184.7C157.166 184.728 157.225 184.742 157.284 184.74H157.234ZM159.094 181.32C159.154 181.319 159.213 181.302 159.264 181.27C159.315 181.238 159.357 181.193 159.384 181.14C159.684 180.56 159.974 179.97 160.254 179.39C160.273 179.351 160.284 179.31 160.286 179.268C160.289 179.226 160.283 179.183 160.269 179.143C160.255 179.103 160.233 179.066 160.205 179.035C160.177 179.003 160.143 178.978 160.104 178.96C160.066 178.941 160.025 178.93 159.983 178.927C159.94 178.925 159.898 178.931 159.858 178.945C159.818 178.959 159.781 178.98 159.75 179.009C159.718 179.037 159.692 179.071 159.674 179.11C159.394 179.69 159.104 180.27 158.804 180.85C158.786 180.888 158.775 180.929 158.772 180.971C158.77 181.013 158.775 181.056 158.789 181.096C158.803 181.136 158.825 181.173 158.853 181.204C158.882 181.236 158.916 181.261 158.954 181.28C158.981 181.3 159.012 181.314 159.045 181.321C159.078 181.327 159.112 181.327 159.144 181.32H159.094ZM160.784 177.8C160.847 177.799 160.908 177.78 160.961 177.747C161.014 177.713 161.057 177.666 161.084 177.61L161.864 175.82C161.897 175.739 161.897 175.648 161.863 175.567C161.829 175.487 161.765 175.423 161.684 175.39C161.605 175.36 161.516 175.362 161.438 175.395C161.36 175.429 161.298 175.491 161.264 175.57C161.014 176.16 160.754 176.75 160.494 177.35C160.476 177.387 160.466 177.429 160.464 177.471C160.462 177.513 160.469 177.555 160.484 177.594C160.499 177.633 160.522 177.669 160.551 177.699C160.58 177.729 160.615 177.753 160.654 177.77C160.71 177.797 160.773 177.808 160.834 177.8H160.784ZM162.294 174.21C162.358 174.209 162.421 174.19 162.474 174.154C162.527 174.119 162.569 174.068 162.594 174.01C162.834 173.39 163.064 172.78 163.294 172.17C163.308 172.129 163.314 172.087 163.312 172.045C163.31 172.002 163.299 171.961 163.28 171.923C163.262 171.884 163.236 171.85 163.204 171.822C163.172 171.794 163.135 171.773 163.094 171.76C163.015 171.733 162.928 171.738 162.852 171.773C162.775 171.809 162.716 171.872 162.684 171.95C162.464 172.56 162.234 173.16 161.994 173.77C161.964 173.849 161.966 173.937 162 174.016C162.033 174.094 162.096 174.156 162.174 174.19L162.294 174.21ZM163.634 170.55C163.701 170.549 163.766 170.527 163.82 170.488C163.873 170.448 163.913 170.393 163.934 170.33C164.154 169.71 164.354 169.09 164.544 168.47C164.57 168.387 164.562 168.298 164.523 168.222C164.483 168.145 164.416 168.087 164.334 168.06C164.252 168.034 164.163 168.042 164.087 168.081C164.01 168.12 163.952 168.188 163.924 168.27C163.734 168.89 163.534 169.5 163.324 170.12C163.299 170.202 163.307 170.291 163.346 170.367C163.385 170.444 163.453 170.502 163.534 170.53L163.634 170.55ZM164.794 166.83C164.865 166.828 164.933 166.804 164.989 166.761C165.045 166.717 165.085 166.657 165.104 166.59C165.284 165.96 165.464 165.33 165.624 164.71C165.646 164.626 165.634 164.537 165.591 164.463C165.548 164.388 165.477 164.333 165.394 164.31C165.354 164.299 165.311 164.297 165.27 164.302C165.228 164.308 165.188 164.322 165.152 164.344C165.115 164.365 165.084 164.393 165.058 164.427C165.033 164.461 165.015 164.499 165.004 164.54C164.834 165.16 164.664 165.79 164.484 166.41C164.472 166.45 164.468 166.493 164.473 166.535C164.477 166.577 164.49 166.618 164.51 166.656C164.531 166.693 164.559 166.726 164.592 166.752C164.625 166.779 164.663 166.798 164.704 166.81L164.794 166.83ZM165.794 163.06C165.866 163.057 165.935 163.032 165.991 162.987C166.047 162.941 166.087 162.879 166.104 162.81C166.254 162.17 166.404 161.53 166.534 160.9C166.545 160.859 166.546 160.816 166.54 160.775C166.533 160.733 166.518 160.694 166.496 160.658C166.473 160.622 166.444 160.592 166.409 160.568C166.375 160.544 166.336 160.528 166.294 160.52C166.253 160.509 166.21 160.507 166.168 160.514C166.126 160.52 166.085 160.535 166.049 160.557C166.012 160.58 165.981 160.609 165.956 160.644C165.931 160.679 165.914 160.718 165.904 160.76C165.774 161.39 165.624 162.02 165.474 162.66C165.456 162.743 165.471 162.83 165.516 162.903C165.56 162.976 165.632 163.028 165.714 163.05L165.794 163.06ZM166.614 159.24C166.69 159.241 166.763 159.216 166.822 159.168C166.88 159.12 166.92 159.054 166.934 158.98C167.054 158.34 167.174 157.7 167.284 157.06C167.299 156.976 167.28 156.89 167.231 156.821C167.182 156.751 167.108 156.704 167.024 156.69C166.982 156.681 166.939 156.681 166.897 156.689C166.855 156.698 166.815 156.715 166.779 156.739C166.744 156.763 166.713 156.794 166.69 156.83C166.667 156.867 166.651 156.907 166.644 156.95C166.534 157.58 166.424 158.22 166.294 158.86C166.286 158.902 166.285 158.945 166.294 158.987C166.302 159.029 166.319 159.069 166.344 159.105C166.368 159.14 166.399 159.17 166.435 159.194C166.471 159.217 166.512 159.232 166.554 159.24H166.614ZM167.274 155.4C167.352 155.403 167.427 155.377 167.487 155.327C167.546 155.277 167.584 155.206 167.594 155.13C167.694 154.48 167.784 153.83 167.864 153.19C167.87 153.147 167.867 153.105 167.856 153.064C167.845 153.023 167.826 152.984 167.8 152.951C167.774 152.917 167.741 152.889 167.704 152.869C167.667 152.848 167.626 152.834 167.584 152.83C167.542 152.822 167.499 152.824 167.457 152.835C167.416 152.845 167.377 152.864 167.343 152.891C167.309 152.917 167.281 152.95 167.261 152.988C167.24 153.025 167.228 153.067 167.224 153.11C167.144 153.736 167.054 154.376 166.954 155.03C166.943 155.114 166.964 155.2 167.015 155.269C167.065 155.338 167.14 155.385 167.224 155.4H167.274ZM167.764 151.53C167.845 151.532 167.923 151.504 167.983 151.449C168.043 151.395 168.079 151.32 168.084 151.24C168.154 150.59 168.224 149.94 168.274 149.3C168.28 149.214 168.252 149.129 168.196 149.063C168.139 148.998 168.06 148.957 167.974 148.95C167.932 148.944 167.89 148.947 167.85 148.959C167.809 148.971 167.772 148.991 167.74 149.019C167.707 149.046 167.681 149.08 167.663 149.118C167.645 149.156 167.635 149.197 167.634 149.24C167.574 149.88 167.514 150.53 167.444 151.18C167.44 151.222 167.444 151.264 167.457 151.304C167.469 151.345 167.489 151.382 167.516 151.415C167.543 151.448 167.576 151.474 167.614 151.494C167.651 151.514 167.692 151.526 167.734 151.53H167.764ZM168.094 147.65C168.176 147.65 168.254 147.619 168.314 147.563C168.373 147.507 168.409 147.431 168.414 147.35C168.414 146.68 168.494 146.03 168.514 145.35C168.517 145.307 168.511 145.264 168.497 145.223C168.483 145.183 168.46 145.146 168.431 145.114C168.402 145.082 168.367 145.056 168.328 145.039C168.289 145.021 168.247 145.011 168.204 145.01C168.12 145.013 168.04 145.047 167.978 145.103C167.916 145.16 167.876 145.236 167.864 145.32C167.864 145.96 167.864 146.61 167.774 147.26C167.769 147.345 167.797 147.43 167.853 147.496C167.909 147.561 167.989 147.602 168.074 147.61L168.094 147.65ZM168.244 143.75C168.329 143.75 168.411 143.716 168.471 143.656C168.531 143.596 168.564 143.514 168.564 143.43C168.564 142.97 168.564 142.52 168.564 142.07V141.48C168.564 141.395 168.531 141.313 168.471 141.253C168.411 141.193 168.329 141.16 168.244 141.16C168.159 141.16 168.078 141.193 168.018 141.253C167.958 141.313 167.924 141.395 167.924 141.48V142.07C167.924 142.52 167.924 142.97 167.924 143.42C167.923 143.462 167.93 143.505 167.946 143.545C167.961 143.585 167.985 143.622 168.014 143.652C168.044 143.683 168.08 143.708 168.119 143.724C168.159 143.741 168.201 143.75 168.244 143.75ZM168.244 139.85C168.287 139.85 168.33 139.841 168.369 139.824C168.409 139.808 168.444 139.783 168.474 139.752C168.504 139.722 168.527 139.685 168.543 139.645C168.558 139.605 168.566 139.562 168.564 139.52C168.564 138.85 168.504 138.2 168.474 137.52C168.467 137.434 168.426 137.354 168.36 137.298C168.295 137.242 168.21 137.214 168.124 137.22C168.082 137.222 168.041 137.233 168.003 137.251C167.965 137.27 167.932 137.296 167.904 137.327C167.876 137.359 167.854 137.396 167.841 137.435C167.827 137.475 167.822 137.517 167.824 137.56C167.824 138.19 167.894 138.84 167.914 139.5C167.91 139.547 167.915 139.594 167.931 139.639C167.947 139.683 167.973 139.724 168.006 139.757C168.04 139.791 168.08 139.816 168.125 139.832C168.17 139.848 168.217 139.854 168.264 139.85H168.244ZM168.014 135.96C168.056 135.956 168.097 135.944 168.135 135.924C168.172 135.904 168.205 135.878 168.232 135.845C168.259 135.812 168.279 135.775 168.292 135.734C168.304 135.694 168.308 135.652 168.304 135.61C168.244 134.943 168.174 134.276 168.094 133.61C168.091 133.567 168.078 133.525 168.058 133.488C168.038 133.45 168.01 133.417 167.976 133.391C167.942 133.364 167.903 133.345 167.861 133.335C167.82 133.324 167.777 133.322 167.734 133.33C167.65 133.342 167.574 133.386 167.522 133.453C167.47 133.52 167.446 133.605 167.454 133.69C167.534 134.3 167.604 134.95 167.664 135.62C167.66 135.669 167.668 135.718 167.686 135.764C167.704 135.81 167.733 135.851 167.77 135.884C167.807 135.917 167.851 135.941 167.898 135.954C167.946 135.967 167.996 135.969 168.044 135.96H168.014ZM167.534 132.09C167.618 132.075 167.692 132.028 167.741 131.958C167.79 131.889 167.809 131.803 167.794 131.72L167.734 131.33C167.644 130.82 167.544 130.33 167.444 129.79C167.436 129.748 167.419 129.709 167.396 129.674C167.372 129.639 167.342 129.609 167.306 129.585C167.271 129.562 167.231 129.546 167.19 129.538C167.148 129.53 167.106 129.531 167.064 129.54C167.022 129.547 166.982 129.562 166.946 129.586C166.91 129.609 166.88 129.639 166.856 129.675C166.833 129.711 166.817 129.751 166.81 129.793C166.802 129.835 166.804 129.878 166.814 129.92C166.914 130.43 167.004 130.92 167.094 131.44L167.164 131.82C167.169 131.865 167.183 131.908 167.205 131.947C167.228 131.986 167.259 132.02 167.296 132.045C167.334 132.071 167.376 132.088 167.42 132.096C167.465 132.104 167.511 132.101 167.554 132.09H167.534ZM166.764 128.27H166.834C166.875 128.261 166.915 128.245 166.949 128.221C166.984 128.197 167.013 128.167 167.036 128.131C167.058 128.095 167.073 128.056 167.08 128.014C167.086 127.973 167.085 127.93 167.074 127.89C166.924 127.25 166.774 126.62 166.604 125.98C166.593 125.939 166.573 125.9 166.547 125.867C166.52 125.834 166.488 125.806 166.45 125.786C166.413 125.765 166.372 125.752 166.33 125.748C166.288 125.743 166.245 125.747 166.204 125.76C166.164 125.77 166.125 125.788 166.092 125.814C166.058 125.839 166.03 125.871 166.008 125.907C165.987 125.943 165.973 125.983 165.967 126.025C165.961 126.066 165.964 126.109 165.974 126.15C166.144 126.78 166.304 127.4 166.444 128.03C166.465 128.102 166.51 128.166 166.572 128.21C166.634 128.254 166.709 128.275 166.784 128.27H166.764ZM165.764 124.51H165.854C165.895 124.498 165.933 124.479 165.967 124.452C166 124.426 166.028 124.393 166.048 124.356C166.069 124.318 166.081 124.277 166.086 124.235C166.09 124.193 166.087 124.15 166.074 124.11C165.884 123.48 165.684 122.86 165.474 122.24C165.461 122.199 165.439 122.162 165.411 122.13C165.383 122.098 165.349 122.072 165.311 122.054C165.273 122.035 165.232 122.024 165.189 122.022C165.147 122.019 165.104 122.025 165.064 122.04C165.024 122.053 164.987 122.074 164.955 122.102C164.923 122.13 164.897 122.164 164.878 122.203C164.86 122.241 164.849 122.282 164.847 122.325C164.844 122.367 164.85 122.409 164.864 122.45C165.074 123.06 165.264 123.68 165.454 124.3C165.478 124.364 165.522 124.42 165.579 124.458C165.637 124.495 165.705 124.514 165.774 124.51H165.764ZM164.514 120.81C164.55 120.819 164.588 120.819 164.624 120.81C164.704 120.78 164.768 120.721 164.804 120.644C164.84 120.567 164.843 120.479 164.814 120.4C164.584 119.79 164.344 119.18 164.084 118.58C164.069 118.54 164.046 118.504 164.016 118.473C163.987 118.443 163.951 118.418 163.912 118.401C163.873 118.385 163.831 118.376 163.788 118.375C163.746 118.375 163.704 118.383 163.664 118.4C163.625 118.416 163.59 118.44 163.561 118.47C163.531 118.5 163.508 118.535 163.492 118.574C163.476 118.613 163.468 118.655 163.469 118.697C163.469 118.739 163.478 118.781 163.494 118.82C163.744 119.42 163.984 120.02 164.204 120.63C164.234 120.688 164.28 120.736 164.337 120.768C164.394 120.8 164.459 120.815 164.524 120.81H164.514ZM163.044 117.27C163.09 117.279 163.138 117.279 163.184 117.27C163.262 117.233 163.321 117.167 163.351 117.087C163.381 117.007 163.379 116.918 163.344 116.84C163.064 116.25 162.784 115.66 162.484 115.07C162.444 114.996 162.377 114.94 162.297 114.914C162.217 114.888 162.13 114.894 162.054 114.93C161.976 114.968 161.917 115.036 161.889 115.119C161.861 115.201 161.866 115.291 161.904 115.37C162.204 115.94 162.484 116.52 162.754 117.11C162.783 117.161 162.825 117.203 162.876 117.232C162.927 117.26 162.986 117.273 163.044 117.27ZM161.284 113.79C161.333 113.803 161.385 113.803 161.434 113.79C161.472 113.77 161.506 113.742 161.533 113.709C161.56 113.676 161.58 113.638 161.592 113.597C161.604 113.556 161.608 113.513 161.603 113.47C161.599 113.428 161.585 113.387 161.564 113.35C161.244 112.78 160.914 112.21 160.564 111.66C160.544 111.622 160.516 111.59 160.482 111.564C160.448 111.538 160.409 111.519 160.368 111.509C160.327 111.499 160.284 111.497 160.242 111.504C160.2 111.511 160.16 111.526 160.124 111.55C160.088 111.571 160.057 111.6 160.031 111.633C160.006 111.667 159.988 111.706 159.978 111.747C159.968 111.788 159.966 111.83 159.972 111.872C159.978 111.913 159.992 111.953 160.014 111.99C160.354 112.54 160.674 113.1 161.014 113.67C161.047 113.697 161.086 113.718 161.127 113.73C161.168 113.742 161.212 113.745 161.254 113.74L161.284 113.79ZM159.284 110.46C159.343 110.477 159.406 110.477 159.464 110.46C159.5 110.436 159.531 110.406 159.555 110.371C159.579 110.335 159.596 110.295 159.604 110.254C159.613 110.212 159.613 110.168 159.604 110.126C159.595 110.085 159.579 110.045 159.554 110.01C159.184 109.47 158.814 108.93 158.424 108.4C158.373 108.332 158.297 108.287 158.213 108.274C158.129 108.261 158.044 108.281 157.974 108.33C157.907 108.381 157.862 108.457 157.849 108.541C157.836 108.624 157.856 108.71 157.904 108.78C158.284 109.3 158.654 109.83 159.014 110.37C159.078 110.407 159.152 110.421 159.224 110.41L159.284 110.46ZM115.284 108.25H115.694C115.736 108.247 115.777 108.236 115.815 108.218C115.853 108.199 115.887 108.173 115.915 108.142C115.943 108.11 115.964 108.073 115.978 108.034C115.991 107.994 115.997 107.952 115.994 107.91C115.993 107.867 115.983 107.825 115.965 107.787C115.947 107.748 115.921 107.714 115.889 107.686C115.858 107.657 115.82 107.636 115.78 107.623C115.739 107.61 115.697 107.605 115.654 107.61C115.272 107.645 114.887 107.645 114.504 107.61C114.275 107.581 114.048 107.537 113.824 107.48C113.741 107.458 113.652 107.47 113.577 107.513C113.503 107.556 113.448 107.627 113.424 107.71C113.414 107.751 113.412 107.794 113.418 107.836C113.425 107.878 113.44 107.919 113.462 107.955C113.484 107.991 113.514 108.023 113.549 108.048C113.583 108.073 113.623 108.09 113.664 108.1C113.917 108.17 114.174 108.22 114.434 108.25C114.682 108.245 114.929 108.228 115.174 108.2L115.284 108.25ZM117.584 107.86H117.684C118.334 107.631 118.939 107.293 119.474 106.86C119.534 106.798 119.568 106.715 119.568 106.63C119.568 106.544 119.534 106.461 119.474 106.4C119.444 106.369 119.409 106.344 119.369 106.327C119.33 106.311 119.287 106.302 119.244 106.302C119.201 106.302 119.159 106.311 119.119 106.327C119.08 106.344 119.044 106.369 119.014 106.4C118.536 106.781 117.999 107.082 117.424 107.29C117.384 107.303 117.347 107.324 117.315 107.352C117.283 107.38 117.257 107.414 117.238 107.453C117.22 107.491 117.209 107.532 117.207 107.575C117.204 107.617 117.21 107.659 117.224 107.7C117.256 107.735 117.294 107.763 117.337 107.782C117.38 107.801 117.427 107.81 117.474 107.81L117.584 107.86ZM157.034 107.32C157.107 107.32 157.178 107.296 157.234 107.25C157.294 107.188 157.328 107.105 157.328 107.02C157.328 106.934 157.294 106.851 157.234 106.79C156.824 106.28 156.394 105.79 155.974 105.29C155.913 105.23 155.83 105.196 155.744 105.196C155.658 105.196 155.576 105.23 155.514 105.29C155.454 105.351 155.421 105.434 155.421 105.52C155.421 105.605 155.454 105.688 155.514 105.75C155.934 106.23 156.354 106.75 156.754 107.23C156.807 107.257 156.865 107.271 156.924 107.27L157.034 107.32ZM111.974 107.27C112.027 107.268 112.079 107.255 112.125 107.23C112.172 107.206 112.213 107.172 112.244 107.13C112.29 107.056 112.305 106.968 112.286 106.884C112.267 106.8 112.216 106.727 112.144 106.68C111.628 106.337 111.161 105.927 110.754 105.46C110.694 105.4 110.614 105.367 110.529 105.367C110.445 105.367 110.364 105.4 110.304 105.46C110.244 105.521 110.211 105.604 110.211 105.69C110.211 105.775 110.244 105.858 110.304 105.92C110.748 106.437 111.263 106.888 111.834 107.26C111.844 107.263 111.854 107.267 111.864 107.27H111.974ZM120.504 105.42C120.562 105.418 120.618 105.402 120.667 105.372C120.716 105.342 120.756 105.3 120.784 105.25C121.114 104.627 121.328 103.949 121.414 103.25C121.42 103.207 121.417 103.165 121.406 103.124C121.395 103.083 121.376 103.044 121.35 103.011C121.324 102.977 121.291 102.949 121.254 102.929C121.217 102.908 121.176 102.894 121.134 102.89C121.051 102.878 120.966 102.9 120.899 102.951C120.831 103.001 120.787 103.076 120.774 103.16C120.691 103.767 120.505 104.355 120.224 104.9C120.203 104.937 120.19 104.978 120.185 105.02C120.18 105.063 120.184 105.106 120.196 105.147C120.208 105.188 120.229 105.226 120.256 105.259C120.283 105.292 120.316 105.32 120.354 105.34C120.367 105.35 120.38 105.36 120.394 105.37L120.504 105.42ZM154.454 104.42C154.54 104.42 154.622 104.388 154.684 104.33C154.744 104.268 154.778 104.185 154.778 104.1C154.778 104.014 154.744 103.931 154.684 103.87C154.224 103.4 153.754 102.94 153.284 102.49C153.223 102.43 153.14 102.396 153.054 102.396C152.968 102.396 152.886 102.43 152.824 102.49C152.765 102.549 152.732 102.63 152.732 102.715C152.732 102.799 152.765 102.88 152.824 102.94C153.284 103.38 153.744 103.84 154.194 104.3C154.24 104.326 154.292 104.34 154.344 104.34L154.454 104.42ZM109.454 104.42C109.504 104.429 109.555 104.429 109.604 104.42C109.679 104.377 109.734 104.309 109.76 104.227C109.786 104.145 109.781 104.057 109.744 103.98C109.463 103.423 109.258 102.831 109.134 102.22C109.125 102.178 109.107 102.139 109.082 102.104C109.058 102.069 109.026 102.04 108.99 102.017C108.953 101.995 108.913 101.98 108.871 101.974C108.829 101.967 108.786 101.969 108.744 101.98C108.703 101.988 108.663 102.004 108.628 102.028C108.593 102.052 108.563 102.082 108.54 102.117C108.517 102.153 108.501 102.192 108.493 102.234C108.485 102.275 108.486 102.318 108.494 102.36C108.639 103.021 108.864 103.662 109.164 104.27C109.212 104.3 109.268 104.317 109.324 104.32L109.454 104.42ZM151.644 101.77C151.69 101.769 151.735 101.759 151.776 101.74C151.818 101.721 151.854 101.694 151.884 101.66C151.944 101.598 151.978 101.515 151.978 101.43C151.978 101.344 151.944 101.261 151.884 101.2L151.284 100.7L150.354 99.9695C150.285 99.917 150.198 99.8938 150.112 99.9051C150.026 99.9163 149.948 99.961 149.894 100.03C149.845 100.098 149.823 100.183 149.835 100.266C149.846 100.35 149.889 100.426 149.954 100.48L150.874 101.2L151.464 101.7C151.482 101.691 151.499 101.681 151.514 101.67L151.644 101.77ZM121.124 101.68C121.21 101.669 121.289 101.626 121.343 101.559C121.397 101.491 121.423 101.406 121.414 101.32C121.338 100.641 121.197 99.9714 120.994 99.3195C120.983 99.2786 120.963 99.2404 120.937 99.2071C120.91 99.1738 120.878 99.1462 120.84 99.1257C120.803 99.1052 120.762 99.0923 120.72 99.0878C120.678 99.0833 120.635 99.0873 120.594 99.0995C120.553 99.1108 120.515 99.1304 120.483 99.157C120.45 99.1836 120.422 99.2166 120.403 99.2541C120.383 99.2916 120.371 99.3327 120.368 99.3749C120.365 99.4171 120.37 99.4595 120.384 99.4995C120.566 100.104 120.696 100.723 120.774 101.35C120.788 101.404 120.815 101.453 120.854 101.494C120.892 101.534 120.941 101.564 120.994 101.58L121.124 101.68ZM108.674 100.68C108.756 100.68 108.834 100.649 108.894 100.593C108.953 100.537 108.989 100.461 108.994 100.38C109.04 99.7646 109.182 99.1607 109.414 98.5895C109.431 98.5508 109.439 98.5092 109.44 98.4671C109.44 98.425 109.432 98.3833 109.416 98.3443C109.401 98.3053 109.377 98.2697 109.348 98.2397C109.318 98.2098 109.283 98.1859 109.244 98.1695C109.206 98.1531 109.164 98.1444 109.122 98.144C109.08 98.1437 109.038 98.1516 108.999 98.1674C108.96 98.1832 108.924 98.2065 108.894 98.2361C108.865 98.2656 108.841 98.3008 108.824 98.3395C108.559 98.976 108.4 99.6516 108.354 100.34C108.35 100.382 108.355 100.426 108.368 100.467C108.381 100.508 108.402 100.546 108.43 100.578C108.458 100.611 108.492 100.638 108.531 100.657C108.569 100.676 108.611 100.687 108.654 100.69L108.674 100.68ZM148.414 99.2695C148.467 99.2704 148.52 99.2581 148.567 99.2337C148.614 99.2092 148.654 99.1734 148.684 99.1295C148.732 99.0587 148.75 98.9723 148.735 98.8884C148.72 98.8046 148.673 98.7297 148.604 98.6795C148.064 98.3095 147.504 97.9495 146.954 97.6095C146.88 97.5651 146.791 97.5517 146.707 97.5723C146.623 97.5929 146.55 97.6458 146.504 97.7195C146.483 97.7556 146.468 97.7956 146.462 97.8373C146.456 97.879 146.458 97.9215 146.468 97.9624C146.478 98.0033 146.496 98.0417 146.521 98.0756C146.547 98.1094 146.578 98.1379 146.614 98.1595C147.161 98.4995 147.701 98.8495 148.234 99.2095C148.287 99.2473 148.35 99.2682 148.414 99.2695ZM119.914 97.8195C119.957 97.8297 120.002 97.8297 120.044 97.8195C120.123 97.7844 120.185 97.7197 120.217 97.6393C120.249 97.5589 120.248 97.4692 120.214 97.3895C119.964 96.8195 119.674 96.2195 119.344 95.6195C119.324 95.5817 119.297 95.5482 119.264 95.5211C119.231 95.4939 119.193 95.4737 119.152 95.4616C119.111 95.4495 119.068 95.4457 119.025 95.4505C118.983 95.4553 118.942 95.4686 118.904 95.4895C118.83 95.5317 118.775 95.6012 118.75 95.6833C118.726 95.7654 118.735 95.8537 118.774 95.9295C119.094 96.5095 119.384 97.0895 119.624 97.6495C119.648 97.7076 119.688 97.7575 119.739 97.793C119.791 97.8286 119.852 97.8482 119.914 97.8495V97.8195ZM145.044 97.2695C145.104 97.2709 145.162 97.2557 145.213 97.2257C145.265 97.1957 145.306 97.152 145.334 97.0995C145.374 97.0236 145.382 96.9353 145.358 96.8532C145.334 96.7711 145.279 96.7017 145.204 96.6595C144.634 96.3495 144.044 96.0495 143.454 95.7595C143.416 95.7409 143.375 95.7299 143.333 95.7274C143.29 95.7248 143.248 95.7307 143.208 95.7447C143.168 95.7586 143.131 95.7804 143.1 95.8087C143.068 95.837 143.042 95.8713 143.024 95.9095C143.006 95.9476 142.995 95.9889 142.992 96.0312C142.99 96.0735 142.995 96.1159 143.009 96.1559C143.023 96.1959 143.045 96.2327 143.073 96.2642C143.102 96.2957 143.136 96.3214 143.174 96.3395C143.754 96.6195 144.334 96.9195 144.894 97.2295C144.939 97.2567 144.992 97.2706 145.044 97.2695ZM109.964 97.0195C110.012 97.0189 110.059 97.0078 110.103 96.9871C110.146 96.9663 110.184 96.9365 110.214 96.8995C110.619 96.4266 111.075 96.0005 111.574 95.6295C111.61 95.6057 111.64 95.5747 111.663 95.5386C111.686 95.5025 111.701 95.4621 111.708 95.4199C111.714 95.3776 111.712 95.3344 111.701 95.2931C111.69 95.2517 111.671 95.213 111.644 95.1795C111.62 95.144 111.589 95.1138 111.553 95.0909C111.517 95.0679 111.477 95.0527 111.435 95.0461C111.392 95.0395 111.349 95.0418 111.308 95.0527C111.266 95.0636 111.228 95.0829 111.194 95.1095C110.65 95.5117 110.153 95.9747 109.714 96.4895C109.657 96.5506 109.626 96.631 109.626 96.7145C109.626 96.798 109.657 96.8785 109.714 96.9395C109.758 96.9789 109.812 97.0061 109.87 97.0183C109.928 97.0306 109.988 97.0276 110.044 97.0095L109.964 97.0195ZM141.544 95.5695C141.608 95.5665 141.669 95.5464 141.722 95.5111C141.775 95.4759 141.817 95.427 141.844 95.3695C141.861 95.3308 141.869 95.2892 141.87 95.2471C141.87 95.205 141.862 95.1633 141.846 95.1243C141.831 95.0853 141.807 95.0497 141.778 95.0197C141.748 94.9898 141.713 94.9659 141.674 94.9495C141.064 94.6895 140.454 94.4495 139.844 94.2195C139.763 94.1901 139.674 94.1935 139.596 94.229C139.517 94.2645 139.456 94.3293 139.424 94.4095C139.395 94.4918 139.4 94.5821 139.438 94.6608C139.475 94.7395 139.542 94.8001 139.624 94.8295C140.224 95.0495 140.824 95.2895 141.414 95.5395C141.471 95.564 141.534 95.5709 141.594 95.5595L141.544 95.5695ZM113.054 94.6895C113.1 94.7041 113.149 94.7041 113.194 94.6895C113.767 94.4134 114.354 94.1697 114.954 93.9595C114.995 93.946 115.032 93.9247 115.064 93.8967C115.096 93.8687 115.122 93.8346 115.14 93.7964C115.159 93.7583 115.17 93.7168 115.172 93.6744C115.174 93.632 115.168 93.5896 115.154 93.5495C115.141 93.5093 115.119 93.4721 115.091 93.4402C115.063 93.4083 115.029 93.3823 114.991 93.3636C114.953 93.345 114.912 93.3342 114.869 93.3318C114.827 93.3294 114.784 93.3354 114.744 93.3495C114.117 93.5679 113.503 93.8216 112.904 94.1095C112.828 94.15 112.771 94.2187 112.745 94.301C112.718 94.3832 112.725 94.4724 112.764 94.5495C112.801 94.6032 112.853 94.6443 112.914 94.6676C112.975 94.6908 113.041 94.695 113.104 94.6795L113.054 94.6895ZM118.054 94.4195C118.115 94.4233 118.175 94.4056 118.224 94.3695C118.261 94.3481 118.292 94.3194 118.317 94.2853C118.342 94.2512 118.36 94.2123 118.369 94.1711C118.379 94.1299 118.379 94.0872 118.372 94.0457C118.364 94.0041 118.348 93.9646 118.324 93.9295C118.164 93.6695 117.994 93.4195 117.824 93.1495L118.714 92.9695C118.798 92.9549 118.872 92.9077 118.921 92.8383C118.97 92.7689 118.989 92.6831 118.974 92.5995C118.967 92.5572 118.951 92.5167 118.928 92.4805C118.905 92.4443 118.875 92.4131 118.839 92.3889C118.804 92.3646 118.764 92.3477 118.722 92.3393C118.68 92.3308 118.636 92.3309 118.594 92.3395C118.204 92.4095 117.814 92.4895 117.434 92.5795L117.234 92.2995C117.21 92.2644 117.179 92.2344 117.144 92.2113C117.108 92.1882 117.068 92.1725 117.026 92.165C116.984 92.1576 116.941 92.1585 116.9 92.1679C116.858 92.1773 116.819 92.1948 116.784 92.2195C116.749 92.2436 116.719 92.2743 116.696 92.3101C116.673 92.3458 116.657 92.3858 116.65 92.4277C116.642 92.4696 116.643 92.5126 116.653 92.5541C116.662 92.5956 116.68 92.6349 116.704 92.6695L116.754 92.7395H116.674C116.591 92.763 116.519 92.8175 116.475 92.8919C116.43 92.9662 116.416 93.0548 116.434 93.1395C116.46 93.2211 116.515 93.2901 116.589 93.3328C116.663 93.3754 116.751 93.3885 116.834 93.3695L117.144 93.2995C117.374 93.6195 117.584 93.9495 117.784 94.2995C117.816 94.3371 117.856 94.3667 117.901 94.3858C117.946 94.405 117.995 94.4131 118.044 94.4095L118.054 94.4195ZM137.914 94.2095C137.983 94.2125 138.051 94.1925 138.107 94.1526C138.163 94.1128 138.204 94.0554 138.224 93.9895C138.25 93.9073 138.242 93.8184 138.203 93.7418C138.163 93.6652 138.096 93.607 138.014 93.5795C137.394 93.3895 136.754 93.1995 136.124 93.0395C136.084 93.0275 136.041 93.0241 135.999 93.0293C135.957 93.0345 135.916 93.0484 135.879 93.0699C135.843 93.0915 135.811 93.1203 135.786 93.1547C135.761 93.189 135.744 93.2281 135.734 93.2695C135.724 93.3102 135.721 93.3526 135.727 93.3943C135.733 93.4359 135.747 93.476 135.768 93.5122C135.79 93.5484 135.818 93.5801 135.852 93.6053C135.885 93.6306 135.924 93.6491 135.964 93.6595C136.584 93.8195 137.204 94.0095 137.824 94.1995L137.914 94.2095ZM134.154 93.2095C134.229 93.2105 134.301 93.1848 134.358 93.1371C134.414 93.0894 134.452 93.0228 134.464 92.9495C134.473 92.9081 134.474 92.8654 134.466 92.8239C134.458 92.7823 134.442 92.7427 134.419 92.7074C134.395 92.672 134.365 92.6417 134.33 92.618C134.295 92.5944 134.256 92.5779 134.214 92.5695C133.574 92.4295 132.924 92.3095 132.284 92.2095C132.201 92.195 132.115 92.2142 132.045 92.263C131.976 92.3117 131.929 92.386 131.914 92.4695C131.906 92.5118 131.906 92.5553 131.915 92.5974C131.924 92.6396 131.942 92.6793 131.968 92.7141C131.993 92.7489 132.025 92.7781 132.063 92.7997C132.1 92.8212 132.141 92.8348 132.184 92.8395C132.814 92.9495 133.454 93.0695 134.084 93.1995L134.154 93.2095ZM120.584 92.6595C121.214 92.5695 121.864 92.4995 122.504 92.4495C122.59 92.4419 122.669 92.401 122.725 92.3356C122.782 92.2702 122.81 92.1855 122.804 92.0995C122.801 92.0574 122.788 92.0165 122.769 91.9791C122.749 91.9417 122.722 91.9086 122.69 91.8816C122.657 91.8546 122.62 91.8344 122.579 91.822C122.539 91.8097 122.496 91.8054 122.454 91.8095C121.804 91.8095 121.144 91.9295 120.454 92.0195C120.412 92.0244 120.372 92.0377 120.336 92.0587C120.299 92.0796 120.267 92.1078 120.242 92.1415C120.217 92.1752 120.198 92.2136 120.189 92.2546C120.179 92.2955 120.177 92.338 120.184 92.3795C120.188 92.4281 120.203 92.4751 120.227 92.5172C120.252 92.5592 120.285 92.5951 120.326 92.6221C120.366 92.6491 120.413 92.6665 120.461 92.673C120.509 92.6795 120.558 92.6749 120.604 92.6595H120.584ZM130.304 92.5795C130.384 92.5799 130.461 92.5503 130.521 92.4966C130.58 92.443 130.617 92.3691 130.624 92.2895C130.633 92.2061 130.608 92.1228 130.556 92.0573C130.503 91.9919 130.427 91.9496 130.344 91.9395C129.694 91.8595 129.034 91.7995 128.344 91.7595C128.302 91.7568 128.26 91.7624 128.22 91.7761C128.18 91.7897 128.144 91.8111 128.112 91.8389C128.08 91.8668 128.055 91.9006 128.036 91.9385C128.018 91.9763 128.007 92.0175 128.004 92.0595C128 92.1019 128.005 92.1446 128.018 92.1851C128.031 92.2255 128.052 92.2628 128.08 92.2947C128.108 92.3266 128.143 92.3524 128.181 92.3704C128.22 92.3884 128.262 92.3984 128.304 92.3995C128.944 92.4495 129.594 92.4995 130.224 92.5795H130.304ZM124.464 92.3395C125.114 92.3395 125.754 92.3395 126.404 92.3395C126.446 92.3409 126.487 92.3339 126.526 92.3189C126.565 92.3039 126.6 92.2813 126.63 92.2523C126.66 92.2234 126.684 92.1888 126.7 92.1505C126.716 92.1122 126.724 92.0711 126.724 92.0295C126.726 91.9875 126.719 91.9456 126.704 91.9063C126.689 91.8669 126.666 91.8309 126.638 91.8003C126.609 91.7696 126.574 91.7449 126.536 91.7277C126.498 91.7104 126.456 91.7008 126.414 91.6995C125.754 91.6995 125.104 91.6995 124.414 91.6995C124.371 91.7008 124.329 91.7107 124.29 91.7286C124.251 91.7465 124.216 91.7721 124.187 91.8038C124.158 91.8355 124.136 91.8727 124.122 91.9132C124.108 91.9537 124.102 91.9967 124.104 92.0395C124.106 92.0854 124.118 92.1303 124.139 92.1712C124.16 92.2121 124.19 92.248 124.226 92.2764C124.262 92.3049 124.303 92.3253 124.348 92.3362C124.393 92.347 124.439 92.3482 124.484 92.3395H124.464ZM115.814 91.2295C115.887 91.2304 115.958 91.2056 116.014 91.1595C116.073 91.0996 116.107 91.0188 116.107 90.9345C116.107 90.8503 116.073 90.7694 116.014 90.7095C115.614 90.1895 115.194 89.7095 114.774 89.1795C114.714 89.1203 114.634 89.0871 114.549 89.0871C114.465 89.0871 114.384 89.1203 114.324 89.1795C114.264 89.2411 114.231 89.3237 114.231 89.4095C114.231 89.4954 114.264 89.5779 114.324 89.6395C114.734 90.1195 115.154 90.6395 115.544 91.1295C115.576 91.1764 115.619 91.2141 115.67 91.2387C115.721 91.2633 115.778 91.2739 115.834 91.2695L115.814 91.2295ZM113.274 88.2295C113.315 88.2297 113.356 88.2219 113.393 88.2065C113.431 88.191 113.465 88.1683 113.494 88.1395C113.525 88.1106 113.549 88.0757 113.566 88.037C113.582 87.9983 113.591 87.9566 113.591 87.9145C113.591 87.8724 113.582 87.8308 113.566 87.7921C113.549 87.7534 113.525 87.7185 113.494 87.6895C113.044 87.2095 112.574 86.7495 112.094 86.3095C112.065 86.279 112.03 86.2546 111.992 86.238C111.953 86.2214 111.911 86.2128 111.869 86.2128C111.827 86.2128 111.785 86.2214 111.747 86.238C111.708 86.2546 111.673 86.279 111.644 86.3095C111.613 86.3394 111.589 86.3751 111.572 86.4146C111.555 86.4541 111.547 86.4966 111.547 86.5395C111.547 86.5824 111.555 86.6249 111.572 86.6644C111.589 86.7039 111.613 86.7397 111.644 86.7695C112.114 87.1995 112.574 87.6595 113.024 88.1195C113.051 88.1674 113.09 88.2069 113.138 88.2335C113.185 88.26 113.24 88.2725 113.294 88.2695L113.274 88.2295ZM110.424 85.5795C110.519 85.5771 110.609 85.5376 110.674 85.4695C110.734 85.4079 110.768 85.3254 110.768 85.2395C110.768 85.1536 110.734 85.0711 110.674 85.0095C110.164 84.5895 109.674 84.1895 109.114 83.8095C109.08 83.7848 109.04 83.7673 108.999 83.7579C108.957 83.7485 108.914 83.7476 108.872 83.755C108.831 83.7625 108.791 83.7782 108.755 83.8013C108.719 83.8244 108.688 83.8544 108.664 83.8895C108.639 83.9236 108.621 83.9623 108.611 84.0034C108.601 84.0446 108.599 84.0873 108.605 84.1292C108.612 84.171 108.626 84.2112 108.649 84.2473C108.671 84.2834 108.7 84.3148 108.734 84.3395C109.254 84.7129 109.764 85.1029 110.264 85.5095C110.31 85.5661 110.373 85.605 110.444 85.6195L110.424 85.5795ZM107.254 83.3195C107.308 83.3193 107.361 83.3055 107.409 83.2793C107.456 83.253 107.496 83.2153 107.524 83.1695C107.57 83.0963 107.585 83.0082 107.566 82.9242C107.547 82.8401 107.496 82.7667 107.424 82.7195C106.864 82.3795 106.284 82.0495 105.704 81.7195C105.627 81.6807 105.538 81.6736 105.456 81.6998C105.373 81.7259 105.305 81.7833 105.264 81.8595C105.226 81.9351 105.219 82.0229 105.245 82.1035C105.272 82.1841 105.329 82.251 105.404 82.2895C105.974 82.5895 106.534 82.9095 107.084 83.2895C107.11 83.3133 107.14 83.3318 107.172 83.3438C107.205 83.3558 107.24 83.3612 107.274 83.3595L107.254 83.3195ZM103.794 81.5195C103.857 81.521 103.92 81.5038 103.973 81.47C104.026 81.4362 104.069 81.3873 104.094 81.3295C104.111 81.2908 104.119 81.2492 104.12 81.2071C104.12 81.165 104.112 81.1233 104.096 81.0843C104.081 81.0452 104.057 81.0097 104.028 80.9797C103.998 80.9498 103.963 80.9259 103.924 80.9095C103.324 80.6495 102.704 80.4095 102.084 80.1895C102.044 80.1754 102.002 80.1694 101.959 80.1718C101.917 80.1742 101.876 80.185 101.837 80.2036C101.799 80.2223 101.765 80.2483 101.737 80.2802C101.709 80.3121 101.688 80.3493 101.674 80.3895C101.66 80.4296 101.654 80.472 101.657 80.5144C101.659 80.5568 101.67 80.5983 101.688 80.6364C101.707 80.6746 101.733 80.7087 101.765 80.7367C101.797 80.7647 101.834 80.786 101.874 80.7995C102.474 81.0095 103.084 81.2495 103.664 81.4995C103.708 81.532 103.76 81.5527 103.814 81.5595L103.794 81.5195ZM78.8943 80.7195H78.9643L80.8643 80.3195C80.9067 80.3123 80.9471 80.2967 80.9833 80.2736C81.0195 80.2504 81.0507 80.2202 81.0749 80.1847C81.0992 80.1493 81.1161 80.1093 81.1245 80.0671C81.133 80.025 81.133 79.9816 81.1243 79.9395C81.1051 79.8571 81.055 79.7851 80.9842 79.7386C80.9135 79.6921 80.8276 79.6745 80.7443 79.6895C80.1043 79.8095 79.4643 79.9495 78.8243 80.0895C78.7419 80.1087 78.6699 80.1589 78.6234 80.2296C78.5769 80.3003 78.5593 80.3862 78.5743 80.4695C78.5864 80.5508 78.6275 80.6249 78.69 80.6782C78.7525 80.7315 78.8321 80.7604 78.9143 80.7595L78.8943 80.7195ZM100.114 80.2395C100.187 80.2418 100.258 80.2193 100.316 80.1757C100.375 80.1321 100.416 80.0699 100.434 79.9995C100.445 79.9588 100.447 79.9164 100.441 79.8748C100.435 79.8331 100.421 79.7931 100.4 79.7569C100.379 79.7206 100.35 79.689 100.317 79.6637C100.283 79.6384 100.245 79.62 100.204 79.6095C99.5743 79.4395 98.9343 79.2795 98.2843 79.1495C98.1995 79.1348 98.1124 79.1537 98.0415 79.2023C97.9705 79.2509 97.9212 79.3252 97.9043 79.4095C97.8892 79.4929 97.9068 79.5787 97.9533 79.6495C97.9999 79.7202 98.0718 79.7703 98.1543 79.7895C98.7943 79.9095 99.4243 80.0595 100.034 80.2295L100.114 80.2395ZM82.7143 79.9595H82.7743C83.4409 79.8462 84.081 79.7462 84.6943 79.6595C84.7785 79.6448 84.8535 79.598 84.9039 79.529C84.9543 79.46 84.9759 79.3741 84.9643 79.2895C84.9594 79.2477 84.9462 79.2073 84.9252 79.1708C84.9042 79.1343 84.876 79.1024 84.8423 79.0771C84.8086 79.0519 84.7701 79.0337 84.7292 79.0238C84.6883 79.0139 84.6458 79.0125 84.6043 79.0195C83.9543 79.1095 83.3143 79.2095 82.6643 79.3195C82.5808 79.3342 82.5065 79.3814 82.4577 79.4507C82.409 79.5201 82.3897 79.606 82.4043 79.6895C82.4042 79.732 82.4128 79.774 82.4297 79.813C82.4465 79.8519 82.4711 79.887 82.502 79.9161C82.533 79.9452 82.5696 79.9676 82.6095 79.9819C82.6495 79.9963 82.6919 80.0023 82.7343 79.9995L82.7143 79.9595ZM96.3043 79.4695C96.3821 79.4681 96.4569 79.4392 96.5154 79.3879C96.574 79.3367 96.6125 79.2664 96.6243 79.1895C96.6299 79.1475 96.627 79.1047 96.6159 79.0637C96.6048 79.0228 96.5857 78.9844 96.5597 78.9509C96.5336 78.9174 96.5011 78.8894 96.4641 78.8686C96.4272 78.8477 96.3864 78.8345 96.3443 78.8295C95.7043 78.7395 95.0443 78.6695 94.3443 78.6195C94.3027 78.6154 94.2609 78.6197 94.221 78.6322C94.1812 78.6447 94.1443 78.6651 94.1126 78.6922C94.0808 78.7192 94.0548 78.7524 94.0362 78.7898C94.0176 78.8271 94.0068 78.8679 94.0043 78.9095C94.0002 78.9516 94.0044 78.994 94.0168 79.0345C94.0291 79.0749 94.0494 79.1124 94.0763 79.145C94.1033 79.1775 94.1365 79.2044 94.1739 79.2241C94.2113 79.2437 94.2522 79.2558 94.2943 79.2595C94.9443 79.3095 95.5943 79.3795 96.2143 79.4695H96.3043ZM86.5743 79.4195C87.2143 79.3495 87.8643 79.2995 88.5043 79.2495C88.5464 79.247 88.5875 79.2362 88.6253 79.2177C88.6632 79.1992 88.697 79.1734 88.7249 79.1418C88.7528 79.1103 88.7741 79.0735 88.7878 79.0336C88.8014 78.9937 88.807 78.9516 88.8043 78.9095C88.8018 78.8666 88.7907 78.8245 88.7716 78.786C88.7525 78.7474 88.7258 78.7131 88.6931 78.6851C88.6604 78.6571 88.6224 78.636 88.5814 78.623C88.5404 78.61 88.4971 78.6054 88.4543 78.6095C87.8043 78.6095 87.1543 78.7095 86.4543 78.7795C86.4122 78.7833 86.3712 78.7953 86.3338 78.815C86.2964 78.8347 86.2633 78.8616 86.2364 78.8941C86.2094 78.9266 86.1892 78.9642 86.1768 79.0046C86.1644 79.045 86.1601 79.0875 86.1643 79.1295C86.1592 79.1834 86.1679 79.2378 86.1895 79.2874C86.2112 79.3371 86.2451 79.3804 86.2881 79.4134C86.331 79.4464 86.3817 79.4679 86.4352 79.476C86.4888 79.484 86.5435 79.4784 86.5943 79.4595L86.5743 79.4195ZM92.4143 79.1595C92.4984 79.1597 92.5795 79.1277 92.6408 79.07C92.7022 79.0124 92.7392 78.9335 92.7443 78.8495C92.7456 78.8067 92.7383 78.764 92.7229 78.724C92.7074 78.684 92.684 78.6475 92.6541 78.6168C92.6243 78.586 92.5886 78.5615 92.5491 78.5448C92.5096 78.5281 92.4672 78.5195 92.4243 78.5195C91.7743 78.5195 91.1143 78.5195 90.4243 78.5195C90.3814 78.5195 90.339 78.5281 90.2995 78.5448C90.26 78.5615 90.2242 78.586 90.1944 78.6168C90.1645 78.6475 90.1412 78.684 90.1257 78.724C90.1102 78.764 90.1029 78.8067 90.1043 78.8495C90.1069 78.9326 90.1417 79.0115 90.2014 79.0694C90.2612 79.1272 90.3411 79.1596 90.4243 79.1595H92.3743H92.4143Z" fill="#999999"/>
  <path d="M42.454 27.13L39.6341 28.35L28.3641 20.49L25.3641 22.15C22.9541 23.59 20.6141 23.69 19.4941 23.05L19.264 23.16C17.524 23.92 16.494 23.24 16.144 22.42C15.794 21.6 15.9941 20.42 17.7341 19.64L17.9641 19.54C18.174 18.54 19.0841 16.86 22.6341 15.87L25.9041 14.82L27.9041 1.22998L30.7241 0L32.9141 12.59L40.9741 9.82999L42.1941 6.59998L44.4341 5.76999L44.5941 8.76999L45.394 8.69998L46.1241 10.37L45.524 10.96L47.644 13.16L45.5041 14.23L42.3241 12.91L34.7941 16.91L42.454 27.13ZM42.2441 12.18L45.4441 13.51L46.4441 12.99L44.5041 10.99L45.2341 10.25L44.894 9.45999L43.894 9.54999L43.7441 6.75L42.6541 7.14999L41.4341 10.39L32.3141 13.5L30.144 0.98999L28.454 1.72L26.5041 15.36L22.8141 16.54C19.3741 17.49 18.6941 19.03 18.5941 19.86V20.07L18.394 20.14C18.267 20.1762 18.1432 20.223 18.024 20.28C16.954 20.74 16.4741 21.47 16.7841 22.17C17.0941 22.87 17.944 23.03 19.014 22.56C19.1344 22.5114 19.2514 22.4546 19.3641 22.39L19.5541 22.28L19.7341 22.41C20.4641 22.95 22.5941 23.05 25.0541 21.59L28.4141 19.71L39.7141 27.6L41.4041 26.87L33.7441 16.73L42.2441 12.18Z" fill="#999999"/>
  <path d="M139.234 111.06C139.288 111.06 139.342 111.047 139.389 111.021C139.437 110.994 139.476 110.956 139.504 110.91C139.864 110.363 140.198 109.813 140.504 109.26C140.55 109.186 140.565 109.098 140.546 109.014C140.527 108.93 140.476 108.857 140.404 108.81C140.33 108.765 140.241 108.752 140.157 108.772C140.073 108.793 140 108.846 139.954 108.92C139.614 109.47 139.274 110.01 138.954 110.56C138.93 110.595 138.913 110.635 138.905 110.676C138.896 110.718 138.896 110.762 138.904 110.804C138.913 110.845 138.929 110.885 138.953 110.921C138.977 110.956 139.008 110.986 139.044 111.01C139.103 111.041 139.168 111.059 139.234 111.06ZM141.234 107.74C141.291 107.739 141.346 107.724 141.395 107.696C141.444 107.668 141.485 107.628 141.514 107.58C141.834 107.01 142.154 106.44 142.514 105.87C142.555 105.795 142.565 105.707 142.543 105.625C142.52 105.544 142.467 105.473 142.394 105.43C142.318 105.39 142.23 105.381 142.148 105.406C142.066 105.43 141.996 105.485 141.954 105.56C141.644 106.13 141.324 106.69 141.004 107.25C140.96 107.324 140.946 107.413 140.967 107.497C140.988 107.581 141.041 107.654 141.114 107.7C141.166 107.728 141.225 107.742 141.284 107.74H141.234ZM143.094 104.32C143.154 104.319 143.213 104.302 143.264 104.27C143.315 104.238 143.357 104.193 143.384 104.14C143.684 103.56 143.974 102.97 144.254 102.39C144.273 102.351 144.284 102.31 144.286 102.268C144.289 102.226 144.283 102.183 144.269 102.143C144.255 102.103 144.233 102.066 144.205 102.035C144.177 102.003 144.143 101.978 144.104 101.96C144.066 101.941 144.025 101.93 143.983 101.927C143.94 101.925 143.898 101.931 143.858 101.945C143.818 101.959 143.781 101.98 143.75 102.009C143.718 102.037 143.692 102.071 143.674 102.11C143.394 102.69 143.104 103.27 142.804 103.85C142.786 103.888 142.775 103.929 142.772 103.971C142.77 104.013 142.775 104.056 142.789 104.096C142.803 104.136 142.825 104.173 142.853 104.204C142.882 104.236 142.916 104.261 142.954 104.28C142.981 104.3 143.012 104.314 143.045 104.321C143.078 104.327 143.112 104.327 143.144 104.32H143.094ZM144.784 100.8C144.847 100.799 144.908 100.78 144.961 100.747C145.014 100.713 145.057 100.666 145.084 100.61L145.864 98.8195C145.897 98.7386 145.897 98.6479 145.863 98.5673C145.829 98.4867 145.765 98.4228 145.684 98.3895C145.605 98.3595 145.516 98.3615 145.438 98.3951C145.36 98.4286 145.298 98.4911 145.264 98.5695C145.014 99.1595 144.754 99.7495 144.494 100.35C144.476 100.387 144.466 100.429 144.464 100.471C144.462 100.513 144.469 100.555 144.484 100.594C144.499 100.633 144.522 100.669 144.551 100.699C144.58 100.729 144.615 100.753 144.654 100.77C144.71 100.797 144.773 100.808 144.834 100.8H144.784ZM146.294 97.2095C146.358 97.2089 146.421 97.1896 146.474 97.1541C146.527 97.1186 146.569 97.0684 146.594 97.0095C146.834 96.3895 147.064 95.7795 147.294 95.1695C147.308 95.1295 147.314 95.0871 147.312 95.0447C147.31 95.0023 147.299 94.9608 147.28 94.9226C147.262 94.8845 147.236 94.8504 147.204 94.8224C147.172 94.7944 147.135 94.773 147.094 94.7595C147.015 94.7331 146.928 94.738 146.852 94.7733C146.775 94.8086 146.716 94.8716 146.684 94.9495C146.464 95.5595 146.234 96.1595 145.994 96.7695C145.964 96.8492 145.966 96.9375 146 97.0157C146.033 97.094 146.096 97.1563 146.174 97.1895L146.294 97.2095ZM147.634 93.5495C147.701 93.5487 147.766 93.5271 147.82 93.4876C147.873 93.4482 147.913 93.3929 147.934 93.3295C148.154 92.7095 148.354 92.0895 148.544 91.4695C148.57 91.3873 148.562 91.2984 148.523 91.2218C148.483 91.1452 148.416 91.087 148.334 91.0595C148.252 91.0342 148.163 91.0419 148.087 91.0812C148.01 91.1204 147.952 91.188 147.924 91.2695C147.734 91.8895 147.534 92.4995 147.324 93.1195C147.299 93.2018 147.307 93.2906 147.346 93.3672C147.385 93.4438 147.453 93.5021 147.534 93.5295L147.634 93.5495ZM148.794 89.8295C148.865 89.8279 148.933 89.8038 148.989 89.7606C149.045 89.7174 149.085 89.6574 149.104 89.5895C149.284 88.9595 149.464 88.3295 149.624 87.7095C149.646 87.626 149.634 87.5374 149.591 87.4626C149.548 87.3879 149.477 87.3329 149.394 87.3095C149.354 87.299 149.311 87.2966 149.27 87.3025C149.228 87.3083 149.188 87.3223 149.152 87.3437C149.115 87.3651 149.084 87.3934 149.058 87.427C149.033 87.4606 149.015 87.4988 149.004 87.5395C148.834 88.1595 148.664 88.7895 148.484 89.4095C148.472 89.4502 148.468 89.493 148.473 89.5352C148.477 89.5775 148.49 89.6184 148.51 89.6557C148.531 89.6929 148.559 89.7257 148.592 89.7521C148.625 89.7785 148.663 89.798 148.704 89.8095L148.794 89.8295ZM149.794 86.0595C149.866 86.0573 149.935 86.0317 149.991 85.9866C150.047 85.9414 150.087 85.8793 150.104 85.8095C150.254 85.1695 150.404 84.5295 150.534 83.8995C150.545 83.8588 150.546 83.8163 150.54 83.7748C150.533 83.7333 150.518 83.6936 150.496 83.658C150.473 83.6225 150.444 83.5919 150.409 83.5681C150.375 83.5443 150.336 83.5277 150.294 83.5195C150.253 83.5092 150.21 83.5072 150.168 83.5137C150.126 83.5202 150.085 83.535 150.049 83.5574C150.012 83.5798 149.981 83.6092 149.956 83.6439C149.931 83.6786 149.914 83.7179 149.904 83.7595C149.774 84.3895 149.624 85.0195 149.474 85.6595C149.456 85.743 149.471 85.8302 149.516 85.9029C149.56 85.9757 149.632 86.0282 149.714 86.0495L149.794 86.0595ZM150.614 82.2395C150.69 82.2409 150.763 82.2155 150.822 82.1679C150.88 82.1204 150.92 82.0536 150.934 81.9795C151.054 81.3395 151.174 80.6995 151.284 80.0595C151.299 79.976 151.28 79.8901 151.231 79.8207C151.182 79.7514 151.108 79.7042 151.024 79.6895C150.982 79.6809 150.939 79.6808 150.897 79.6893C150.855 79.6977 150.815 79.7146 150.779 79.7389C150.744 79.7631 150.713 79.7943 150.69 79.8305C150.667 79.8667 150.651 79.9072 150.644 79.9495C150.534 80.5795 150.424 81.2195 150.294 81.8595C150.286 81.9016 150.285 81.945 150.294 81.9872C150.302 82.0293 150.319 82.0693 150.344 82.1047C150.368 82.1402 150.399 82.1704 150.435 82.1936C150.471 82.2167 150.512 82.2324 150.554 82.2395H150.614ZM151.274 78.3995C151.352 78.4027 151.427 78.3767 151.487 78.3267C151.546 78.2767 151.584 78.2064 151.594 78.1295C151.694 77.4795 151.784 76.8295 151.864 76.1895C151.87 76.1475 151.867 76.1047 151.856 76.0637C151.845 76.0228 151.826 75.9844 151.8 75.9509C151.774 75.9174 151.741 75.8894 151.704 75.8686C151.667 75.8477 151.626 75.8345 151.584 75.8295C151.542 75.8225 151.499 75.8242 151.457 75.8348C151.416 75.8453 151.377 75.8643 151.343 75.8906C151.309 75.9169 151.281 75.9499 151.261 75.9876C151.24 76.0253 151.228 76.0668 151.224 76.1095C151.144 76.7362 151.054 77.3762 150.954 78.0295C150.943 78.1142 150.964 78.2 151.015 78.269C151.065 78.338 151.14 78.3848 151.224 78.3995H151.274ZM151.764 74.5295C151.845 74.5323 151.923 74.5036 151.983 74.4494C152.043 74.3953 152.079 74.32 152.084 74.2395C152.154 73.5895 152.224 72.9395 152.274 72.2995C152.28 72.2136 152.252 72.1289 152.196 72.0635C152.139 71.9981 152.06 71.9572 151.974 71.9495C151.932 71.9439 151.89 71.9471 151.85 71.959C151.809 71.9709 151.772 71.9912 151.74 72.0186C151.707 72.046 151.681 72.0798 151.663 72.1178C151.645 72.1559 151.635 72.1974 151.634 72.2395C151.574 72.8795 151.514 73.5295 151.444 74.1795C151.44 74.2216 151.444 74.264 151.457 74.3045C151.469 74.3449 151.489 74.3824 151.516 74.415C151.543 74.4475 151.576 74.4744 151.614 74.494C151.651 74.5137 151.692 74.5258 151.734 74.5295H151.764ZM152.094 70.6495C152.176 70.6497 152.254 70.6187 152.314 70.563C152.373 70.5072 152.409 70.4309 152.414 70.3495C152.414 69.6795 152.494 69.0295 152.514 68.3495C152.517 68.3067 152.511 68.2637 152.497 68.2232C152.483 68.1827 152.46 68.1455 152.431 68.1138C152.402 68.0821 152.367 68.0565 152.328 68.0386C152.289 68.0207 152.247 68.0108 152.204 68.0095C152.12 68.0134 152.04 68.0465 151.978 68.1031C151.916 68.1597 151.876 68.2363 151.864 68.3195C151.864 68.9595 151.864 69.6095 151.774 70.2595C151.769 70.3455 151.797 70.4302 151.853 70.4956C151.909 70.561 151.989 70.6019 152.074 70.6095L152.094 70.6495ZM152.244 66.7495C152.329 66.7495 152.411 66.7158 152.471 66.6558C152.531 66.5958 152.564 66.5144 152.564 66.4295C152.564 65.9695 152.564 65.5195 152.564 65.0695V64.4795C152.564 64.3947 152.531 64.3133 152.471 64.2533C152.411 64.1932 152.329 64.1595 152.244 64.1595C152.159 64.1595 152.078 64.1932 152.018 64.2533C151.958 64.3133 151.924 64.3947 151.924 64.4795V65.0695C151.924 65.5195 151.924 65.9695 151.924 66.4195C151.923 66.4624 151.93 66.5051 151.946 66.5451C151.961 66.585 151.985 66.6215 152.014 66.6523C152.044 66.6831 152.08 66.7076 152.119 66.7243C152.159 66.741 152.201 66.7495 152.244 66.7495ZM152.244 62.8495C152.287 62.8496 152.33 62.841 152.369 62.8242C152.409 62.8075 152.444 62.7831 152.474 62.7523C152.504 62.7215 152.527 62.6851 152.543 62.6451C152.558 62.6051 152.566 62.5624 152.564 62.5195C152.564 61.8495 152.504 61.1995 152.474 60.5195C152.467 60.4337 152.426 60.3543 152.36 60.2983C152.295 60.2422 152.21 60.214 152.124 60.2195C152.082 60.2221 152.041 60.2329 152.003 60.2514C151.965 60.2699 151.932 60.2956 151.904 60.3272C151.876 60.3588 151.854 60.3956 151.841 60.4355C151.827 60.4753 151.822 60.5175 151.824 60.5595C151.824 61.1895 151.894 61.8395 151.914 62.4995C151.91 62.5466 151.915 62.5942 151.931 62.6388C151.947 62.6834 151.973 62.7239 152.006 62.7574C152.04 62.7909 152.08 62.8165 152.125 62.8324C152.17 62.8484 152.217 62.8542 152.264 62.8495H152.244ZM152.014 58.9595C152.056 58.9558 152.097 58.9437 152.135 58.924C152.172 58.9044 152.205 58.8775 152.232 58.845C152.259 58.8124 152.279 58.7749 152.292 58.7345C152.304 58.694 152.308 58.6516 152.304 58.6095C152.244 57.9429 152.174 57.2762 152.094 56.6095C152.091 56.5668 152.078 56.5253 152.058 56.4876C152.038 56.4499 152.01 56.4169 151.976 56.3906C151.942 56.3643 151.903 56.3453 151.861 56.3348C151.82 56.3243 151.777 56.3225 151.734 56.3295C151.65 56.342 151.574 56.3863 151.522 56.4534C151.47 56.5204 151.446 56.605 151.454 56.6895C151.534 57.2995 151.604 57.9495 151.664 58.6195C151.66 58.6688 151.668 58.7182 151.686 58.7641C151.704 58.81 151.733 58.851 151.77 58.8839C151.807 58.9168 151.851 58.9408 151.898 58.9539C151.946 58.967 151.996 58.969 152.044 58.9595H152.014ZM151.534 55.0895C151.618 55.0749 151.692 55.0277 151.741 54.9583C151.79 54.889 151.809 54.8031 151.794 54.7195L151.734 54.3295C151.644 53.8195 151.544 53.3295 151.444 52.7895C151.436 52.7481 151.419 52.7087 151.396 52.6736C151.372 52.6385 151.342 52.6085 151.306 52.5853C151.271 52.562 151.231 52.546 151.19 52.5381C151.148 52.5303 151.106 52.5308 151.064 52.5395C151.022 52.5466 150.982 52.5622 150.946 52.5855C150.91 52.6088 150.88 52.6392 150.856 52.6749C150.833 52.7106 150.817 52.7508 150.81 52.7928C150.802 52.8349 150.804 52.8781 150.814 52.9195C150.914 53.4295 151.004 53.9195 151.094 54.4395L151.164 54.8195C151.169 54.8645 151.183 54.908 151.205 54.947C151.228 54.986 151.259 55.0196 151.296 55.0453C151.334 55.071 151.376 55.0883 151.42 55.0959C151.465 55.1036 151.511 55.1014 151.554 55.0895H151.534ZM150.764 51.2695H150.834C150.875 51.2613 150.915 51.2448 150.949 51.221C150.984 51.1972 151.013 51.1666 151.036 51.131C151.058 51.0955 151.073 51.0558 151.08 51.0142C151.086 50.9727 151.085 50.9303 151.074 50.8895C150.924 50.2495 150.774 49.6195 150.604 48.9795C150.593 48.9386 150.573 48.9004 150.547 48.8671C150.52 48.8338 150.488 48.8061 150.45 48.7857C150.413 48.7652 150.372 48.7523 150.33 48.7478C150.288 48.7433 150.245 48.7473 150.204 48.7595C150.164 48.77 150.125 48.7884 150.092 48.8137C150.058 48.839 150.03 48.8706 150.008 48.9069C149.987 48.9431 149.973 48.9832 149.967 49.0248C149.961 49.0664 149.964 49.1088 149.974 49.1495C150.144 49.7795 150.304 50.3995 150.444 51.0295C150.465 51.1025 150.51 51.1662 150.572 51.2099C150.634 51.2536 150.709 51.2747 150.784 51.2695H150.764ZM149.764 47.5095H149.854C149.895 47.498 149.933 47.4785 149.967 47.4521C150 47.4257 150.028 47.3929 150.048 47.3557C150.069 47.3184 150.081 47.2775 150.086 47.2352C150.09 47.193 150.087 47.1502 150.074 47.1095C149.884 46.4795 149.684 45.8595 149.474 45.2395C149.461 45.1993 149.439 45.1621 149.411 45.1302C149.383 45.0983 149.349 45.0723 149.311 45.0536C149.273 45.035 149.232 45.0242 149.189 45.0218C149.147 45.0194 149.104 45.0254 149.064 45.0395C149.024 45.053 148.987 45.0744 148.955 45.1024C148.923 45.1304 148.897 45.1645 148.878 45.2026C148.86 45.2408 148.849 45.2823 148.847 45.3247C148.844 45.3671 148.85 45.4095 148.864 45.4495C149.074 46.0595 149.264 46.6795 149.454 47.2995C149.478 47.3643 149.522 47.4198 149.579 47.4576C149.637 47.4955 149.705 47.5137 149.774 47.5095H149.764ZM148.514 43.8095C148.55 43.8188 148.588 43.8188 148.624 43.8095C148.704 43.7802 148.768 43.7207 148.804 43.6438C148.84 43.5669 148.843 43.4791 148.814 43.3995C148.584 42.7895 148.344 42.1795 148.084 41.5795C148.069 41.5399 148.046 41.5037 148.016 41.4731C147.987 41.4425 147.951 41.4181 147.912 41.4013C147.873 41.3846 147.831 41.3758 147.788 41.3755C147.746 41.3752 147.704 41.3834 147.664 41.3995C147.625 41.4159 147.59 41.4398 147.561 41.4698C147.531 41.4997 147.508 41.5353 147.492 41.5743C147.476 41.6133 147.468 41.655 147.469 41.6971C147.469 41.7392 147.478 41.7808 147.494 41.8195C147.744 42.4195 147.984 43.0195 148.204 43.6295C148.234 43.6879 148.28 43.7361 148.337 43.7681C148.394 43.8002 148.459 43.8146 148.524 43.8095H148.514ZM147.044 40.2695C147.09 40.279 147.138 40.279 147.184 40.2695C147.262 40.2326 147.321 40.1671 147.351 40.0869C147.381 40.0067 147.379 39.918 147.344 39.8395C147.064 39.2495 146.784 38.6595 146.484 38.0695C146.444 37.9958 146.377 37.9403 146.297 37.9143C146.217 37.8883 146.13 37.8937 146.054 37.9295C145.976 37.9683 145.917 38.0362 145.889 38.1186C145.861 38.2011 145.866 38.2912 145.904 38.3695C146.204 38.9395 146.484 39.5195 146.754 40.1095C146.783 40.1609 146.825 40.2032 146.876 40.2315C146.927 40.2598 146.986 40.273 147.044 40.2695ZM145.284 36.7895C145.333 36.8032 145.385 36.8032 145.434 36.7895C145.472 36.7696 145.506 36.7423 145.533 36.7093C145.56 36.6762 145.58 36.638 145.592 36.597C145.604 36.556 145.608 36.5129 145.603 36.4704C145.599 36.4279 145.585 36.3868 145.564 36.3495C145.244 35.7795 144.914 35.2095 144.564 34.6595C144.544 34.6223 144.516 34.5897 144.482 34.5638C144.448 34.5379 144.409 34.5192 144.368 34.5088C144.327 34.4985 144.284 34.4968 144.242 34.5038C144.2 34.5108 144.16 34.5264 144.124 34.5495C144.088 34.5711 144.057 34.5997 144.031 34.6335C144.006 34.6673 143.988 34.7058 143.978 34.7467C143.968 34.7876 143.966 34.8301 143.972 34.8717C143.978 34.9134 143.992 34.9534 144.014 34.9895C144.354 35.5395 144.674 36.0995 145.014 36.6695C145.047 36.6972 145.086 36.7177 145.127 36.7298C145.168 36.7418 145.212 36.7452 145.254 36.7395L145.284 36.7895ZM143.284 33.4595C143.343 33.4773 143.406 33.4773 143.464 33.4595C143.5 33.4363 143.531 33.4061 143.555 33.3707C143.579 33.3353 143.596 33.2955 143.604 33.2535C143.613 33.2116 143.613 33.1684 143.604 33.1265C143.595 33.0846 143.579 33.0448 143.554 33.0095C143.184 32.4695 142.814 31.9295 142.424 31.3995C142.373 31.3323 142.297 31.2875 142.213 31.2745C142.129 31.2614 142.044 31.2811 141.974 31.3295C141.907 31.3812 141.862 31.4567 141.849 31.5405C141.836 31.6243 141.856 31.7099 141.904 31.7795C142.284 32.2995 142.654 32.8295 143.014 33.3695C143.078 33.4065 143.152 33.4207 143.224 33.4095L143.284 33.4595ZM99.2843 31.2495H99.6943C99.7364 31.247 99.7775 31.2362 99.8153 31.2177C99.8532 31.1992 99.887 31.1734 99.9149 31.1418C99.9428 31.1102 99.9641 31.0735 99.9777 31.0336C99.9914 30.9937 99.997 30.9516 99.9943 30.9095C99.9931 30.867 99.9832 30.8252 99.9652 30.7867C99.9472 30.7482 99.9214 30.7137 99.8895 30.6856C99.8576 30.6575 99.8203 30.6362 99.7798 30.6231C99.7393 30.61 99.6966 30.6054 99.6543 30.6095C99.2717 30.6446 98.8868 30.6446 98.5043 30.6095C98.2751 30.5807 98.048 30.5373 97.8243 30.4795C97.7408 30.458 97.6522 30.47 97.5774 30.513C97.5027 30.556 97.4477 30.6265 97.4243 30.7095C97.4139 30.7509 97.4119 30.794 97.4184 30.8361C97.4249 30.8783 97.4398 30.9187 97.4621 30.9551C97.4845 30.9914 97.5139 31.0229 97.5486 31.0477C97.5833 31.0725 97.6227 31.0901 97.6643 31.0995C97.9166 31.1696 98.1741 31.2198 98.4343 31.2495C98.6816 31.2446 98.9286 31.228 99.1743 31.1995L99.2843 31.2495ZM101.584 30.8595H101.684C102.334 30.6314 102.939 30.2931 103.474 29.8595C103.534 29.7979 103.568 29.7154 103.568 29.6295C103.568 29.5436 103.534 29.4611 103.474 29.3995C103.444 29.3687 103.409 29.3442 103.369 29.3274C103.33 29.3107 103.287 29.302 103.244 29.302C103.201 29.302 103.159 29.3107 103.119 29.3274C103.08 29.3442 103.044 29.3687 103.014 29.3995C102.536 29.7812 101.999 30.0818 101.424 30.2895C101.384 30.303 101.347 30.3244 101.315 30.3524C101.283 30.3804 101.257 30.4145 101.238 30.4526C101.22 30.4908 101.209 30.5323 101.207 30.5747C101.204 30.617 101.21 30.6595 101.224 30.6995C101.256 30.7346 101.294 30.7626 101.337 30.7816C101.38 30.8006 101.427 30.8101 101.474 30.8095L101.584 30.8595ZM141.034 30.3195C141.107 30.3204 141.178 30.2956 141.234 30.2495C141.294 30.1879 141.328 30.1054 141.328 30.0195C141.328 29.9336 141.294 29.8511 141.234 29.7895C140.824 29.2795 140.394 28.7895 139.974 28.2895C139.913 28.2297 139.83 28.1962 139.744 28.1962C139.658 28.1962 139.576 28.2297 139.514 28.2895C139.454 28.3511 139.421 28.4336 139.421 28.5195C139.421 28.6054 139.454 28.6879 139.514 28.7495C139.934 29.2295 140.354 29.7495 140.754 30.2295C140.807 30.2574 140.865 30.2712 140.924 30.2695L141.034 30.3195ZM95.9743 30.2695C96.0269 30.268 96.0785 30.2546 96.1253 30.2304C96.172 30.2062 96.2127 30.1717 96.2443 30.1295C96.2896 30.0563 96.3045 29.9683 96.2859 29.8842C96.2672 29.8001 96.2164 29.7267 96.1443 29.6795C95.6284 29.3369 95.161 28.9266 94.7543 28.4595C94.6944 28.4003 94.6135 28.3671 94.5293 28.3671C94.445 28.3671 94.3642 28.4003 94.3043 28.4595C94.2444 28.5211 94.2109 28.6036 94.2109 28.6895C94.2109 28.7754 94.2444 28.8579 94.3043 28.9195C94.7478 29.4368 95.263 29.8881 95.8343 30.2595C95.8441 30.2635 95.8541 30.2668 95.8643 30.2695H95.9743ZM104.504 28.4195C104.562 28.418 104.618 28.4015 104.667 28.3717C104.716 28.3419 104.756 28.2998 104.784 28.2495C105.114 27.6268 105.328 26.949 105.414 26.2495C105.42 26.2075 105.417 26.1647 105.406 26.1237C105.395 26.0828 105.376 26.0444 105.35 26.0109C105.324 25.9774 105.291 25.9494 105.254 25.9286C105.217 25.9078 105.176 25.8945 105.134 25.8895C105.051 25.8781 104.966 25.9 104.899 25.9506C104.831 26.0011 104.787 26.0762 104.774 26.1595C104.691 26.7666 104.505 27.3551 104.224 27.8995C104.203 27.9368 104.19 27.9779 104.185 28.0204C104.18 28.0629 104.184 28.106 104.196 28.147C104.208 28.188 104.229 28.2262 104.256 28.2592C104.283 28.2923 104.316 28.3196 104.354 28.3395C104.367 28.3503 104.38 28.3603 104.394 28.3695L104.504 28.4195ZM138.454 27.4195C138.54 27.4204 138.622 27.3882 138.684 27.3295C138.744 27.2679 138.778 27.1854 138.778 27.0995C138.778 27.0136 138.744 26.9311 138.684 26.8695C138.224 26.3995 137.754 25.9395 137.284 25.4895C137.223 25.4297 137.14 25.3962 137.054 25.3962C136.968 25.3962 136.886 25.4297 136.824 25.4895C136.765 25.5494 136.732 25.6303 136.732 25.7145C136.732 25.7988 136.765 25.8796 136.824 25.9395C137.284 26.3795 137.744 26.8395 138.194 27.2995C138.24 27.3258 138.292 27.3396 138.344 27.3395L138.454 27.4195ZM93.4543 27.4195C93.5038 27.429 93.5547 27.429 93.6043 27.4195C93.6787 27.3773 93.7345 27.3085 93.7604 27.2269C93.7864 27.1454 93.7806 27.057 93.7443 26.9795C93.4627 26.423 93.2575 25.831 93.1343 25.2195C93.1249 25.1779 93.1073 25.1386 93.0825 25.1039C93.0577 25.0692 93.0262 25.0398 92.9898 25.0174C92.9535 24.995 92.913 24.9802 92.8709 24.9737C92.8287 24.9672 92.7857 24.9691 92.7443 24.9795C92.7028 24.9879 92.6634 25.0044 92.6283 25.028C92.5933 25.0517 92.5633 25.082 92.54 25.1174C92.5168 25.1527 92.5007 25.1923 92.4929 25.2339C92.485 25.2755 92.4855 25.3181 92.4943 25.3595C92.6393 26.021 92.8643 26.6624 93.1643 27.2695C93.2124 27.2997 93.2676 27.3169 93.3243 27.3195L93.4543 27.4195ZM135.644 24.7695C135.69 24.7693 135.735 24.7594 135.776 24.7404C135.818 24.7215 135.854 24.6939 135.884 24.6595C135.944 24.5979 135.978 24.5154 135.978 24.4295C135.978 24.3436 135.944 24.2611 135.884 24.1995L135.284 23.6995L134.354 22.9695C134.285 22.917 134.198 22.8938 134.112 22.9051C134.026 22.9163 133.948 22.961 133.894 23.0295C133.845 23.098 133.823 23.1828 133.835 23.2665C133.846 23.3502 133.889 23.4264 133.954 23.4795L134.874 24.1995L135.464 24.6995C135.482 24.6911 135.499 24.6811 135.514 24.6695L135.644 24.7695ZM105.124 24.6795C105.21 24.6695 105.289 24.6261 105.343 24.5588C105.397 24.4915 105.423 24.4056 105.414 24.3195C105.338 23.6411 105.197 22.9714 104.994 22.3195C104.983 22.2786 104.963 22.2404 104.937 22.2071C104.91 22.1738 104.878 22.1462 104.84 22.1257C104.803 22.1052 104.762 22.0923 104.72 22.0878C104.678 22.0833 104.635 22.0873 104.594 22.0995C104.553 22.1108 104.515 22.1304 104.483 22.157C104.45 22.1836 104.422 22.2166 104.403 22.2541C104.383 22.2916 104.371 22.3327 104.368 22.3749C104.365 22.4171 104.37 22.4595 104.384 22.4995C104.566 23.1043 104.696 23.7231 104.774 24.3495C104.788 24.4037 104.815 24.4535 104.854 24.4938C104.892 24.5342 104.941 24.5637 104.994 24.5795L105.124 24.6795ZM92.6743 23.6795C92.7558 23.6797 92.8343 23.6487 92.8938 23.593C92.9532 23.5372 92.9892 23.4609 92.9943 23.3795C93.0404 22.7646 93.1821 22.1607 93.4143 21.5895C93.4307 21.5508 93.4394 21.5092 93.4398 21.4671C93.4402 21.425 93.4322 21.3833 93.4164 21.3443C93.4006 21.3053 93.3773 21.2697 93.3477 21.2397C93.3182 21.2098 93.2831 21.1859 93.2443 21.1695C93.2056 21.1531 93.1639 21.1444 93.1219 21.144C93.0798 21.1437 93.038 21.1516 92.999 21.1674C92.96 21.1832 92.9245 21.2065 92.8945 21.2361C92.8645 21.2656 92.8407 21.3008 92.8243 21.3395C92.5593 21.976 92.4005 22.6516 92.3543 23.3395C92.3502 23.3824 92.3547 23.4256 92.3677 23.4666C92.3807 23.5076 92.4018 23.5456 92.4298 23.5783C92.4578 23.611 92.4922 23.6377 92.5307 23.6568C92.5693 23.6759 92.6113 23.6871 92.6543 23.6895L92.6743 23.6795ZM132.414 22.2695C132.467 22.2704 132.52 22.2581 132.567 22.2337C132.614 22.2092 132.654 22.1734 132.684 22.1295C132.732 22.0587 132.75 21.9723 132.735 21.8884C132.72 21.8046 132.673 21.7297 132.604 21.6795C132.064 21.3095 131.504 20.9495 130.954 20.6095C130.88 20.5651 130.791 20.5517 130.707 20.5723C130.623 20.5929 130.55 20.6458 130.504 20.7195C130.483 20.7556 130.468 20.7956 130.462 20.8373C130.456 20.879 130.458 20.9215 130.468 20.9624C130.478 21.0033 130.496 21.0417 130.521 21.0756C130.547 21.1094 130.578 21.1379 130.614 21.1595C131.161 21.4995 131.701 21.8495 132.234 22.2095C132.287 22.2473 132.35 22.2682 132.414 22.2695ZM103.914 20.8195C103.957 20.8297 104.002 20.8297 104.044 20.8195C104.123 20.7844 104.185 20.7197 104.217 20.6393C104.249 20.5589 104.248 20.4692 104.214 20.3895C103.964 19.8195 103.674 19.2195 103.344 18.6195C103.324 18.5817 103.297 18.5482 103.264 18.5211C103.231 18.4939 103.193 18.4737 103.152 18.4616C103.111 18.4495 103.068 18.4457 103.025 18.4505C102.983 18.4553 102.942 18.4686 102.904 18.4895C102.83 18.5317 102.775 18.6012 102.75 18.6833C102.726 18.7654 102.735 18.8537 102.774 18.9295C103.094 19.5095 103.384 20.0895 103.624 20.6495C103.648 20.7076 103.688 20.7575 103.739 20.793C103.791 20.8286 103.852 20.8482 103.914 20.8495V20.8195ZM129.044 20.2695C129.104 20.2709 129.162 20.2557 129.213 20.2257C129.265 20.1957 129.306 20.152 129.334 20.0995C129.374 20.0236 129.382 19.9353 129.358 19.8532C129.334 19.7711 129.279 19.7017 129.204 19.6595C128.634 19.3495 128.044 19.0495 127.454 18.7595C127.416 18.7409 127.375 18.7299 127.333 18.7274C127.29 18.7248 127.248 18.7307 127.208 18.7447C127.168 18.7586 127.131 18.7804 127.1 18.8087C127.068 18.837 127.042 18.8713 127.024 18.9095C127.006 18.9476 126.995 18.9889 126.992 19.0312C126.99 19.0735 126.995 19.1159 127.009 19.1559C127.023 19.1959 127.045 19.2327 127.073 19.2642C127.102 19.2957 127.136 19.3214 127.174 19.3395C127.754 19.6195 128.334 19.9195 128.894 20.2295C128.939 20.2567 128.992 20.2706 129.044 20.2695ZM93.9643 20.0195C94.0121 20.0189 94.0593 20.0078 94.1025 19.9871C94.1457 19.9663 94.1838 19.9365 94.2143 19.8995C94.6186 19.4266 95.0748 19.0005 95.5743 18.6295C95.6098 18.6057 95.64 18.5747 95.6629 18.5386C95.6859 18.5025 95.7012 18.4621 95.7077 18.4199C95.7143 18.3776 95.7121 18.3344 95.7011 18.2931C95.6902 18.2517 95.6708 18.213 95.6443 18.1795C95.6204 18.144 95.5895 18.1138 95.5534 18.0909C95.5173 18.0679 95.4769 18.0527 95.4346 18.0461C95.3923 18.0395 95.3492 18.0418 95.3078 18.0527C95.2665 18.0636 95.2278 18.0829 95.1943 18.1095C94.6501 18.5117 94.1535 18.9747 93.7143 19.4895C93.6573 19.5506 93.6257 19.631 93.6257 19.7145C93.6257 19.798 93.6573 19.8785 93.7143 19.9395C93.7584 19.9789 93.8121 20.0061 93.87 20.0183C93.9278 20.0306 93.9879 20.0276 94.0443 20.0095L93.9643 20.0195ZM125.544 18.5695C125.608 18.5665 125.669 18.5464 125.722 18.5111C125.775 18.4759 125.817 18.427 125.844 18.3695C125.861 18.3308 125.869 18.2892 125.87 18.2471C125.87 18.205 125.862 18.1633 125.846 18.1243C125.831 18.0853 125.807 18.0497 125.778 18.0197C125.748 17.9898 125.713 17.9659 125.674 17.9495C125.064 17.6895 124.454 17.4495 123.844 17.2195C123.763 17.1901 123.674 17.1935 123.596 17.229C123.517 17.2645 123.456 17.3293 123.424 17.4095C123.395 17.4918 123.4 17.5821 123.438 17.6608C123.475 17.7395 123.542 17.8001 123.624 17.8295C124.224 18.0495 124.824 18.2895 125.414 18.5395C125.471 18.564 125.534 18.5709 125.594 18.5595L125.544 18.5695ZM97.0543 17.6895C97.0998 17.7041 97.1488 17.7041 97.1943 17.6895C97.7668 17.4134 98.3544 17.1697 98.9543 16.9595C98.9945 16.946 99.0317 16.9247 99.0636 16.8967C99.0955 16.8687 99.1215 16.8346 99.1402 16.7964C99.1588 16.7583 99.1696 16.7168 99.172 16.6744C99.1744 16.632 99.1684 16.5896 99.1543 16.5495C99.1408 16.5093 99.1194 16.4721 99.0914 16.4402C99.0634 16.4083 99.0293 16.3823 98.9912 16.3636C98.953 16.345 98.9116 16.3342 98.8692 16.3318C98.8268 16.3294 98.7843 16.3354 98.7443 16.3495C98.1171 16.5679 97.5027 16.8216 96.9043 17.1095C96.828 17.15 96.7707 17.2187 96.7445 17.301C96.7184 17.3832 96.7254 17.4724 96.7642 17.5495C96.801 17.6032 96.8532 17.6443 96.914 17.6676C96.9747 17.6908 97.0411 17.695 97.1043 17.6795L97.0543 17.6895ZM102.054 17.4195C102.115 17.4233 102.175 17.4056 102.224 17.3695C102.261 17.3481 102.292 17.3194 102.317 17.2853C102.342 17.2512 102.36 17.2123 102.369 17.1711C102.379 17.1299 102.379 17.0872 102.372 17.0457C102.364 17.0041 102.348 16.9646 102.324 16.9295C102.164 16.6695 101.994 16.4195 101.824 16.1495L102.714 15.9695C102.798 15.9549 102.872 15.9077 102.921 15.8383C102.97 15.7689 102.989 15.6831 102.974 15.5995C102.967 15.5572 102.951 15.5167 102.928 15.4805C102.905 15.4443 102.875 15.4131 102.839 15.3889C102.804 15.3646 102.764 15.3477 102.722 15.3393C102.68 15.3308 102.636 15.3309 102.594 15.3395C102.204 15.4095 101.814 15.4895 101.434 15.5795L101.234 15.2995C101.21 15.2644 101.179 15.2344 101.144 15.2113C101.108 15.1882 101.068 15.1725 101.026 15.165C100.984 15.1576 100.941 15.1585 100.9 15.1679C100.858 15.1773 100.819 15.1948 100.784 15.2195C100.749 15.2436 100.719 15.2743 100.696 15.3101C100.673 15.3458 100.657 15.3858 100.65 15.4277C100.642 15.4696 100.643 15.5126 100.653 15.5541C100.662 15.5956 100.68 15.6349 100.704 15.6695L100.754 15.7395H100.674C100.591 15.763 100.519 15.8175 100.475 15.8919C100.43 15.9662 100.416 16.0548 100.434 16.1395C100.46 16.2211 100.515 16.2901 100.589 16.3328C100.663 16.3754 100.751 16.3885 100.834 16.3695L101.144 16.2995C101.374 16.6195 101.584 16.9495 101.784 17.2995C101.816 17.3371 101.856 17.3667 101.901 17.3858C101.946 17.405 101.995 17.4131 102.044 17.4095L102.054 17.4195ZM121.914 17.2095C121.983 17.2125 122.051 17.1925 122.107 17.1526C122.163 17.1128 122.204 17.0554 122.224 16.9895C122.25 16.9073 122.242 16.8184 122.203 16.7418C122.163 16.6652 122.096 16.607 122.014 16.5795C121.394 16.3895 120.754 16.1995 120.124 16.0395C120.084 16.0275 120.041 16.0241 119.999 16.0293C119.957 16.0345 119.916 16.0484 119.879 16.0699C119.843 16.0915 119.811 16.1203 119.786 16.1547C119.761 16.189 119.744 16.2281 119.734 16.2695C119.724 16.3102 119.721 16.3526 119.727 16.3943C119.733 16.4359 119.747 16.476 119.768 16.5122C119.79 16.5484 119.818 16.5801 119.852 16.6053C119.885 16.6306 119.924 16.6491 119.964 16.6595C120.584 16.8195 121.204 17.0095 121.824 17.1995L121.914 17.2095ZM118.154 16.2095C118.229 16.2105 118.301 16.1848 118.358 16.1371C118.414 16.0894 118.452 16.0228 118.464 15.9495C118.473 15.9081 118.474 15.8654 118.466 15.8239C118.458 15.7823 118.442 15.7427 118.419 15.7074C118.395 15.672 118.365 15.6417 118.33 15.618C118.295 15.5944 118.256 15.5779 118.214 15.5695C117.574 15.4295 116.924 15.3095 116.284 15.2095C116.201 15.195 116.115 15.2142 116.045 15.263C115.976 15.3117 115.929 15.386 115.914 15.4695C115.906 15.5118 115.906 15.5553 115.915 15.5974C115.924 15.6396 115.942 15.6793 115.968 15.7141C115.993 15.7489 116.025 15.7781 116.063 15.7997C116.1 15.8212 116.141 15.8348 116.184 15.8395C116.814 15.9495 117.454 16.0695 118.084 16.1995L118.154 16.2095ZM104.584 15.6595C105.214 15.5695 105.864 15.4995 106.504 15.4495C106.59 15.4419 106.669 15.401 106.725 15.3356C106.782 15.2702 106.81 15.1855 106.804 15.0995C106.801 15.0574 106.788 15.0165 106.769 14.9791C106.749 14.9417 106.722 14.9086 106.69 14.8816C106.657 14.8546 106.62 14.8344 106.579 14.822C106.539 14.8097 106.496 14.8054 106.454 14.8095C105.804 14.8095 105.144 14.9295 104.454 15.0195C104.412 15.0244 104.372 15.0377 104.336 15.0587C104.299 15.0796 104.267 15.1078 104.242 15.1415C104.217 15.1752 104.198 15.2136 104.189 15.2546C104.179 15.2955 104.177 15.338 104.184 15.3795C104.188 15.4281 104.203 15.4751 104.227 15.5172C104.252 15.5592 104.285 15.5951 104.326 15.6221C104.366 15.6491 104.413 15.6665 104.461 15.673C104.509 15.6795 104.558 15.6749 104.604 15.6595H104.584ZM114.304 15.5795C114.384 15.5799 114.461 15.5503 114.521 15.4966C114.58 15.443 114.617 15.3691 114.624 15.2895C114.633 15.2061 114.608 15.1228 114.556 15.0573C114.503 14.9919 114.427 14.9496 114.344 14.9395C113.694 14.8595 113.034 14.7995 112.344 14.7595C112.302 14.7568 112.26 14.7624 112.22 14.7761C112.18 14.7897 112.144 14.8111 112.112 14.8389C112.08 14.8668 112.055 14.9006 112.036 14.9385C112.018 14.9763 112.007 15.0175 112.004 15.0595C112 15.1019 112.005 15.1446 112.018 15.1851C112.031 15.2255 112.052 15.2628 112.08 15.2947C112.108 15.3266 112.143 15.3524 112.181 15.3704C112.22 15.3884 112.262 15.3984 112.304 15.3995C112.944 15.4495 113.594 15.4995 114.224 15.5795H114.304ZM108.464 15.3395C109.114 15.3395 109.754 15.3395 110.404 15.3395C110.446 15.3409 110.487 15.3339 110.526 15.3189C110.565 15.3039 110.6 15.2813 110.63 15.2523C110.66 15.2234 110.684 15.1888 110.7 15.1505C110.716 15.1122 110.724 15.0711 110.724 15.0295C110.726 14.9875 110.719 14.9456 110.704 14.9063C110.689 14.8669 110.666 14.8309 110.638 14.8003C110.609 14.7696 110.574 14.7449 110.536 14.7277C110.498 14.7104 110.456 14.7008 110.414 14.6995C109.754 14.6995 109.104 14.6995 108.414 14.6995C108.371 14.7008 108.329 14.7107 108.29 14.7286C108.251 14.7465 108.216 14.7721 108.187 14.8038C108.158 14.8355 108.136 14.8727 108.122 14.9132C108.108 14.9537 108.102 14.9967 108.104 15.0395C108.106 15.0854 108.118 15.1303 108.139 15.1712C108.16 15.2121 108.19 15.248 108.226 15.2764C108.262 15.3049 108.303 15.3253 108.348 15.3362C108.393 15.347 108.439 15.3482 108.484 15.3395H108.464ZM99.8143 14.2295C99.8871 14.2304 99.9579 14.2056 100.014 14.1595C100.073 14.0996 100.107 14.0188 100.107 13.9345C100.107 13.8503 100.073 13.7694 100.014 13.7095C99.6142 13.1895 99.1943 12.7095 98.7743 12.1795C98.7144 12.1203 98.6335 12.0871 98.5493 12.0871C98.465 12.0871 98.3842 12.1203 98.3243 12.1795C98.2644 12.2411 98.2309 12.3237 98.2309 12.4095C98.2309 12.4954 98.2644 12.5779 98.3243 12.6395C98.7343 13.1195 99.1543 13.6395 99.5443 14.1295C99.5759 14.1764 99.6194 14.2141 99.6704 14.2387C99.7213 14.2633 99.7779 14.2739 99.8343 14.2695L99.8143 14.2295ZM97.2743 11.2295C97.315 11.2297 97.3555 11.2219 97.3933 11.2065C97.431 11.191 97.4653 11.1683 97.4943 11.1395C97.5249 11.1106 97.5492 11.0757 97.5658 11.037C97.5825 10.9983 97.591 10.9566 97.591 10.9145C97.591 10.8724 97.5825 10.8308 97.5658 10.7921C97.5492 10.7534 97.5249 10.7185 97.4943 10.6895C97.0443 10.2095 96.5743 9.74954 96.0943 9.30954C96.0653 9.27898 96.0304 9.25464 95.9917 9.23801C95.953 9.22137 95.9114 9.21277 95.8693 9.21277C95.8272 9.21277 95.7855 9.22137 95.7468 9.23801C95.7081 9.25464 95.6732 9.27898 95.6443 9.30954C95.6134 9.33938 95.5889 9.3751 95.5722 9.41461C95.5554 9.45412 95.5468 9.4966 95.5468 9.53952C95.5468 9.58244 95.5554 9.62492 95.5722 9.66443C95.5889 9.70394 95.6134 9.73969 95.6443 9.76953C96.1143 10.1995 96.5743 10.6595 97.0243 11.1195C97.0506 11.1674 97.0899 11.2069 97.1377 11.2335C97.1854 11.26 97.2397 11.2725 97.2943 11.2695L97.2743 11.2295ZM94.4243 8.57953C94.5188 8.57713 94.6086 8.53763 94.6743 8.46954C94.7341 8.40795 94.7676 8.32543 94.7676 8.23953C94.7676 8.15364 94.7341 8.07112 94.6743 8.00952C94.1643 7.58952 93.6743 7.18954 93.1143 6.80954C93.0796 6.78483 93.0404 6.76727 92.9989 6.7579C92.9573 6.74854 92.9144 6.74756 92.8725 6.755C92.8306 6.76245 92.7906 6.7782 92.7548 6.8013C92.7191 6.8244 92.6883 6.85438 92.6643 6.88953C92.6391 6.92357 92.6209 6.96228 92.6107 7.00342C92.6006 7.04455 92.5987 7.08729 92.6053 7.12915C92.6118 7.17101 92.6265 7.21117 92.6486 7.24728C92.6708 7.2834 92.6999 7.31476 92.7343 7.33954C93.2543 7.71287 93.7642 8.10285 94.2642 8.50952C94.3095 8.5661 94.3733 8.60504 94.4443 8.61954L94.4243 8.57953ZM91.2543 6.31952C91.3083 6.31933 91.3614 6.30549 91.4086 6.27927C91.4558 6.25304 91.4956 6.21528 91.5243 6.16953C91.5696 6.0963 91.5846 6.00824 91.5659 5.92416C91.5472 5.84008 91.4964 5.76667 91.4243 5.71954C90.8643 5.37954 90.2843 5.04954 89.7043 4.71954C89.6272 4.6807 89.538 4.6736 89.4557 4.69977C89.3735 4.72594 89.3047 4.78328 89.2642 4.85953C89.2259 4.93513 89.2191 5.02286 89.2453 5.10349C89.2716 5.18411 89.3287 5.25102 89.4043 5.28952C89.9743 5.58952 90.5343 5.90952 91.0843 6.28952C91.1096 6.3133 91.1396 6.33176 91.1722 6.34378C91.2048 6.3558 91.2395 6.36116 91.2743 6.35953L91.2543 6.31952ZM87.7943 4.51953C87.8575 4.52102 87.9197 4.50378 87.9731 4.46997C88.0264 4.43616 88.0686 4.38728 88.0943 4.32953C88.1107 4.2908 88.1194 4.24921 88.1198 4.20712C88.1201 4.16504 88.1122 4.12327 88.0964 4.08426C88.0806 4.04524 88.0573 4.00972 88.0277 3.97974C87.9982 3.94975 87.9631 3.92592 87.9243 3.90955C87.3243 3.64955 86.7043 3.40954 86.0843 3.18954C86.0442 3.1754 86.0018 3.16936 85.9594 3.17178C85.9171 3.17421 85.8755 3.18503 85.8374 3.20364C85.7992 3.22226 85.7652 3.24827 85.7372 3.28018C85.7092 3.31209 85.6878 3.34927 85.6743 3.38953C85.6601 3.42956 85.6541 3.47202 85.6565 3.5144C85.659 3.55679 85.6698 3.59825 85.6884 3.63641C85.707 3.67457 85.733 3.70866 85.7649 3.73666C85.7968 3.76467 85.834 3.78603 85.8743 3.79953C86.4743 4.00953 87.0843 4.24954 87.6643 4.49954C87.7083 4.53204 87.76 4.5527 87.8143 4.55954L87.7943 4.51953ZM62.8943 3.71954H62.9643L64.8643 3.31952C64.9067 3.31234 64.9471 3.29672 64.9833 3.27356C65.0195 3.2504 65.0507 3.22019 65.0749 3.18472C65.0992 3.14926 65.1161 3.10926 65.1245 3.06714C65.133 3.02501 65.133 2.98163 65.1243 2.93954C65.1051 2.85708 65.055 2.78515 64.9842 2.73862C64.9135 2.69209 64.8276 2.67452 64.7443 2.68954C64.1043 2.80954 63.4643 2.94954 62.8243 3.08954C62.7419 3.10872 62.6699 3.15886 62.6234 3.22958C62.5769 3.30031 62.5593 3.38623 62.5743 3.46954C62.5864 3.5508 62.6275 3.62491 62.69 3.67822C62.7525 3.73153 62.8321 3.76041 62.9143 3.75952L62.8943 3.71954ZM84.1143 3.23953C84.187 3.24183 84.2582 3.21931 84.3164 3.17569C84.3745 3.13207 84.4162 3.06995 84.4343 2.99954C84.4448 2.95883 84.4472 2.91642 84.4413 2.87479C84.4354 2.83315 84.4215 2.79309 84.4001 2.75687C84.3788 2.72065 84.3505 2.68898 84.3169 2.6637C84.2833 2.63842 84.245 2.62001 84.2043 2.60953C83.5743 2.43953 82.9343 2.27954 82.2843 2.14954C82.1995 2.13481 82.1124 2.15374 82.0415 2.2023C81.9705 2.25086 81.9212 2.32524 81.9043 2.40955C81.8892 2.49286 81.9068 2.57875 81.9533 2.64948C81.9999 2.7202 82.0718 2.77034 82.1543 2.78952C82.7943 2.90952 83.4243 3.05952 84.0343 3.22952L84.1143 3.23953ZM66.7143 2.95953H66.7743C67.4409 2.8462 68.081 2.74621 68.6943 2.65955C68.7785 2.64481 68.8535 2.598 68.9039 2.52899C68.9543 2.45999 68.9759 2.37415 68.9643 2.28952C68.9594 2.24769 68.9462 2.20729 68.9252 2.17078C68.9042 2.13426 68.876 2.10238 68.8423 2.07712C68.8086 2.05185 68.7701 2.03374 68.7292 2.02383C68.6883 2.01393 68.6458 2.01246 68.6043 2.01953C67.9543 2.10953 67.3143 2.20952 66.6643 2.31952C66.5808 2.33416 66.5065 2.38137 66.4577 2.45074C66.409 2.52012 66.3897 2.60601 66.4043 2.68954C66.4042 2.73199 66.4128 2.77398 66.4297 2.81296C66.4465 2.85193 66.4711 2.88704 66.502 2.91611C66.533 2.94517 66.5696 2.96759 66.6095 2.98193C66.6495 2.99628 66.6919 3.00228 66.7343 2.99954L66.7143 2.95953ZM80.3043 2.46954C80.3821 2.46808 80.4569 2.43917 80.5154 2.38794C80.574 2.33671 80.6125 2.26645 80.6243 2.18954C80.6299 2.14747 80.627 2.10469 80.6159 2.06372C80.6048 2.02275 80.5857 1.9844 80.5597 1.9509C80.5336 1.91739 80.5011 1.8894 80.4641 1.86856C80.4272 1.84772 80.3864 1.83446 80.3443 1.82953C79.7043 1.73953 79.0443 1.66954 78.3443 1.61954C78.3027 1.61542 78.2609 1.61972 78.221 1.6322C78.1812 1.64468 78.1443 1.66509 78.1126 1.69217C78.0808 1.71925 78.0548 1.75244 78.0362 1.78979C78.0176 1.82715 78.0068 1.86789 78.0043 1.90955C78.0002 1.9516 78.0044 1.99405 78.0168 2.03445C78.0291 2.07486 78.0494 2.11242 78.0763 2.14496C78.1033 2.1775 78.1365 2.2044 78.1739 2.22406C78.2113 2.24372 78.2522 2.25576 78.2943 2.25952C78.9443 2.30952 79.5943 2.37954 80.2143 2.46954H80.3043ZM70.5743 2.41953C71.2143 2.34953 71.8643 2.29954 72.5043 2.24954C72.5464 2.247 72.5875 2.23616 72.6253 2.21768C72.6632 2.1992 72.697 2.17344 72.7249 2.14185C72.7528 2.11026 72.7741 2.07346 72.7878 2.0336C72.8014 1.99374 72.807 1.95159 72.8043 1.90955C72.8018 1.86658 72.7907 1.82454 72.7716 1.78598C72.7525 1.74742 72.7258 1.71313 72.6931 1.68512C72.6604 1.65711 72.6224 1.63597 72.5814 1.62299C72.5404 1.61 72.4971 1.60542 72.4543 1.60953C71.8043 1.60953 71.1543 1.70954 70.4543 1.77954C70.4122 1.7833 70.3712 1.79534 70.3338 1.815C70.2964 1.83467 70.2633 1.86156 70.2364 1.8941C70.2094 1.92664 70.1892 1.9642 70.1768 2.00461C70.1644 2.04502 70.1601 2.08746 70.1643 2.12952C70.1592 2.18344 70.1679 2.23779 70.1895 2.28745C70.2112 2.3371 70.2451 2.38045 70.2881 2.41342C70.331 2.4464 70.3817 2.46792 70.4352 2.47598C70.4888 2.48405 70.5435 2.47839 70.5943 2.45953L70.5743 2.41953ZM76.4143 2.15955C76.4984 2.1597 76.5795 2.12766 76.6408 2.07004C76.7022 2.01241 76.7392 1.93353 76.7443 1.84952C76.7456 1.80666 76.7383 1.76398 76.7229 1.724C76.7074 1.68401 76.684 1.64754 76.6541 1.61676C76.6243 1.58598 76.5886 1.5615 76.5491 1.5448C76.5096 1.5281 76.4672 1.51951 76.4243 1.51953C75.7743 1.51953 75.1143 1.51953 74.4243 1.51953C74.3814 1.51951 74.339 1.5281 74.2995 1.5448C74.26 1.5615 74.2242 1.58598 74.1944 1.61676C74.1645 1.64754 74.1412 1.68401 74.1257 1.724C74.1102 1.76398 74.1029 1.80666 74.1043 1.84952C74.1069 1.93264 74.1417 2.0115 74.2014 2.06937C74.2612 2.12723 74.3411 2.15959 74.4243 2.15955H76.3743H76.4143Z" fill="#999999"/>
  <path d="M26.4541 76.13L23.6341 77.35L12.3641 69.49L9.36411 71.15C6.95411 72.59 4.61411 72.69 3.49411 72.05L3.26407 72.16C1.52407 72.92 0.494074 72.24 0.144073 71.42C-0.205927 70.6 -0.00589943 69.42 1.7341 68.64L1.96408 68.54C2.17408 67.54 3.08413 65.86 6.63412 64.87L9.90408 63.82L11.9041 50.23L14.7241 49L16.9141 61.59L24.9741 58.83L26.1941 55.6L28.4341 54.77L28.5941 57.77L29.3941 57.7L30.1241 59.37L29.5241 59.96L31.6441 62.16L29.5041 63.23L26.3241 61.91L18.7941 65.91L26.4541 76.13ZM26.2441 61.18L29.4441 62.51L30.4441 61.99L28.5041 59.99L29.2341 59.25L28.8941 58.46L27.8941 58.55L27.7441 55.75L26.6541 56.15L25.4341 59.39L16.3141 62.5L14.1441 49.99L12.4541 50.72L10.5041 64.36L6.81412 65.54C3.37412 66.49 2.69409 68.03 2.59409 68.86V69.07L2.39407 69.14C2.26702 69.1762 2.14326 69.223 2.02408 69.28C0.954079 69.74 0.474089 70.47 0.784088 71.17C1.09409 71.87 1.94407 72.03 3.01407 71.56C3.13447 71.5114 3.25145 71.4546 3.36411 71.39L3.55411 71.28L3.7341 71.41C4.4641 71.95 6.59411 72.05 9.05411 70.59L12.4141 68.71L23.7141 76.6L25.4041 75.87L17.7441 65.73L26.2441 61.18Z" fill="#999999"/>
</svg>