<svg width="480" height="361" fill="none" xmlns="http://www.w3.org/2000/svg"><mask id="prefix__a" style="mask-type:alpha" maskUnits="userSpaceOnUse" x="0" y="0" width="480" height="361"><path transform="rotate(90 479.5 .5)" fill="url(#prefix__paint0_linear_0_403)" stroke="#6246E5" d="M479.5.5h360v479h-360z"/></mask><g mask="url(#prefix__a)" stroke="#E5E5E5"><path d="M129.995 461.92c-69.333 0-125.54-56.285-125.54-125.718s56.207-125.718 125.54-125.718 125.54 56.285 125.54 125.718-56.207 125.718-125.54 125.718z"/><path d="M143.263 466.902c-77.577 0-140.466-62.977-140.466-140.665 0-77.688 62.89-140.665 140.466-140.665 77.576 0 140.465 62.977 140.465 140.665 0 77.688-62.889 140.665-140.465 140.665z"/><path d="M154.042 471.885C69.139 471.885.31 402.959.31 317.934c0-85.025 68.829-153.951 153.732-153.951 84.904 0 153.733 68.926 153.733 153.951 0 85.025-68.829 153.951-153.733 153.951z"/><path d="M169.798 475.206c-91.315 0-165.342-74.13-165.342-165.576s74.027-165.576 165.342-165.576c91.314 0 165.341 74.13 165.341 165.576s-74.027 165.576-165.341 165.576z"/><path d="M185.138 478.527c-97.498 0-176.536-79.149-176.536-176.786S87.64 124.955 185.138 124.955c97.497 0 176.535 79.149 176.535 176.786s-79.038 176.786-176.535 176.786z"/><path d="M202.551 482.68c-107.114 0-193.949-86.957-193.949-194.224 0-107.268 86.835-194.225 193.949-194.225 107.114 0 193.949 86.957 193.949 194.225 0 107.267-86.835 194.224-193.949 194.224z"/></g><defs><linearGradient id="prefix__paint0_linear_0_403" x1="736.035" y1="13.467" x2="487.704" y2="484.066" gradientUnits="userSpaceOnUse"><stop stop-color="#747DEF"/><stop offset="1" stop-color="#5E3BE1"/></linearGradient></defs></svg>
