<svg width="60" height="60" fill="none" xmlns="http://www.w3.org/2000/svg"><g filter="url(#prefix__filter0_d_0_379)"><path fill-rule="evenodd" clip-rule="evenodd" d="M30 48c11.046 0 20-8.954 20-20S41.046 8 30 8s-20 8.954-20 20 8.954 20 20 20z" fill="#fff"/></g><path fill-rule="evenodd" clip-rule="evenodd" d="M32.545 25.8a3.437 3.437 0 00-1-.166c-.405 0-1.28.28-1.28.824v1.3h2.077v2.19h-2.077v6.042h-2.092v-6.042h-1.03v-2.19h1.03v-1.103c0-1.663.719-3.046 2.452-3.046.593 0 1.654.033 2.232.247l-.312 1.943z" fill="#444"/><defs><filter id="prefix__filter0_d_0_379" x="0" y="0" width="60" height="60" filterUnits="userSpaceOnUse" color-interpolation-filters="sRGB"><feFlood flood-opacity="0" result="BackgroundImageFix"/><feColorMatrix in="SourceAlpha" values="0 0 0 0 0 0 0 0 0 0 0 0 0 0 0 0 0 0 127 0" result="hardAlpha"/><feOffset dy="2"/><feGaussianBlur stdDeviation="5"/><feColorMatrix values="0 0 0 0 0 0 0 0 0 0 0 0 0 0 0 0 0 0 0.1 0"/><feBlend in2="BackgroundImageFix" result="effect1_dropShadow_0_379"/><feBlend in="SourceGraphic" in2="effect1_dropShadow_0_379" result="shape"/></filter></defs></svg>