<svg width="68" height="68" fill="none" xmlns="http://www.w3.org/2000/svg"><g filter="url(#prefix__filter0_d_0_382)"><path fill-rule="evenodd" clip-rule="evenodd" d="M34 56c13.255 0 24-10.745 24-24S47.255 8 34 8 10 18.745 10 32s10.745 24 24 24z" fill="#FA7436"/></g><g clip-path="url(#prefix__clip0_0_382)" fill="#fff"><path d="M40.567 22.934H28.5a2.503 2.503 0 00-2.5 2.5V37.5c0 1.379 1.122 2.5 2.5 2.5h12.067c1.378 0 2.5-1.121 2.5-2.5V25.434c0-1.379-1.122-2.5-2.5-2.5zm1.5 14.566c0 .827-.673 1.5-1.5 1.5H28.5c-.827 0-1.5-.673-1.5-1.5V25.434c0-.827.673-1.5 1.5-1.5h12.067c.827 0 1.5.673 1.5 1.5V37.5z"/><path d="M40.033 24.967c-.55 0-1 .449-1 1a1.001 1.001 0 101-1zM34.533 26.967a4.505 4.505 0 00-4.5 4.5c0 2.481 2.02 4.5 4.5 4.5 2.482 0 4.5-2.019 4.5-4.5 0-2.482-2.018-4.5-4.5-4.5zm0 8c-1.93 0-3.5-1.57-3.5-3.5s1.57-3.5 3.5-3.5 3.5 1.57 3.5 3.5-1.57 3.5-3.5 3.5z"/></g><defs><clipPath id="prefix__clip0_0_382"><path fill="#fff" transform="translate(26 22.934)" d="M0 0h17.067v17.067H0z"/></clipPath><filter id="prefix__filter0_d_0_382" x="0" y="0" width="68" height="68" filterUnits="userSpaceOnUse" color-interpolation-filters="sRGB"><feFlood flood-opacity="0" result="BackgroundImageFix"/><feColorMatrix in="SourceAlpha" values="0 0 0 0 0 0 0 0 0 0 0 0 0 0 0 0 0 0 127 0" result="hardAlpha"/><feOffset dy="2"/><feGaussianBlur stdDeviation="5"/><feColorMatrix values="0 0 0 0 0 0 0 0 0 0 0 0 0 0 0 0 0 0 0.1 0"/><feBlend in2="BackgroundImageFix" result="effect1_dropShadow_0_382"/><feBlend in="SourceGraphic" in2="effect1_dropShadow_0_382" result="shape"/></filter></defs></svg>