<svg width="19" height="17" viewBox="0 0 19 17" fill="none" xmlns="http://www.w3.org/2000/svg">
<g id="Navigation">
<path id="Vector" d="M18.7279 1.74644L10.777 16.5153C10.7104 16.639 10.5976 16.7405 10.4562 16.8038C10.3147 16.8671 10.1526 16.8888 9.99516 16.8653C9.83774 16.8418 9.69388 16.7746 9.58609 16.6742C9.4783 16.5737 9.41266 16.4457 9.39943 16.3101L8.72721 9.44459L0.662975 8.8723C0.503705 8.86103 0.35331 8.80515 0.235313 8.71338C0.117315 8.62161 0.0383687 8.49914 0.0108202 8.36511C-0.0167283 8.23109 0.0086748 8.09307 0.0830565 7.97264C0.157438 7.85221 0.276604 7.75617 0.421917 7.69953L17.7695 0.930461C17.9036 0.878137 18.0533 0.862 18.1985 0.884217C18.3437 0.906435 18.4774 0.965943 18.5817 1.05475C18.686 1.14356 18.7559 1.25741 18.782 1.38102C18.8081 1.50463 18.7892 1.63208 18.7277 1.74626L18.7279 1.74644Z" fill="#FA7436"/>
</g>
</svg>
