<svg width="113" height="114" fill="none" xmlns="http://www.w3.org/2000/svg"><path d="M106.177 16.68c-9.26-5.53-24.53 7.79-28.41 11.42a14.32 14.32 0 013.94-6 .34.34 0 00.13-.28.31.31 0 00-.14-.26 5.37 5.37 0 00-2.9-.92 5.21 5.21 0 014.46-1.91.32.32 0 00.32-.15.36.36 0 000-.36 4.21 4.21 0 00-3.78-1.88c1.31-1 4.28-1.36 5.48-1.4a.33.33 0 00.3-.2.34.34 0 00-.05-.35 6.76 6.76 0 00-4.57-2.33c1.66-2 6.58-2.6 6.63-2.61a.32.32 0 00.29-.26.32.32 0 00-.17-.42 12 12 0 00-5.17-1.81c2-2.48 8.36-4 8.43-4a.34.34 0 00.26-.29.34.34 0 00-.18-.34c-4.26-2.22-9.46-.06-9.7 0-6 3-6.27 12.95-5.64 19.84C73.347 13.8 68.217.69 59.147 0c-.3 0-7.37 0-11.25 4.57a.33.33 0 000 .38.35.35 0 00.35.17c.09 0 8.54-1.37 12 .73a14.75 14.75 0 00-5.29 4.63.35.35 0 000 .4.34.34 0 00.37.13c.07 0 6.34-1.75 9.22-.05a8.45 8.45 0 00-4.33 4.93.33.33 0 00.09.35.32.32 0 00.35.07c1.49-.55 5.37-1.64 7.37-.9a5.27 5.27 0 00-3.69 4 .34.34 0 00.14.33.36.36 0 00.36 0 6.59 6.59 0 016.36.18 6.76 6.76 0 00-3.07 2.49.32.32 0 000 .3.35.35 0 00.22.21 18.06 18.06 0 017.6 5.23c-4.94-1.91-21.7-7.66-27.58 0-.14.21-3.45 5.2-2 10.09a.34.34 0 00.3.24h.05a.35.35 0 00.28-.2c0-.07 2.92-6.51 5.94-8-.18 1.972.107 3.96.84 5.8a.33.33 0 00.32.22.34.34 0 00.32-.24c0-.05 1.65-5.13 4.11-6.44a7.16 7.16 0 001.5 5.28.33.33 0 00.34.11.32.32 0 00.25-.25c.29-1.26 1.26-4.36 2.63-5.5a4.48 4.48 0 001.18 4.37.35.35 0 00.35.07.35.35 0 00.22-.29 5.61 5.61 0 012.95-4.31 5.68 5.68 0 00.36 3.24.32.32 0 00.23.19.341.341 0 00.29-.07c.79-.62 1.653-1.14 2.57-1.55a3.58 3.58 0 00-1.14 2.93 3.61 3.61 0 003.9 3.29 3.55 3.55 0 002.1-.93c.85 2.22 4.1 12.86-1.4 34-7.42 2.23-8.6 4.57-9.63 6.64a8.23 8.23 0 01-1.32 2.07 4.93 4.93 0 00-.35 5.12c1.37 2.86 5.88 6 19.54 4.85 9.4-.8 15.19-3 17.21-6.54a5.083 5.083 0 00.36-4.55c-2-4.78-7.12-8.65-12-9.12-.78-7.71-3.17-25.78-8.83-33 .239.025.48.025.72 0a3.62 3.62 0 003.29-3.91 3.59 3.59 0 00-2.55-3.13 16.17 16.17 0 015.73.53.33.33 0 00.29 0 .32.32 0 00.15-.26 6.22 6.22 0 00-1-3.51 6.15 6.15 0 014.86 3.25.34.34 0 00.3.19.34.34 0 00.3-.19 4.89 4.89 0 00-.6-5c1.88.55 4.2 3.4 5 4.6a.35.35 0 00.31.15.33.33 0 00.27-.24 7.872 7.872 0 00-.62-6c3.07.3 6.85 4.91 6.89 5a.345.345 0 00.38.11.321.321 0 00.22-.33 13.807 13.807 0 00-1.5-6.31c3.71.28 9.34 5.78 9.4 5.84a.33.33 0 00.38.06.333.333 0 00.19-.33c-.43-5.57-5.82-9.34-6.07-9.51zm-17.89 55.61a5.51 5.51 0 01-3.83 4.58c-2.84 1-6.85.34-8.75-1.44a2.62 2.62 0 01-.89-2.67l.24-.88c2.46.914 5.079 1.319 7.7 1.19a7.93 7.93 0 005.39-2.42c.09.91.13 1.49.14 1.64zm-.23-2.6c-3.43 4.61-11.26 2.1-12.83 1.53.46-1.7.863-3.333 1.21-4.9a9.54 9.54 0 005.91 1.38 13 13 0 005.3-1.77c.17 1.46.31 2.74.41 3.76zm-.5-4.49c-6 3.6-10.12 1-11 .41.34-1.57.62-3.07.87-4.5a13 13 0 005 .59 10.56 10.56 0 004.39-1.35c.33 1.73.55 3.42.74 4.85zm-10-4.77c.25-1.5.45-2.94.6-4.29a9.63 9.63 0 004.14.55 9.17 9.17 0 003.73-1.15c.27 1.39.5 2.76.71 4.09a11.38 11.38 0 01-9.16.8h-.02zm.67-5c.13-1.28.23-2.5.29-3.65a8.83 8.83 0 003.51.42 7.41 7.41 0 003.11-1c.27 1.19.53 2.4.76 3.59a8.94 8.94 0 01-7.65.65l-.02-.01zm.33-4.36c0-1.07.06-2.08.05-3a8.59 8.59 0 002.24.11 6.15 6.15 0 003.2-1.16c.33 1.16.64 2.35.92 3.55a7.63 7.63 0 01-6.39.51l-.02-.01zm.05-3.73c0-1.19-.08-2.28-.17-3.28.537.122 1.09.159 1.64.11a5.76 5.76 0 002.76-1c.35 1 .69 2 1 3.09a6.56 6.56 0 01-5.21 1.09l-.02-.01zm-.23-4c-.087-.84-.187-1.61-.3-2.31.316.03.634.03.95 0a4.47 4.47 0 002.52-1c.37.79.71 1.63 1.05 2.5a4.85 4.85 0 01-4.2.82l-.02-.01zm-.41-3c-.15-.8-.3-1.49-.45-2.08.206.02.413.02.62 0a3.13 3.13 0 002-.91c.417.645.798 1.312 1.14 2a4 4 0 01-3.29 1l-.02-.01zm-.65-2.8c-.19-.66-.36-1.15-.49-1.49h.43a3.55 3.55 0 001.5-.49c.356.383.69.787 1 1.21a2.53 2.53 0 01-2.42.78l-.02-.01zm1.31-2.69a3 3 0 01-2.27.47 2.93 2.93 0 01-2.21-3.74c.112-.363.296-.7.54-.99a2.87 2.87 0 012-1.06h.43c.37.019.734.11 1.07.27a2.93 2.93 0 011.67 2.4 2.91 2.91 0 01-1.21 2.66l-.02-.01zm3-31.83a14.59 14.59 0 014-.93 9.84 9.84 0 014.24.49c-2.09.58-7 2.16-8.24 4.58a.32.32 0 00.3.49 9.8 9.8 0 014.56 1.25c-1.78.33-5.43 1.23-6.49 3.29a.33.33 0 000 .33.33.33 0 00.3.16 6.31 6.31 0 014.17 1.6c-1.52.13-4.95.62-5.83 2.29a.34.34 0 000 .36.31.31 0 00.34.13 4 4 0 013.52 1 5.6 5.6 0 00-4.74 2.78.34.34 0 000 .35.34.34 0 00.32.15 5.36 5.36 0 012.74.54 15.16 15.16 0 00-3.77 5.89c-.71-4.8-2.93-20.95 4.66-24.74l-.08-.01zm-12.77 19.5a6.78 6.78 0 013.06-2.07.34.34 0 00.24-.26.35.35 0 00-.13-.33 7.14 7.14 0 00-7-.89c.81-2.5 3.66-3 3.79-3.06a.32.32 0 00.27-.24.36.36 0 00-.11-.35c-1.86-1.56-6.29-.35-8 .2a8 8 0 014.23-4.1.33.33 0 00.22-.26.35.35 0 00-.11-.32c-2.28-1.95-7.24-1.12-9.34-.65a12.55 12.55 0 014.94-3.87.34.34 0 00.22-.26.33.33 0 00-.11-.32c-2.71-2.28-9.5-1.67-12-1.36 3.78-3.66 10-3.64 10.06-3.64 10.92.84 16.09 21.59 17.27 27.12a19 19 0 00-7.46-5.33l-.04-.01zm-.15 9.25a5.75 5.75 0 010-3 .33.33 0 00-.09-.34.33.33 0 00-.34-.08 6 6 0 00-3.86 4.43 4.27 4.27 0 01-.33-3.95.32.32 0 000-.35.34.34 0 00-.35-.1c-1.94.57-3.14 4.12-3.57 5.65a6.68 6.68 0 01-.86-4.74.34.34 0 00-.1-.32.31.31 0 00-.33-.08c-2.38.69-4.07 4.4-4.75 6.17a10.62 10.62 0 01-.41-5.1.33.33 0 00-.09-.33.33.33 0 00-.33-.08c-2.81.84-5.47 5.7-6.48 7.73-.73-4.29 2.09-8.55 2.11-8.58 1.7-2.2 4.43-3.19 7.55-3.46 7.05-.6 16 2.52 19.31 3.77a16.09 16.09 0 00-7.08 2.76zm5.8-1.85l-.17.16h-.3l.47-.16zm-3.63 4a2.93 2.93 0 012.68-3.17h.3v.05c0 .05-.05.11-.08.16a3.784 3.784 0 00-.18.42l-.06.21a3 3 0 00-.09.43v.19c-.02.216-.02.434 0 .65.015.182.045.363.09.54 0 .06 0 .12.05.18l.12.34.09.19c.047.1.1.197.16.29l.12.19c.057.087.12.171.19.25l.15.17c.071.082.148.158.23.23l.17.14c.085.072.176.139.27.2l.17.11c.144.082.294.152.45.21a2.9 2.9 0 01-1.64.68 2.94 2.94 0 01-3.21-2.74l.02.08zm29.15 44.29a4.5 4.5 0 01-.35 4c-1.31 2.28-5.27 5.21-16.67 6.19-14 1.19-17.83-2.29-18.88-4.48a4.31 4.31 0 01.24-4.36 9 9 0 001.44-2.23c1-2 2.05-4.06 8.81-6.17-.13.51-.27 1-.41 1.54a3.2 3.2 0 001.08 3.34 9.729 9.729 0 007.16 2.06 9.53 9.53 0 002.28-.48 6.18 6.18 0 004.28-5.15v-.07c0-.21-.09-1.25-.25-2.86a15 15 0 0111.25 8.59l.02.08zm-16.86-46.2a2.93 2.93 0 01-2.67 3.17 2.859 2.859 0 01-1-.08c.06-.05.1-.11.16-.17l.08-.09c.09-.11.18-.23.26-.35.07-.11.13-.23.19-.34l.06-.13c0-.09.07-.18.1-.28.03-.1 0-.1.05-.15.029-.092.052-.185.07-.28V32.86a.712.712 0 000-.14c.01-.15.01-.3 0-.45 0-.15 0-.29-.07-.44-.07-.15 0-.09 0-.14 0-.05-.05-.19-.08-.28l-.06-.16a2.738 2.738 0 00-.19-.4c0-.08-.09-.16-.14-.24l-.09-.13a1.71 1.71 0 00-.21-.26l-.06-.08a4.085 4.085 0 00-.3-.29l-.12-.09-.17-.14c.298-.13.615-.212.94-.24a2.93 2.93 0 013.23 2.55l.02.08zm18.54-12a.352.352 0 00-.28.19.349.349 0 000 .34c1 1.668 1.57 3.558 1.66 5.5-1.37-1.5-4.63-4.7-7.37-4.46a.32.32 0 00-.27.19.35.35 0 000 .34 7.47 7.47 0 011 5.3c-1-1.36-3.72-4.59-5.95-4.39a.32.32 0 00-.29.22.31.31 0 00.08.35 4.71 4.71 0 011.24 4.27 6.639 6.639 0 00-5.74-3 .36.36 0 00-.3.2.34.34 0 00.05.35 6.2 6.2 0 011.2 3.16 17.17 17.17 0 00-5.7-.44c-.927.085-1.845.236-2.75.45 4-3.65 18.85-16.43 27.49-11.26.05 0 4.74 3.31 5.67 8.07-1.74-1.7-6.51-5.71-9.74-5.43v.05z" fill="#E5E5E5"/><path d="M60.177 40.68c-9.26-5.53-24.53 7.79-28.41 11.42a14.32 14.32 0 013.94-6 .34.34 0 00.13-.28.31.31 0 00-.14-.26 5.37 5.37 0 00-2.9-.92 5.21 5.21 0 014.46-1.91.32.32 0 00.32-.15.36.36 0 000-.36 4.21 4.21 0 00-3.78-1.88c1.31-1 4.28-1.36 5.48-1.4a.33.33 0 00.3-.2.34.34 0 00-.05-.35 6.76 6.76 0 00-4.57-2.33c1.66-2 6.58-2.6 6.63-2.61a.32.32 0 00.29-.26.32.32 0 00-.17-.42 12 12 0 00-5.17-1.81c2-2.48 8.36-4 8.43-4a.34.34 0 00.26-.29.34.34 0 00-.18-.34c-4.26-2.22-9.46-.06-9.7 0-6 3-6.27 12.95-5.64 19.84-2.36-8.37-7.49-21.48-16.56-22.17-.3 0-7.37 0-11.25 4.57a.33.33 0 000 .38.35.35 0 00.35.17c.09 0 8.54-1.37 12 .73a14.75 14.75 0 00-5.29 4.63.35.35 0 000 .4.34.34 0 00.37.13c.07 0 6.34-1.75 9.22-.05a8.45 8.45 0 00-4.33 4.93.33.33 0 00.09.35.32.32 0 00.35.07c1.49-.55 5.37-1.64 7.37-.9a5.27 5.27 0 00-3.69 4 .34.34 0 00.14.33.36.36 0 00.36 0 6.59 6.59 0 016.36.18 6.76 6.76 0 00-3.07 2.49.32.32 0 000 .3.35.35 0 00.22.21 18.06 18.06 0 017.6 5.23c-4.94-1.91-21.7-7.66-27.58 0-.14.21-3.45 5.2-2 10.09a.34.34 0 00.3.24h.05a.35.35 0 00.28-.2c0-.07 2.92-6.51 5.94-8a12.59 12.59 0 00.84 5.8.33.33 0 00.32.22.34.34 0 00.32-.24c0-.05 1.65-5.13 4.11-6.44a7.16 7.16 0 001.5 5.28.33.33 0 00.34.11.32.32 0 00.25-.25c.29-1.26 1.26-4.36 2.63-5.5a4.48 4.48 0 001.18 4.37.35.35 0 00.35.07.35.35 0 00.22-.29 5.61 5.61 0 012.95-4.31 5.68 5.68 0 00.36 3.24.32.32 0 00.23.19.341.341 0 00.29-.07c.79-.62 1.653-1.14 2.57-1.55a3.58 3.58 0 00-1.14 2.93 3.61 3.61 0 003.9 3.29 3.55 3.55 0 002.1-.93c.85 2.22 4.1 12.86-1.4 34-7.42 2.23-8.6 4.57-9.63 6.64a8.23 8.23 0 01-1.32 2.07 4.93 4.93 0 00-.35 5.12c1.37 2.86 5.88 6 19.54 4.85 9.4-.8 15.19-3 17.21-6.54a5.088 5.088 0 00.36-4.55c-2-4.78-7.12-8.65-12-9.12-.78-7.71-3.17-25.78-8.83-33 .239.025.48.025.72 0a3.62 3.62 0 003.29-3.91 3.59 3.59 0 00-2.55-3.13 16.17 16.17 0 015.73.53.33.33 0 00.29 0 .32.32 0 00.15-.26 6.22 6.22 0 00-1-3.51 6.15 6.15 0 014.86 3.25.34.34 0 00.3.19.34.34 0 00.3-.19 4.89 4.89 0 00-.6-5c1.88.55 4.2 3.4 5 4.6a.35.35 0 00.31.15.33.33 0 00.27-.24 7.872 7.872 0 00-.62-6c3.07.3 6.85 4.91 6.89 5a.35.35 0 00.38.11.32.32 0 00.22-.33 13.8 13.8 0 00-1.5-6.31c3.71.28 9.34 5.78 9.4 5.84a.33.33 0 00.38.06.33.33 0 00.19-.33c-.43-5.57-5.82-9.34-6.07-9.51zm-17.89 55.61a5.51 5.51 0 01-3.83 4.58c-2.84 1-6.85.34-8.75-1.44a2.62 2.62 0 01-.89-2.67l.24-.88c2.46.914 5.079 1.319 7.7 1.19a7.93 7.93 0 005.39-2.42c.09.91.13 1.49.14 1.64zm-.23-2.6c-3.43 4.61-11.26 2.1-12.83 1.53.46-1.7.863-3.333 1.21-4.9a9.54 9.54 0 005.91 1.38 13 13 0 005.3-1.77c.17 1.46.31 2.74.41 3.76zm-.5-4.49c-6 3.6-10.12 1-11 .41.34-1.57.62-3.07.87-4.5a13 13 0 005 .59 10.56 10.56 0 004.39-1.35c.33 1.73.55 3.42.74 4.85zm-10-4.77c.25-1.5.45-2.94.6-4.29a9.63 9.63 0 004.14.55 9.17 9.17 0 003.73-1.15c.27 1.39.5 2.76.71 4.09a11.38 11.38 0 01-9.16.8h-.02zm.67-5c.13-1.28.23-2.5.29-3.65a8.83 8.83 0 003.51.42 7.41 7.41 0 003.11-1c.27 1.19.53 2.4.76 3.59a8.94 8.94 0 01-7.65.65l-.02-.01zm.33-4.36c0-1.07.06-2.08.05-3a8.59 8.59 0 002.24.11 6.15 6.15 0 003.2-1.16c.33 1.16.64 2.35.92 3.55a7.63 7.63 0 01-6.39.51l-.02-.01zm.05-3.73c0-1.19-.08-2.28-.17-3.28.537.122 1.09.159 1.64.11a5.76 5.76 0 002.76-1c.35 1 .69 2 1 3.09a6.56 6.56 0 01-5.21 1.09l-.02-.01zm-.23-4c-.087-.84-.187-1.61-.3-2.31.316.03.634.03.95 0a4.47 4.47 0 002.52-1c.37.79.71 1.63 1.05 2.5a4.85 4.85 0 01-4.2.82l-.02-.01zm-.41-3c-.15-.8-.3-1.49-.45-2.08.206.02.413.02.62 0a3.13 3.13 0 002-.91c.417.645.798 1.312 1.14 2a4 4 0 01-3.29 1l-.02-.01zm-.65-2.8c-.19-.66-.36-1.15-.49-1.49h.43a3.55 3.55 0 001.5-.49c.356.383.69.787 1 1.21a2.53 2.53 0 01-2.42.78l-.02-.01zm1.31-2.69a3 3 0 01-2.27.47 2.93 2.93 0 01-2.21-3.74c.112-.363.296-.7.54-.99a2.87 2.87 0 012-1.06h.43c.37.019.734.11 1.07.27a2.93 2.93 0 011.67 2.4 2.91 2.91 0 01-1.21 2.66l-.02-.01zm3-31.83c1.282-.497 2.63-.81 4-.93a9.839 9.839 0 014.24.49c-2.09.58-7 2.16-8.24 4.58a.32.32 0 00.3.49 9.8 9.8 0 014.56 1.25c-1.78.33-5.43 1.23-6.49 3.29a.33.33 0 000 .33.33.33 0 00.3.16 6.31 6.31 0 014.17 1.6c-1.52.13-4.95.62-5.83 2.29a.34.34 0 000 .36.31.31 0 00.34.13 4 4 0 013.52 1 5.6 5.6 0 00-4.74 2.78.34.34 0 000 .35.34.34 0 00.32.15 5.36 5.36 0 012.74.54 15.16 15.16 0 00-3.77 5.89c-.71-4.8-2.93-20.95 4.66-24.74l-.08-.01zm-12.77 19.5a6.78 6.78 0 013.06-2.07.34.34 0 00.24-.26.35.35 0 00-.13-.33 7.14 7.14 0 00-7-.89c.81-2.5 3.66-3 3.79-3.06a.32.32 0 00.27-.24.36.36 0 00-.11-.35c-1.86-1.56-6.29-.35-8 .2a8 8 0 014.23-4.1.33.33 0 00.22-.26.35.35 0 00-.11-.32c-2.28-1.95-7.24-1.12-9.34-.65a12.55 12.55 0 014.94-3.87.34.34 0 00.22-.26.33.33 0 00-.11-.32c-2.71-2.28-9.5-1.67-12-1.36 3.78-3.66 10-3.64 10.06-3.64 10.92.84 16.09 21.59 17.27 27.12a19 19 0 00-7.46-5.33l-.04-.01zm-.15 9.25a5.75 5.75 0 010-3 .33.33 0 00-.09-.34.33.33 0 00-.34-.08 6 6 0 00-3.86 4.43 4.27 4.27 0 01-.33-3.95.32.32 0 000-.35.34.34 0 00-.35-.1c-1.94.57-3.14 4.12-3.57 5.65a6.68 6.68 0 01-.86-4.74.34.34 0 00-.1-.32.31.31 0 00-.33-.08c-2.38.69-4.07 4.4-4.75 6.17a10.62 10.62 0 01-.41-5.1.33.33 0 00-.09-.33.33.33 0 00-.33-.08c-2.81.84-5.47 5.7-6.48 7.73-.73-4.29 2.09-8.55 2.11-8.58 1.7-2.2 4.43-3.19 7.55-3.46 7.05-.6 16 2.52 19.31 3.77a16.09 16.09 0 00-7.08 2.76zm5.8-1.85l-.17.16h-.3l.47-.16zm-3.63 4a2.93 2.93 0 012.68-3.17h.3v.05c0 .05-.05.11-.08.16a3.784 3.784 0 00-.18.42l-.06.21a3 3 0 00-.09.43v.19c-.02.216-.02.434 0 .65.015.182.045.363.09.54 0 .06 0 .12.05.18l.12.34.09.19c.047.1.1.197.16.29l.12.19c.057.087.12.171.19.25l.15.17c.071.082.148.158.23.23l.17.14c.085.072.175.139.27.2l.17.11c.144.082.294.152.45.21a2.9 2.9 0 01-1.64.68 2.94 2.94 0 01-3.21-2.74l.02.08zm29.15 44.29a4.5 4.5 0 01-.35 4c-1.31 2.28-5.27 5.21-16.67 6.19-14 1.19-17.83-2.29-18.88-4.48a4.31 4.31 0 01.24-4.36 9.005 9.005 0 001.44-2.23c1-2 2.05-4.06 8.81-6.17-.13.51-.27 1-.41 1.54a3.2 3.2 0 001.08 3.34 9.72 9.72 0 007.16 2.06 9.506 9.506 0 002.28-.48 6.179 6.179 0 004.28-5.15v-.07c0-.21-.09-1.25-.25-2.86a15 15 0 0111.25 8.59l.02.08zm-16.86-46.2a2.93 2.93 0 01-2.67 3.17 2.859 2.859 0 01-1-.08c.06-.05.1-.11.16-.17l.08-.09c.09-.11.18-.23.26-.35.07-.11.13-.23.19-.34l.06-.13c0-.09.07-.18.1-.28.03-.1 0-.1.05-.15.029-.092.052-.185.07-.28V56.86a.712.712 0 000-.14c.01-.15.01-.3 0-.45 0-.15 0-.29-.07-.44-.07-.15 0-.09 0-.14 0-.05-.05-.19-.08-.28l-.06-.16a2.738 2.738 0 00-.19-.4c0-.08-.09-.16-.14-.24l-.09-.13a1.71 1.71 0 00-.21-.26l-.06-.08a4.085 4.085 0 00-.3-.29l-.12-.09-.17-.14c.298-.13.615-.212.94-.24a2.93 2.93 0 013.23 2.55l.02.08zm18.54-12a.35.35 0 00-.28.19.35.35 0 000 .34 11.74 11.74 0 011.66 5.5c-1.37-1.5-4.63-4.7-7.37-4.46a.32.32 0 00-.27.19.35.35 0 000 .34 7.47 7.47 0 011 5.3c-1-1.36-3.72-4.59-5.95-4.39a.32.32 0 00-.29.22.31.31 0 00.08.35 4.71 4.71 0 011.24 4.27 6.639 6.639 0 00-5.74-3 .36.36 0 00-.3.2.34.34 0 00.05.35 6.2 6.2 0 011.2 3.16 17.17 17.17 0 00-5.7-.44c-.926.085-1.845.236-2.75.45 4-3.65 18.85-16.43 27.49-11.26.05 0 4.74 3.31 5.67 8.07-1.74-1.7-6.51-5.71-9.74-5.43v.05z" fill="#E5E5E5"/></svg>
