<svg xmlns="http://www.w3.org/2000/svg" width="106" height="81" viewBox="0 0 106 81" fill="none">
  <path d="M51.31 14.1623C43.4144 9.46699 30.3943 20.7764 27.086 23.8585C27.7534 21.9039 28.9095 20.1507 30.4455 18.7642C30.4815 18.736 30.5103 18.6999 30.5296 18.6585C30.5488 18.6172 30.558 18.5719 30.5563 18.5264C30.5564 18.4826 30.5456 18.4395 30.5247 18.401C30.5039 18.3624 30.4737 18.3297 30.437 18.3057C29.7056 17.8134 28.8469 17.5421 27.9643 17.5245C28.4185 16.9673 29.002 16.5285 29.6645 16.246C30.3271 15.9635 31.0487 15.8457 31.7671 15.9028C31.8201 15.9106 31.8743 15.9027 31.9228 15.8801C31.9713 15.8574 32.0121 15.821 32.04 15.7755C32.0669 15.729 32.0811 15.6763 32.0811 15.6227C32.0811 15.569 32.0669 15.5163 32.04 15.4698C31.6914 14.9448 31.2098 14.5206 30.6439 14.2403C30.078 13.9601 29.4477 13.8335 28.8169 13.8736C29.9339 13.0245 32.4663 12.7189 33.4895 12.6849C33.5441 12.6844 33.5973 12.668 33.6427 12.6379C33.6881 12.6077 33.7238 12.5651 33.7453 12.5151C33.7662 12.4664 33.7733 12.413 33.7658 12.3606C33.7583 12.3082 33.7364 12.2588 33.7026 12.2179C32.7152 11.0743 31.3154 10.3637 29.806 10.2396C31.2214 8.54152 35.4165 8.03207 35.4591 8.02358C35.519 8.019 35.5757 7.9949 35.6204 7.95499C35.6651 7.91508 35.6953 7.8616 35.7064 7.80284C35.7204 7.76996 35.7278 7.73462 35.7281 7.69889C35.7284 7.66315 35.7217 7.62772 35.7082 7.59459C35.6948 7.56147 35.6749 7.53131 35.6497 7.50585C35.6245 7.48039 35.5945 7.46013 35.5614 7.44623C34.2307 6.60239 32.7219 6.07642 31.1532 5.90943C32.8585 3.80377 38.2814 2.5132 38.3411 2.5132C38.3989 2.49972 38.4512 2.46886 38.4909 2.42482C38.5305 2.38078 38.5556 2.32568 38.5628 2.26697C38.5695 2.20905 38.5584 2.15046 38.531 2.09894C38.5036 2.04741 38.4612 2.00535 38.4093 1.97829C34.777 0.0933849 30.3432 1.92735 30.1385 1.97829C25.0226 4.52547 24.7924 12.9736 25.3295 18.8236C23.3173 11.717 18.9431 0.58585 11.2096 0C10.9538 0 4.92547 -1.98383e-05 1.61716 3.88017C1.58377 3.9274 1.56585 3.98374 1.56585 4.0415C1.56585 4.09925 1.58377 4.1556 1.61716 4.20282C1.64698 4.25358 1.69123 4.2944 1.74435 4.32009C1.79748 4.34579 1.85707 4.35522 1.91557 4.34717C1.99231 4.34717 9.19729 3.18395 12.1475 4.96697C10.3478 5.8962 8.80028 7.24488 7.63692 8.89811C7.60207 8.94794 7.58339 9.00721 7.58339 9.06793C7.58339 9.12865 7.60207 9.1879 7.63692 9.23773C7.67162 9.28631 7.72058 9.32303 7.77707 9.3428C7.83356 9.36256 7.8948 9.3644 7.9524 9.34811C8.01208 9.34811 13.3582 7.86227 15.8139 9.30567C14.9493 9.723 14.1773 10.3083 13.5432 11.0272C12.9092 11.746 12.4259 12.5839 12.1219 13.4915C12.1043 13.5431 12.1022 13.5987 12.1158 13.6515C12.1294 13.7043 12.1582 13.752 12.1986 13.7887C12.2368 13.827 12.2856 13.8531 12.3388 13.8637C12.3919 13.8743 12.447 13.8689 12.4971 13.8481C13.7675 13.3811 17.0758 12.4557 18.7812 13.084C17.996 13.3115 17.2881 13.7479 16.7337 14.3464C16.1793 14.9448 15.7993 15.6826 15.6348 16.4802C15.6266 16.5334 15.6333 16.5877 15.6544 16.6372C15.6755 16.6867 15.7101 16.7294 15.7542 16.7604C15.8009 16.7872 15.8538 16.8013 15.9077 16.8013C15.9616 16.8013 16.0145 16.7872 16.0612 16.7604C16.9046 16.328 17.8441 16.1152 18.7924 16.1419C19.7406 16.1687 20.6666 16.434 21.4841 16.9132C20.4195 17.3425 19.508 18.0787 18.8664 19.0274C18.8455 19.0666 18.8346 19.1103 18.8346 19.1547C18.8346 19.1991 18.8455 19.2429 18.8664 19.2821C18.8822 19.324 18.9073 19.3617 18.9397 19.3926C18.9722 19.4235 19.0113 19.4466 19.054 19.4604C21.5637 20.357 23.7966 21.8871 25.5342 23.901C21.3221 22.2793 7.03151 17.3972 2.01789 23.901C1.89851 24.0793 -0.923781 28.3161 0.312572 32.468C0.329605 32.5236 0.363148 32.5729 0.408798 32.6093C0.454447 32.6456 0.510112 32.6674 0.568411 32.6717H0.611033C0.662145 32.6663 0.710968 32.6478 0.752796 32.6181C0.794623 32.5883 0.828011 32.5483 0.84975 32.5019C0.84975 32.4425 3.33954 26.9746 5.91456 25.7095C5.76097 27.3842 6.00635 29.0714 6.63079 30.634C6.6506 30.6899 6.68767 30.738 6.73669 30.7716C6.78572 30.8051 6.84417 30.8224 6.90365 30.8208C6.96492 30.8199 7.02431 30.7997 7.07333 30.7631C7.12235 30.7265 7.15846 30.6753 7.17648 30.617C7.17648 30.5746 8.58337 26.2614 10.6809 25.1491C10.5875 25.9434 10.6524 26.7482 10.8719 27.5175C11.0913 28.2867 11.4611 29.0054 11.9599 29.6321C11.9941 29.6738 12.0396 29.7047 12.091 29.7213C12.1424 29.7378 12.1976 29.7393 12.2498 29.7255C12.3023 29.7149 12.3506 29.6891 12.3885 29.6513C12.4264 29.6136 12.4523 29.5656 12.463 29.5132C12.7102 28.4434 13.5373 25.8113 14.7055 24.8434C14.5272 25.4951 14.5265 26.1824 14.7033 26.8345C14.8801 27.4865 15.2281 28.08 15.7116 28.5538C15.7514 28.5894 15.8001 28.6138 15.8526 28.6242C15.9051 28.6347 15.9595 28.6309 16.01 28.6132C16.061 28.5933 16.1054 28.5597 16.1385 28.5163C16.1716 28.4729 16.192 28.4212 16.1976 28.367C16.2874 27.5997 16.5633 26.8656 17.0015 26.228C17.4397 25.5905 18.0271 25.0687 18.7129 24.7076C18.5431 25.6347 18.6498 26.5911 19.0199 27.4585C19.037 27.4993 19.0637 27.5352 19.0979 27.5633C19.1321 27.5914 19.1726 27.6108 19.216 27.6198C19.259 27.6293 19.3037 27.6289 19.3465 27.6186C19.3894 27.6083 19.4293 27.5884 19.4633 27.5604C20.137 27.0342 20.8729 26.5923 21.6546 26.2444C21.3132 26.5581 21.0481 26.9452 20.8797 27.3763C20.7112 27.8074 20.6438 28.2711 20.6826 28.7321C20.752 29.5415 21.1412 30.2903 21.7647 30.814C22.3883 31.3378 23.1951 31.5937 24.0079 31.5255C24.6762 31.4671 25.306 31.1894 25.7985 30.7359C26.5233 32.6208 29.2944 41.6548 24.6048 59.6038C18.2781 61.4972 17.2719 63.484 16.3937 65.2416C16.1089 65.8802 15.7295 66.4726 15.2682 66.9991C14.8225 67.6266 14.5588 68.3642 14.5062 69.131C14.4535 69.8978 14.6139 70.6643 14.9698 71.3463C16.1379 73.7746 19.9834 76.4406 31.6307 75.4642C39.6457 74.785 44.5825 72.9171 46.3049 69.9114C46.6545 69.3357 46.8643 68.6867 46.9176 68.016C46.9709 67.3453 46.8662 66.6715 46.6119 66.0482C44.9065 61.9897 40.5409 58.7038 36.38 58.3048C35.7149 51.7585 33.6771 36.4161 28.851 30.2859C29.0551 30.3071 29.2609 30.3071 29.4649 30.2859C30.2784 30.2146 31.0304 29.8252 31.5562 29.203C32.082 28.5808 32.3388 27.7764 32.2702 26.9661C32.2172 26.3571 31.9815 25.778 31.5937 25.3041C31.206 24.8302 30.6841 24.4833 30.0959 24.3085C31.7384 24.1664 33.3932 24.3189 34.9816 24.7585C35.0201 24.7773 35.0624 24.787 35.1053 24.787C35.1481 24.787 35.1904 24.7773 35.2289 24.7585C35.2667 24.7349 35.2982 24.7025 35.3204 24.664C35.3427 24.6255 35.3552 24.5822 35.3568 24.5378C35.3782 23.4818 35.0812 22.4437 34.5041 21.5576C35.3706 21.639 36.203 21.9339 36.9264 22.4156C37.6499 22.8973 38.2415 23.5508 38.648 24.317C38.6716 24.3648 38.708 24.4051 38.7531 24.4335C38.7983 24.462 38.8504 24.4775 38.9039 24.4783C38.9573 24.4775 39.0094 24.462 39.0546 24.4335C39.0997 24.4051 39.1361 24.3648 39.1596 24.317C39.4691 23.6297 39.585 22.8716 39.4948 22.1237C39.4047 21.3759 39.112 20.6666 38.648 20.0717C40.251 20.5387 42.2292 22.9585 42.9113 23.9774C42.9406 24.0195 42.9804 24.0533 43.0267 24.0757C43.073 24.098 43.1243 24.108 43.1757 24.1047C43.2298 24.0967 43.2804 24.0732 43.3213 24.037C43.3622 24.0008 43.3916 23.9535 43.4059 23.901C43.6585 23.0589 43.7418 22.1755 43.6511 21.3014C43.5604 20.4272 43.2974 19.5794 42.8772 18.8066C45.4949 19.0613 48.7179 22.9755 48.752 23.0519C48.7903 23.0982 48.8417 23.1319 48.8995 23.1486C48.9573 23.1652 49.0189 23.1641 49.076 23.1453C49.1344 23.1264 49.1847 23.0885 49.2187 23.0376C49.2527 22.9868 49.2686 22.926 49.2636 22.8651C49.2708 21.0034 48.8324 19.1669 47.9846 17.5076C51.148 17.7453 55.9485 22.4151 55.9996 22.4661C56.0415 22.5072 56.0953 22.5343 56.1534 22.5434C56.2115 22.5525 56.2711 22.5433 56.3236 22.517C56.3764 22.4927 56.4203 22.4527 56.4493 22.4025C56.4783 22.3524 56.491 22.2945 56.4856 22.2368C56.119 17.5076 51.5232 14.3066 51.31 14.1623ZM36.056 61.3784C35.9444 62.2705 35.577 63.1117 34.9979 63.8013C34.4187 64.491 33.6523 64.9998 32.7903 65.2671C30.3687 66.1161 26.9496 65.5557 25.3295 64.0444C24.9996 63.7776 24.7529 63.4226 24.6185 63.021C24.4841 62.6194 24.4675 62.188 24.5707 61.7774L24.7753 61.0302C26.8725 61.8064 29.1061 62.1501 31.3408 62.0406C33.0813 61.9708 34.7276 61.2348 35.9366 59.9859C36.0133 60.7586 36.0474 61.251 36.056 61.3784ZM35.8599 59.1708C32.9353 63.085 26.2589 60.9539 24.9203 60.4699C25.3125 59.0265 25.6564 57.6397 25.952 56.3095C27.4589 57.2359 29.2282 57.6473 30.9912 57.4812C32.5891 57.3124 34.1311 56.7996 35.5103 55.9784C35.6552 57.218 35.7746 58.3048 35.8599 59.1708ZM35.4335 55.3585C30.3176 58.4152 26.8047 56.2076 26.0543 55.7067C26.3442 54.3736 26.583 53.1001 26.7961 51.8859C28.1709 52.3279 29.6191 52.4981 31.0594 52.3868C32.3765 52.2829 33.6544 51.8915 34.8026 51.2406C35.0839 52.7095 35.2715 54.1444 35.4335 55.3585ZM26.907 51.3086C27.1201 50.035 27.2907 48.8123 27.4186 47.6661C28.5468 48.077 29.7517 48.2364 30.9486 48.1331C32.0668 48.0387 33.1515 47.7056 34.129 47.1566C34.3592 48.3368 34.5553 49.5 34.7344 50.6293C33.5516 51.2773 32.246 51.6724 30.9011 51.7894C29.5563 51.9063 28.2017 51.7426 26.924 51.3086H26.907ZM27.4782 47.0633C27.5891 45.9765 27.6744 44.9406 27.7255 43.9642C28.6888 44.2827 29.7068 44.404 30.7183 44.3208C31.6547 44.2377 32.5606 43.9477 33.3701 43.4717C33.6003 44.4821 33.822 45.5095 34.0181 46.5199C33.0403 47.0885 31.9475 47.4331 30.8192 47.5286C29.6909 47.624 28.5555 47.468 27.4953 47.0718L27.4782 47.0633ZM27.7596 43.3614C27.7596 42.4529 27.8108 41.5953 27.8022 40.8142C28.4321 40.9283 29.0742 40.9597 29.7122 40.9076C30.6967 40.8414 31.6424 40.5001 32.4407 39.9227C32.7221 40.9076 32.9864 41.918 33.2252 42.9368C32.4029 43.3982 31.4896 43.676 30.5488 43.7508C29.6079 43.8255 28.662 43.6956 27.7767 43.3699L27.7596 43.3614ZM27.8022 40.1944C27.8022 39.184 27.734 38.2585 27.6573 37.4095C28.1157 37.5128 28.5875 37.5443 29.0557 37.5029C29.9006 37.427 30.7114 37.1345 31.409 36.6538C31.7074 37.5029 31.9973 38.3519 32.2617 39.2774C31.6272 39.7322 30.9041 40.0495 30.139 40.209C29.3738 40.3684 28.5836 40.3663 27.8193 40.2029L27.8022 40.1944ZM27.6062 36.7982C27.5323 36.0849 27.447 35.4312 27.3503 34.8368C27.6197 34.8631 27.891 34.8631 28.1604 34.8368C28.9476 34.7821 29.6984 34.4855 30.3091 33.9878C30.6245 34.6585 30.9145 35.3717 31.2044 36.1104C30.7007 36.4915 30.1159 36.7524 29.495 36.8731C28.8742 36.9938 28.2338 36.9711 27.6232 36.8066L27.6062 36.7982ZM27.2566 34.251C27.1287 33.5717 27.0008 32.9859 26.8729 32.4849C27.0487 32.502 27.2257 32.502 27.4015 32.4849C28.045 32.4411 28.6508 32.1666 29.1068 31.7123C29.4627 32.2596 29.7872 32.8266 30.0789 33.4104C29.7041 33.7507 29.2578 34.0035 28.7725 34.1504C28.2872 34.2973 27.7752 34.3345 27.2736 34.2595L27.2566 34.251ZM26.7023 31.8736C26.5403 31.3132 26.3954 30.8972 26.2845 30.6085H26.6512C27.1034 30.5671 27.5406 30.425 27.9301 30.1925C28.2342 30.5181 28.5189 30.8611 28.7828 31.2198C28.5282 31.5018 28.2031 31.7115 27.8407 31.8279C27.4783 31.9442 27.0914 31.9629 26.7194 31.8821L26.7023 31.8736ZM27.8193 29.5896C27.5394 29.7807 27.2241 29.9144 26.8918 29.9829C26.5595 30.0514 26.2168 30.0534 25.8838 29.9887C25.356 29.8808 24.8774 29.6059 24.5194 29.205C24.1614 28.8041 23.9431 28.2987 23.8971 27.7642C23.8678 27.4434 23.9024 27.12 23.999 26.8125C24.0955 26.5051 24.2522 26.2197 24.4598 25.9727C24.668 25.7154 24.9265 25.5029 25.2196 25.3482C25.5128 25.1935 25.8345 25.0997 26.1652 25.0727H26.5318C26.8481 25.0885 27.1582 25.1664 27.4441 25.3019C27.8399 25.4877 28.1797 25.7737 28.4296 26.1313C28.6795 26.4889 28.8307 26.9056 28.8681 27.3396C28.9114 27.7733 28.8388 28.2106 28.6576 28.6072C28.4764 29.0039 28.1931 29.3457 27.8364 29.5981L27.8193 29.5896ZM30.3773 2.56415C31.4711 2.14213 32.6193 1.8763 33.7879 1.77453C35.0091 1.64814 36.2432 1.79016 37.4032 2.19056C35.6211 2.68301 31.4346 4.02454 30.3773 6.07926C30.35 6.12251 30.3356 6.17252 30.3356 6.22358C30.3356 6.27464 30.35 6.32468 30.3773 6.36793C30.4039 6.41065 30.4419 6.44515 30.4871 6.46764C30.5322 6.49012 30.5828 6.4997 30.6331 6.49529C31.9967 6.52776 33.3316 6.89214 34.5212 7.55661C33.0035 7.8368 29.8913 8.60096 28.9875 10.35C28.9628 10.3926 28.9497 10.4409 28.9497 10.4901C28.9497 10.5393 28.9628 10.5876 28.9875 10.6302C29.0137 10.6738 29.0514 10.7095 29.0964 10.7334C29.1415 10.7574 29.1922 10.7687 29.2432 10.766C30.5551 10.7721 31.8196 11.2552 32.7988 12.1245C31.5028 12.2349 28.5782 12.6509 27.8278 14.0689C27.7991 14.1147 27.7839 14.1677 27.7839 14.2217C27.7839 14.2758 27.7991 14.3287 27.8278 14.3745C27.8583 14.421 27.9027 14.4567 27.9548 14.4766C28.0069 14.4964 28.0639 14.4993 28.1177 14.4849C28.6498 14.3785 29.1996 14.4 29.7216 14.5477C30.2436 14.6953 30.7227 14.9649 31.1191 15.334C30.2985 15.3484 29.4955 15.5731 28.7876 15.9866C28.0796 16.4 27.4906 16.9882 27.0775 17.6944C27.0504 17.7392 27.0361 17.7906 27.0361 17.8429C27.0361 17.8953 27.0504 17.9467 27.0775 17.9915C27.1069 18.0356 27.1479 18.0708 27.196 18.0933C27.2441 18.1157 27.2975 18.1246 27.3503 18.1189C28.1561 18.0635 28.9622 18.2216 29.6866 18.5774C28.2384 19.9721 27.1376 21.6847 26.4721 23.5783C25.8667 19.5028 23.9738 5.79057 30.4455 2.57264L30.3773 2.56415ZM19.4888 19.1208C20.1784 18.3057 21.0816 17.6973 22.098 17.3632C22.1491 17.3487 22.1953 17.3204 22.2314 17.2814C22.2675 17.2425 22.2922 17.1944 22.3026 17.1425C22.3109 17.0902 22.305 17.0366 22.2855 16.9873C22.266 16.9381 22.2336 16.8949 22.1918 16.8623C21.3479 16.2323 20.3541 15.8314 19.3078 15.6989C18.2615 15.5664 17.1986 15.707 16.2232 16.1066C16.9138 13.984 19.3439 13.5595 19.4547 13.5085C19.5093 13.5016 19.5604 13.4784 19.6015 13.442C19.6426 13.4057 19.6717 13.3578 19.685 13.3047C19.6975 13.2514 19.6954 13.1956 19.6789 13.1433C19.6624 13.0911 19.6321 13.0442 19.5912 13.0075C18.0052 11.683 14.2279 12.7104 12.7699 13.1774C13.4837 11.6024 14.7735 10.3575 16.3767 9.69623C16.4251 9.67989 16.4682 9.6507 16.5013 9.61181C16.5343 9.57291 16.5561 9.52579 16.5642 9.47549C16.5729 9.426 16.5689 9.3751 16.5525 9.32759C16.5361 9.28007 16.5079 9.23748 16.4704 9.20378C14.5264 7.54812 10.2972 8.25284 8.50662 8.6519C9.60857 7.2191 11.0579 6.08845 12.7187 5.36602C12.7667 5.34891 12.8094 5.31948 12.8423 5.28073C12.8752 5.24197 12.8973 5.19526 12.9063 5.14529C12.9168 5.09579 12.9136 5.04439 12.8971 4.99656C12.8806 4.94872 12.8514 4.90622 12.8126 4.87358C10.5019 2.93773 4.71231 3.45564 2.58067 3.71885C5.80371 0.6113 11.1072 0.628294 11.1584 0.628294C20.4694 1.3415 24.8776 18.9594 25.8838 23.6547C24.1663 21.6518 21.9824 20.0981 19.523 19.1293L19.4888 19.1208ZM19.361 26.9746C19.1346 26.1405 19.1346 25.2615 19.361 24.4274C19.3768 24.377 19.378 24.3231 19.3644 24.272C19.3508 24.2209 19.323 24.1747 19.2842 24.1387C19.2471 24.1015 19.2003 24.0754 19.149 24.0634C19.0978 24.0514 19.0442 24.0539 18.9943 24.0708C18.1679 24.3641 17.431 24.8641 16.8547 25.5228C16.2783 26.1815 15.8817 26.9767 15.703 27.8321C15.3874 27.3374 15.1969 26.7738 15.1479 26.1897C15.0989 25.6056 15.1928 25.0184 15.4217 24.4783C15.4507 24.4341 15.4661 24.3825 15.4661 24.3297C15.4661 24.277 15.4507 24.2253 15.4217 24.1811C15.3851 24.1403 15.3377 24.1106 15.2848 24.0956C15.232 24.0806 15.176 24.0808 15.1232 24.0962C13.4691 24.5802 12.4459 27.5944 12.0793 28.8934C11.3406 27.6894 11.0792 26.2545 11.346 24.8689C11.3566 24.8201 11.3543 24.7695 11.3393 24.7219C11.3244 24.6742 11.2973 24.6313 11.2607 24.5972C11.2255 24.5599 11.1802 24.5335 11.1302 24.5215C11.0802 24.5094 11.0278 24.5121 10.9793 24.5293C8.95002 25.1151 7.50903 28.2651 6.92922 29.768C6.46005 28.3745 6.34003 26.888 6.57963 25.4378C6.59377 25.3885 6.5941 25.3364 6.58057 25.287C6.56704 25.2376 6.54017 25.1928 6.5029 25.1576C6.46658 25.1219 6.42121 25.0968 6.37165 25.0848C6.32208 25.0728 6.27018 25.0745 6.2215 25.0896C3.82554 25.8029 1.55746 29.9293 0.696278 31.6529C0.0738384 28.0104 2.47832 24.3934 2.49537 24.3679C3.94489 22.5 6.27266 21.6595 8.93295 21.4302C14.9442 20.9208 22.5755 23.5698 25.3978 24.6311C23.2264 24.9211 21.1565 25.7247 19.361 26.9746ZM24.3064 25.4038L24.1614 25.5396H23.9056L24.3064 25.4038ZM21.2112 28.8C21.1832 28.4738 21.2201 28.1452 21.3199 27.8332C21.4196 27.5212 21.5803 27.2319 21.7926 26.9818C22.0049 26.7318 22.2647 26.5259 22.557 26.376C22.8494 26.2262 23.1686 26.1353 23.4963 26.1085H23.7521V26.151C23.7521 26.1934 23.7095 26.2444 23.6839 26.2868C23.6256 26.4025 23.5744 26.5216 23.5305 26.6434L23.4793 26.8217C23.4448 26.9414 23.4191 27.0634 23.4025 27.1868V27.3481C23.3855 27.5317 23.3855 27.7165 23.4025 27.9C23.4156 28.0547 23.4413 28.208 23.4793 28.3585C23.4793 28.4095 23.4793 28.4604 23.5219 28.5113L23.6242 28.8L23.701 28.9613C23.7413 29.0461 23.7869 29.1284 23.8374 29.2076L23.9397 29.3689C23.9889 29.4432 24.043 29.5141 24.1017 29.5812L24.2296 29.7255C24.2907 29.7948 24.3562 29.86 24.4257 29.9208L24.5707 30.0396C24.6438 30.101 24.7207 30.1577 24.8009 30.2095L24.9458 30.3029C25.0687 30.3724 25.1971 30.432 25.3295 30.4812C24.9355 30.8145 24.4465 31.0164 23.9312 31.0585C23.5971 31.0899 23.26 31.0541 22.94 30.9534C22.6201 30.8526 22.3237 30.6889 22.0684 30.4719C21.8132 30.255 21.6042 29.9892 21.4541 29.6903C21.3039 29.3914 21.2155 29.0656 21.1942 28.7321L21.2112 28.8ZM46.0662 66.4048C46.2839 66.9553 46.3702 67.5485 46.3184 68.1379C46.2667 68.7272 46.0781 69.2966 45.7677 69.801C44.6508 71.7369 41.2742 74.2246 31.5539 75.0567C19.6167 76.0671 16.3511 73.1124 15.4558 71.2529C15.1557 70.6736 15.0165 70.0251 15.0525 69.3742C15.0884 68.7234 15.2983 68.094 15.6604 67.551C16.1614 66.9838 16.5752 66.3457 16.8883 65.6576C17.7409 63.9595 18.6362 62.2105 24.4002 60.419C24.2893 60.852 24.1699 61.268 24.0506 61.7265C23.9099 62.2371 23.9221 62.7775 24.0857 63.2814C24.2493 63.7852 24.5571 64.2304 24.9714 64.5623C25.8237 65.2389 26.8016 65.7417 27.8492 66.0418C28.8967 66.3419 29.9933 66.4335 31.0764 66.3114C31.7388 66.2552 32.3917 66.1184 33.0205 65.9039C33.9864 65.6012 34.8443 65.0279 35.4915 64.2524C36.1387 63.4769 36.5478 62.5322 36.6699 61.5312V61.4718C36.6699 61.2935 36.5931 60.4104 36.4567 59.0435C38.5349 59.3791 40.4978 60.2203 42.1712 61.4926C43.8445 62.7649 45.1766 64.4289 46.0491 66.3369L46.0662 66.4048ZM31.6904 27.1783C31.7184 27.5039 31.6818 27.8318 31.5826 28.1433C31.4834 28.4548 31.3235 28.7438 31.112 28.9937C30.9006 29.2437 30.6418 29.4497 30.3504 29.6C30.059 29.7504 29.7408 29.842 29.4138 29.8698C29.1278 29.8974 28.8391 29.8744 28.5611 29.8019C28.6123 29.7595 28.6464 29.7085 28.6976 29.6576L28.7658 29.5812C28.8425 29.4878 28.9192 29.3859 28.9875 29.284C29.0471 29.1906 29.0983 29.0887 29.1495 28.9953L29.2006 28.8849C29.2006 28.8085 29.2603 28.7321 29.2859 28.6472C29.3115 28.5623 29.2859 28.5623 29.3285 28.5198C29.3534 28.4419 29.3733 28.3625 29.3882 28.2821V28.1548V27.9C29.3921 27.8605 29.3921 27.8207 29.3882 27.7812C29.3967 27.654 29.3967 27.5263 29.3882 27.3991C29.3882 27.2717 29.3882 27.1529 29.3285 27.0255C29.2688 26.8981 29.3285 26.9491 29.3285 26.9066C29.3285 26.8642 29.2859 26.7453 29.2603 26.6689L29.2091 26.5331C29.1815 26.4608 29.1502 26.3899 29.1153 26.3208C29.096 26.2766 29.0732 26.234 29.0471 26.1934C29.0471 26.1255 28.9704 26.0576 28.9278 25.9896L28.851 25.8793C28.7987 25.8 28.7388 25.7261 28.672 25.6585L28.6208 25.5906C28.5398 25.5043 28.4544 25.4221 28.365 25.3444L28.2627 25.2679L28.1177 25.1491C28.372 25.0383 28.6427 24.9695 28.9192 24.9453C29.5719 24.8733 30.2268 25.0602 30.7422 25.4654C31.2576 25.8705 31.5921 26.4615 31.6733 27.1104L31.6904 27.1783ZM47.4986 16.9896C47.4484 16.9942 47.4001 17.0114 47.3584 17.0397C47.3166 17.0679 47.2827 17.1062 47.2599 17.151C47.2352 17.1951 47.2223 17.2448 47.2223 17.2953C47.2223 17.3458 47.2352 17.3955 47.2599 17.4396C48.1128 18.8555 48.5992 20.4601 48.6753 22.1094C47.5072 20.8359 44.7275 18.1189 42.3912 18.3227C42.3417 18.3262 42.2942 18.343 42.2536 18.3715C42.213 18.3999 42.181 18.4388 42.161 18.484C42.1363 18.5281 42.1234 18.5778 42.1234 18.6283C42.1234 18.6788 42.1363 18.7285 42.161 18.7727C42.9981 20.1146 43.3021 21.7193 43.0136 23.2727C42.161 22.118 39.8418 19.3755 37.9403 19.5453C37.885 19.5477 37.8316 19.5669 37.7874 19.6003C37.7432 19.6337 37.7103 19.6796 37.6931 19.7321C37.6721 19.7826 37.6673 19.8383 37.6796 19.8915C37.6918 19.9447 37.7203 19.9929 37.7613 20.0293C38.2237 20.5002 38.5622 21.0775 38.7466 21.7099C38.9311 22.3424 38.9558 23.0105 38.8186 23.6547C38.289 22.8494 37.5612 22.1925 36.7045 21.7466C35.8478 21.3008 34.8906 21.0808 33.9243 21.1076C33.8705 21.111 33.8185 21.1285 33.7736 21.1583C33.7286 21.1881 33.6924 21.2292 33.6685 21.2774C33.6476 21.326 33.6405 21.3795 33.648 21.4319C33.6555 21.4843 33.6774 21.5337 33.7112 21.5746C34.2952 22.3573 34.6494 23.2861 34.7344 24.2576C33.1467 23.8635 31.5038 23.7372 29.8742 23.884C29.0846 23.9565 28.3011 24.0842 27.5294 24.2661C30.94 21.167 43.602 10.316 50.9689 14.7057C51.0116 14.7057 55.0105 17.516 55.8035 21.5576C54.3199 20.1142 50.2527 16.7094 47.4986 16.9472V16.9896Z" fill="#999999"/>
  <path d="M100.336 19.4909C92.4408 14.7956 79.4207 26.105 76.1124 29.1871C76.7797 27.2325 77.9359 25.4793 79.4719 24.0928C79.5079 24.0647 79.5367 24.0285 79.5559 23.9872C79.5752 23.9458 79.5844 23.9006 79.5827 23.855C79.5828 23.8113 79.572 23.7681 79.5511 23.7296C79.5303 23.6911 79.5001 23.6583 79.4633 23.6343C78.7319 23.142 77.8732 22.8707 76.9906 22.8532C77.4448 22.2959 78.0284 21.8571 78.6909 21.5746C79.3534 21.2921 80.075 21.1743 80.7935 21.2314C80.8465 21.2392 80.9006 21.2313 80.9491 21.2087C80.9977 21.186 81.0384 21.1497 81.0663 21.1041C81.0933 21.0576 81.1075 21.0049 81.1075 20.9513C81.1075 20.8976 81.0933 20.8449 81.0663 20.7984C80.7178 20.2734 80.2362 19.8492 79.6703 19.569C79.1043 19.2887 78.4741 19.1622 77.8433 19.2022C78.9603 18.3532 81.4927 18.0475 82.5158 18.0135C82.5704 18.013 82.6237 17.9966 82.6691 17.9665C82.7145 17.9363 82.7501 17.8937 82.7716 17.8437C82.7926 17.7951 82.7997 17.7416 82.7922 17.6892C82.7846 17.6368 82.7628 17.5874 82.729 17.5465C81.7416 16.4029 80.3418 15.6923 78.8324 15.5682C80.2478 13.8701 84.4428 13.3607 84.4855 13.3522C84.5453 13.3476 84.602 13.3235 84.6467 13.2836C84.6914 13.2437 84.7217 13.1902 84.7328 13.1315C84.7468 13.0986 84.7542 13.0632 84.7545 13.0275C84.7548 12.9918 84.748 12.9563 84.7346 12.9232C84.7211 12.8901 84.7012 12.8599 84.676 12.8345C84.6508 12.809 84.6209 12.7887 84.5878 12.7748C83.257 11.931 81.7483 11.405 80.1796 11.238C81.8849 9.13238 87.3078 7.84182 87.3675 7.84182C87.4253 7.82833 87.4776 7.79747 87.5172 7.75343C87.5569 7.7094 87.582 7.6543 87.5891 7.59558C87.5958 7.53766 87.5848 7.47908 87.5574 7.42755C87.53 7.37602 87.4875 7.33396 87.4357 7.30691C83.8033 5.422 79.3695 7.25596 79.1649 7.30691C74.049 9.85408 73.8187 18.3022 74.3559 24.1522C72.3436 17.0456 67.9695 5.91446 60.2359 5.32861C59.9801 5.32861 53.9518 5.32859 50.6435 9.20879C50.6101 9.25601 50.5922 9.31236 50.5922 9.37011C50.5922 9.42787 50.6101 9.48421 50.6435 9.53143C50.6733 9.5822 50.7176 9.62301 50.7707 9.64871C50.8238 9.6744 50.8834 9.68383 50.9419 9.67578C51.0187 9.67578 58.2237 8.51256 61.1738 10.2956C59.3741 11.2248 57.8267 12.5735 56.6633 14.2267C56.6284 14.2766 56.6098 14.3358 56.6098 14.3965C56.6098 14.4573 56.6284 14.5165 56.6633 14.5663C56.698 14.6149 56.7469 14.6516 56.8034 14.6714C56.8599 14.6912 56.9212 14.693 56.9788 14.6767C57.0384 14.6767 62.3846 13.1909 64.8403 14.6343C63.9757 15.0516 63.2036 15.6369 62.5696 16.3558C61.9355 17.0747 61.4523 17.9125 61.1483 18.8201C61.1306 18.8717 61.1285 18.9273 61.1422 18.9801C61.1558 19.0329 61.1846 19.0806 61.225 19.1173C61.2632 19.1556 61.312 19.1817 61.3651 19.1923C61.4183 19.2029 61.4734 19.1975 61.5234 19.1767C62.7939 18.7098 66.1022 17.7843 67.8075 18.4126C67.0224 18.6401 66.3145 19.0765 65.7601 19.675C65.2056 20.2735 64.8257 21.0112 64.6612 21.8088C64.6529 21.862 64.6597 21.9163 64.6808 21.9658C64.7019 22.0154 64.7364 22.058 64.7806 22.089C64.8272 22.1158 64.8802 22.1299 64.9341 22.1299C64.988 22.1299 65.0409 22.1158 65.0875 22.089C65.9309 21.6566 66.8705 21.4438 67.8187 21.4706C68.767 21.4973 69.693 21.7626 70.5104 22.2418C69.4458 22.6711 68.5343 23.4073 67.8928 24.356C67.8719 24.3952 67.8609 24.4389 67.8609 24.4834C67.8609 24.5278 67.8719 24.5715 67.8928 24.6107C67.9086 24.6526 67.9336 24.6903 67.9661 24.7212C67.9986 24.7521 68.0377 24.7752 68.0804 24.789C70.5901 25.6856 72.823 27.2157 74.5605 29.2296C70.3484 27.6079 56.0579 22.7258 51.0443 29.2296C50.9249 29.4079 48.1026 33.6447 49.3389 37.7966C49.356 37.8523 49.3895 37.9015 49.4352 37.9379C49.4808 37.9743 49.5365 37.996 49.5948 38.0003H49.6374C49.6885 37.9949 49.7373 37.9764 49.7792 37.9467C49.821 37.9169 49.8544 37.8769 49.8761 37.8305C49.8761 37.7711 52.3659 32.3032 54.9409 31.0381C54.7873 32.7128 55.0327 34.4 55.6572 35.9626C55.677 36.0185 55.714 36.0666 55.7631 36.1002C55.8121 36.1338 55.8705 36.151 55.93 36.1494C55.9913 36.1485 56.0507 36.1283 56.0997 36.0917C56.1487 36.0551 56.1848 36.004 56.2028 35.9456C56.2028 35.9032 57.6097 31.59 59.7073 30.4777C59.6139 31.272 59.6787 32.0768 59.8982 32.8461C60.1177 33.6154 60.4874 34.334 60.9863 34.9607C61.0205 35.0024 61.066 35.0333 61.1174 35.0499C61.1688 35.0664 61.2239 35.0679 61.2762 35.0541C61.3287 35.0435 61.3769 35.0177 61.4149 34.9799C61.4528 34.9422 61.4787 34.8942 61.4893 34.8418C61.7366 33.772 62.5637 31.14 63.7318 30.172C63.5536 30.8237 63.5529 31.511 63.7297 32.1631C63.9065 32.8152 64.2545 33.4086 64.7379 33.8824C64.7778 33.9181 64.8265 33.9424 64.879 33.9529C64.9315 33.9633 64.9859 33.9595 65.0364 33.9418C65.0873 33.9219 65.1318 33.8884 65.1648 33.8449C65.1979 33.8015 65.2184 33.7499 65.224 33.6956C65.3138 32.9283 65.5897 32.1942 66.0279 31.5566C66.4661 30.9191 67.0534 30.3973 67.7393 30.0362C67.5695 30.9633 67.6762 31.9197 68.0463 32.7871C68.0633 32.8279 68.0901 32.8638 68.1243 32.8919C68.1584 32.9201 68.199 32.9395 68.2424 32.9485C68.2854 32.9579 68.3301 32.9575 68.3729 32.9472C68.4158 32.9369 68.4557 32.917 68.4896 32.889C69.1633 32.3628 69.8993 31.9209 70.681 31.573C70.3395 31.8867 70.0745 32.2738 69.906 32.7049C69.7376 33.136 69.6702 33.5997 69.7089 34.0607C69.7784 34.8701 70.1676 35.6189 70.7911 36.1427C71.4146 36.6664 72.2214 36.9223 73.0343 36.8541C73.7025 36.7957 74.3324 36.518 74.8249 36.0645C75.5496 37.9494 78.3208 46.9834 73.6312 64.9324C67.3044 66.8258 66.2983 68.8127 65.4201 70.5702C65.1352 71.2088 64.7559 71.8012 64.2946 72.3278C63.8488 72.9552 63.5852 73.6928 63.5325 74.4596C63.4799 75.2264 63.6403 75.9929 63.9961 76.6749C65.1643 79.1032 69.0098 81.7693 80.6571 80.7928C88.672 80.1136 93.6089 78.2457 95.3313 75.24C95.6809 74.6643 95.8907 74.0153 95.944 73.3446C95.9973 72.6739 95.8926 72.0001 95.6382 71.3768C93.9329 67.3183 89.5673 64.0325 85.4063 63.6334C84.7413 57.0872 82.7034 41.7447 77.8774 35.6145C78.0815 35.6357 78.2872 35.6357 78.4913 35.6145C79.3048 35.5432 80.0568 35.1538 80.5826 34.5316C81.1084 33.9094 81.3651 33.105 81.2966 32.2947C81.2435 31.6857 81.0078 31.1066 80.6201 30.6327C80.2324 30.1588 79.7105 29.8119 79.1223 29.6371C80.7648 29.495 82.4195 29.6475 84.008 30.0871C84.0465 30.1059 84.0888 30.1156 84.1316 30.1156C84.1745 30.1156 84.2168 30.1059 84.2552 30.0871C84.2931 30.0636 84.3245 30.0311 84.3468 29.9926C84.3691 29.9541 84.3816 29.9108 84.3832 29.8664C84.4046 28.8104 84.1076 27.7723 83.5305 26.8862C84.3969 26.9676 85.2294 27.2625 85.9528 27.7442C86.6762 28.2259 87.2679 28.8794 87.6744 29.6456C87.698 29.6934 87.7343 29.7337 87.7795 29.7622C87.8246 29.7906 87.8768 29.8061 87.9302 29.8069C87.9837 29.8061 88.0358 29.7906 88.0809 29.7622C88.1261 29.7337 88.1624 29.6934 88.186 29.6456C88.4955 28.9583 88.6113 28.2002 88.5212 27.4524C88.4311 26.7045 88.1384 25.9952 87.6744 25.4003C89.2774 25.8673 91.2556 28.2871 91.9377 29.306C91.967 29.3481 92.0067 29.382 92.053 29.4043C92.0994 29.4266 92.1507 29.4366 92.202 29.4333C92.2561 29.4253 92.3067 29.4018 92.3476 29.3656C92.3885 29.3294 92.4179 29.2822 92.4323 29.2296C92.6849 28.3875 92.7682 27.5041 92.6775 26.63C92.5868 25.7558 92.3238 24.908 91.9036 24.1352C94.5212 24.39 97.7443 28.3041 97.7784 28.3805C97.8166 28.4268 97.8681 28.4605 97.9259 28.4772C97.9837 28.4938 98.0452 28.4927 98.1024 28.4739C98.1608 28.455 98.211 28.4171 98.2451 28.3662C98.2791 28.3154 98.2949 28.2546 98.29 28.1937C98.2972 26.3321 97.8587 24.4955 97.011 22.8362C100.174 23.0739 104.975 27.7437 105.026 27.7947C105.068 27.8358 105.122 27.8629 105.18 27.872C105.238 27.8812 105.297 27.8719 105.35 27.8456C105.403 27.8213 105.447 27.7813 105.476 27.7311C105.505 27.681 105.517 27.6231 105.512 27.5654C105.145 22.8362 100.55 19.6352 100.336 19.4909ZM85.0823 66.707C84.9707 67.5991 84.6034 68.4403 84.0243 69.1299C83.4451 69.8196 82.6787 70.3285 81.8167 70.5957C79.3951 71.4447 75.976 70.8844 74.3559 69.373C74.0259 69.1062 73.7793 68.7512 73.6448 68.3496C73.5104 67.9481 73.4938 67.5166 73.597 67.106L73.8017 66.3589C75.8989 67.135 78.1325 67.4787 80.3671 67.3692C82.1077 67.2994 83.754 66.5634 84.963 65.3145C85.0397 66.0872 85.0738 66.5796 85.0823 66.707ZM84.8862 64.4995C81.9616 68.4136 75.2853 66.2825 73.9466 65.7985C74.3389 64.3551 74.6828 62.9683 74.9784 61.6381C76.4852 62.5645 78.2545 62.9759 80.0176 62.8098C81.6155 62.641 83.1575 62.1282 84.5366 61.307C84.6816 62.5466 84.801 63.6334 84.8862 64.4995ZM84.4599 60.6872C79.344 63.7438 75.831 61.5362 75.0807 61.0353C75.3706 59.7023 75.6093 58.4287 75.8225 57.2145C77.1972 57.6565 78.6455 57.8267 80.0858 57.7155C81.4028 57.6115 82.6808 57.2201 83.8289 56.5692C84.1103 58.0381 84.2979 59.473 84.4599 60.6872ZM75.9333 56.6372C76.1465 55.3636 76.317 54.1409 76.4449 52.9947C77.5731 53.4056 78.7781 53.565 79.9749 53.4617C81.0931 53.3673 82.1779 53.0342 83.1553 52.4853C83.3856 53.6655 83.5817 54.8287 83.7607 55.9579C82.5779 56.6059 81.2724 57.001 79.9275 57.118C78.5826 57.235 77.2281 57.0712 75.9504 56.6372H75.9333ZM76.5046 52.3919C76.6154 51.3051 76.7007 50.2692 76.7519 49.2928C77.7151 49.6114 78.7332 49.7326 79.7447 49.6494C80.6811 49.5664 81.587 49.2763 82.3965 48.8004C82.6267 49.8107 82.8484 50.8381 83.0445 51.8485C82.0667 52.4171 80.9739 52.7617 79.8456 52.8572C78.7173 52.9526 77.5818 52.7966 76.5217 52.4004L76.5046 52.3919ZM76.786 48.69C76.786 47.7815 76.8371 46.9239 76.8286 46.1428C77.4584 46.2569 78.1006 46.2883 78.7386 46.2362C79.723 46.1701 80.6687 45.8287 81.4671 45.2513C81.7484 46.2362 82.0128 47.2466 82.2515 48.2654C81.4293 48.7269 80.516 49.0046 79.5752 49.0794C78.6343 49.1541 77.6884 49.0242 76.803 48.6985L76.786 48.69ZM76.8286 45.523C76.8286 44.5126 76.7604 43.5872 76.6837 42.7381C77.1421 42.8414 77.6139 42.8729 78.082 42.8315C78.9269 42.7556 79.7377 42.4631 80.4354 41.9824C80.7338 42.8315 81.0237 43.6805 81.288 44.606C80.6536 45.0608 79.9305 45.3782 79.1654 45.5376C78.4002 45.697 77.61 45.6949 76.8457 45.5315L76.8286 45.523ZM76.6325 42.1268C76.5586 41.4136 76.4733 40.7598 76.3767 40.1655C76.6461 40.1917 76.9174 40.1917 77.1867 40.1655C77.974 40.1108 78.7247 39.8141 79.3354 39.3164C79.6509 39.9871 79.9408 40.7004 80.2307 41.439C79.727 41.8201 79.1423 42.081 78.5214 42.2017C77.9006 42.3224 77.2602 42.2997 76.6496 42.1352L76.6325 42.1268ZM76.2829 39.5796C76.155 38.9004 76.0271 38.3145 75.8992 37.8135C76.075 37.8306 76.2521 37.8306 76.4279 37.8135C77.0714 37.7697 77.6772 37.4952 78.1332 37.0409C78.4891 37.5882 78.8136 38.1552 79.1052 38.739C78.7305 39.0793 78.2842 39.3322 77.7989 39.479C77.3136 39.6259 76.8015 39.6632 76.3 39.5881L76.2829 39.5796ZM75.7287 37.2022C75.5667 36.6418 75.4217 36.2258 75.3109 35.9371H75.6775C76.1298 35.8958 76.5669 35.7536 76.9565 35.5211C77.2606 35.8467 77.5453 36.1898 77.8092 36.5485C77.5545 36.8304 77.2295 37.0401 76.8671 37.1565C76.5047 37.2728 76.1178 37.2915 75.7458 37.2107L75.7287 37.2022ZM76.8457 34.9183C76.5658 35.1093 76.2505 35.243 75.9182 35.3115C75.5859 35.38 75.2432 35.382 74.9101 35.3173C74.3824 35.2094 73.9038 34.9345 73.5458 34.5336C73.1877 34.1327 72.9695 33.6273 72.9235 33.0928C72.8941 32.772 72.9288 32.4486 73.0253 32.1411C73.1219 31.8337 73.2785 31.5483 73.4862 31.3013C73.6943 31.044 73.9528 30.8315 74.246 30.6768C74.5392 30.5221 74.8609 30.4284 75.1915 30.4013H75.5582C75.8745 30.4171 76.1845 30.495 76.4705 30.6305C76.8663 30.8163 77.2061 31.1023 77.456 31.4599C77.7059 31.8175 77.8571 32.2342 77.8944 32.6683C77.9377 33.1019 77.8651 33.5392 77.6839 33.9358C77.5027 34.3325 77.2194 34.6743 76.8627 34.9268L76.8457 34.9183ZM79.4037 7.89276C80.4975 7.47075 81.6457 7.20491 82.8143 7.10314C84.0354 6.97676 85.2695 7.11877 86.4295 7.51917C84.6475 8.01162 80.4609 9.35315 79.4037 11.4079C79.3764 11.4511 79.3619 11.5011 79.3619 11.5522C79.3619 11.6033 79.3764 11.6533 79.4037 11.6965C79.4303 11.7393 79.4683 11.7738 79.5134 11.7963C79.5586 11.8187 79.6091 11.8283 79.6594 11.8239C81.023 11.8564 82.3579 12.2208 83.5476 12.8852C82.0298 13.1654 78.9176 13.9296 78.0138 15.6786C77.9891 15.7212 77.9761 15.7695 77.9761 15.8187C77.9761 15.8679 77.9891 15.9162 78.0138 15.9588C78.0401 16.0024 78.0777 16.0381 78.1228 16.0621C78.1679 16.086 78.2186 16.0973 78.2696 16.0947C79.5815 16.1007 80.846 16.5838 81.8252 17.4532C80.5292 17.5635 77.6045 17.9796 76.8542 19.3975C76.8255 19.4433 76.8102 19.4963 76.8102 19.5503C76.8102 19.6044 76.8255 19.6573 76.8542 19.7032C76.8847 19.7496 76.9291 19.7853 76.9812 19.8052C77.0332 19.825 77.0903 19.8279 77.1441 19.8135C77.6761 19.7071 78.226 19.7286 78.748 19.8763C79.27 20.0239 79.7491 20.2935 80.1455 20.6626C79.3249 20.677 78.5219 20.9017 77.8139 21.3152C77.106 21.7286 76.517 22.3168 76.1039 23.023C76.0768 23.0679 76.0625 23.1192 76.0625 23.1715C76.0625 23.2239 76.0768 23.2753 76.1039 23.3201C76.1332 23.3642 76.1742 23.3994 76.2224 23.4219C76.2705 23.4444 76.3239 23.4532 76.3767 23.4475C77.1825 23.3921 77.9886 23.5503 78.713 23.906C77.2647 25.3007 76.1639 27.0133 75.4985 28.9069C74.8931 24.8315 73.0002 11.1192 79.4719 7.90126L79.4037 7.89276ZM68.5152 24.4494C69.2048 23.6343 70.108 23.0259 71.1243 22.6918C71.1755 22.6773 71.2217 22.649 71.2578 22.6101C71.2939 22.5711 71.3185 22.523 71.329 22.4711C71.3373 22.4188 71.3313 22.3652 71.3118 22.316C71.2924 22.2667 71.26 22.2235 71.2181 22.1909C70.3742 21.5609 69.3804 21.16 68.3341 21.0275C67.2878 20.8951 66.2249 21.0356 65.2495 21.4352C65.9402 19.3126 68.3703 18.8881 68.4811 18.8371C68.5356 18.8302 68.5868 18.807 68.6279 18.7707C68.6689 18.7343 68.698 18.6864 68.7113 18.6333C68.7239 18.58 68.7218 18.5242 68.7053 18.472C68.6888 18.4197 68.6585 18.3728 68.6175 18.3362C67.0316 17.0116 63.2543 18.039 61.7963 18.506C62.5101 16.931 63.7999 15.6862 65.403 15.0248C65.4515 15.0085 65.4946 14.9793 65.5276 14.9404C65.5607 14.9015 65.5825 14.8544 65.5906 14.8041C65.5993 14.7546 65.5953 14.7037 65.5789 14.6562C65.5625 14.6087 65.5342 14.5661 65.4968 14.5324C63.5527 12.8767 59.3236 13.5815 57.533 13.9805C58.6349 12.5477 60.0843 11.4171 61.7451 10.6946C61.7931 10.6775 61.8357 10.6481 61.8687 10.6093C61.9016 10.5706 61.9237 10.5239 61.9327 10.4739C61.9431 10.4244 61.9399 10.373 61.9234 10.3252C61.9069 10.2773 61.8777 10.2348 61.8389 10.2022C59.5282 8.26634 53.7387 8.78426 51.607 9.04746C54.8301 5.93991 60.1336 5.95691 60.1848 5.95691C69.4958 6.67012 73.904 24.2881 74.9101 28.9833C73.1926 26.9804 71.0088 25.4267 68.5493 24.4579L68.5152 24.4494ZM68.3873 32.3032C68.161 31.4691 68.161 30.5901 68.3873 29.756C68.4032 29.7056 68.4044 29.6517 68.3908 29.6006C68.3772 29.5496 68.3494 29.5033 68.3106 29.4673C68.2735 29.4301 68.2267 29.404 68.1754 29.392C68.1242 29.38 68.0705 29.3826 68.0207 29.3994C67.1942 29.6927 66.4574 30.1927 65.881 30.8514C65.3046 31.5101 64.9081 32.3054 64.7294 33.1607C64.4137 32.666 64.2233 32.1024 64.1743 31.5183C64.1252 30.9342 64.2192 30.347 64.448 29.8069C64.477 29.7628 64.4925 29.7111 64.4925 29.6584C64.4925 29.6056 64.477 29.5539 64.448 29.5098C64.4115 29.4689 64.364 29.4392 64.3112 29.4242C64.2584 29.4092 64.2023 29.4094 64.1496 29.4249C62.4955 29.9088 61.4723 32.923 61.1056 34.222C60.367 33.018 60.1056 31.5831 60.3723 30.1975C60.3829 30.1487 60.3806 30.0981 60.3657 30.0505C60.3507 30.0029 60.3237 29.9599 60.2871 29.9258C60.2519 29.8885 60.2065 29.8621 60.1566 29.8501C60.1066 29.838 60.0542 29.8407 60.0057 29.8579C57.9764 30.4437 56.5354 33.5937 55.9556 35.0966C55.4864 33.7031 55.3664 32.2166 55.606 30.7664C55.6201 30.7171 55.6205 30.665 55.6069 30.6156C55.5934 30.5662 55.5665 30.5214 55.5293 30.4862C55.4929 30.4505 55.4476 30.4254 55.398 30.4134C55.3485 30.4014 55.2966 30.4031 55.2479 30.4183C52.8519 31.1315 50.5838 35.2579 49.7226 36.9815C49.1002 33.339 51.5047 29.722 51.5217 29.6966C52.9713 27.8286 55.299 26.9881 57.9593 26.7588C63.9705 26.2494 71.6018 28.8984 74.4241 29.9598C72.2528 30.2497 70.1828 31.0533 68.3873 32.3032ZM73.3327 30.7324L73.1878 30.8683H72.932L73.3327 30.7324ZM70.2376 34.1286C70.2096 33.8024 70.2465 33.4738 70.3462 33.1618C70.446 32.8498 70.6066 32.5605 70.8189 32.3104C71.0312 32.0604 71.291 31.8545 71.5834 31.7046C71.8758 31.5548 72.195 31.4639 72.5227 31.4371H72.7785V31.4796C72.7785 31.522 72.7359 31.573 72.7103 31.6154C72.652 31.7311 72.6007 31.8502 72.5568 31.972L72.5056 32.1503C72.4711 32.27 72.4455 32.392 72.4289 32.5154V32.6768C72.4119 32.8603 72.4119 33.0451 72.4289 33.2286C72.442 33.3833 72.4677 33.5366 72.5056 33.6871C72.5056 33.7381 72.5057 33.789 72.5483 33.84L72.6506 34.1286L72.7273 34.29C72.7677 34.3747 72.8133 34.457 72.8638 34.5362L72.9661 34.6975C73.0153 34.7718 73.0694 34.8427 73.1281 34.9098L73.256 35.0541C73.317 35.1234 73.3825 35.1886 73.4521 35.2494L73.597 35.3683C73.6701 35.4296 73.7471 35.4863 73.8273 35.5381L73.9722 35.6315C74.0951 35.701 74.2234 35.7607 74.3559 35.8098C73.9619 36.1431 73.4728 36.345 72.9575 36.3871C72.6234 36.4185 72.2864 36.3827 71.9664 36.282C71.6464 36.1812 71.35 36.0175 71.0948 35.8005C70.8395 35.5836 70.6306 35.3178 70.4804 35.0189C70.3302 34.7201 70.2419 34.3942 70.2205 34.0607L70.2376 34.1286ZM95.0925 71.7334C95.3102 72.2839 95.3966 72.8772 95.3448 73.4665C95.293 74.0559 95.1045 74.6252 94.7941 75.1296C93.6771 77.0655 90.3006 79.5532 80.5803 80.3853C68.6431 81.3957 65.3775 78.441 64.4822 76.5815C64.1821 76.0022 64.0429 75.3537 64.0788 74.7029C64.1148 74.052 64.3247 73.4226 64.6868 72.8796C65.1878 72.3124 65.6016 71.6743 65.9146 70.9862C66.7673 69.2881 67.6626 67.5391 73.4265 65.7476C73.3157 66.1806 73.1963 66.5966 73.0769 67.0551C72.9362 67.5657 72.9484 68.1062 73.112 68.61C73.2756 69.1138 73.5835 69.559 73.9978 69.8909C74.8501 70.5676 75.828 71.0703 76.8755 71.3704C77.9231 71.6705 79.0197 71.7621 80.1028 71.64C80.7651 71.5838 81.418 71.447 82.0469 71.2325C83.0128 70.9298 83.8707 70.3565 84.5179 69.581C85.1651 68.8055 85.5742 67.8608 85.6962 66.8598V66.8004C85.6962 66.6221 85.6195 65.7391 85.4831 64.3721C87.5613 64.7077 89.5242 65.5489 91.1975 66.8212C92.8709 68.0935 94.2029 69.7575 95.0755 71.6655L95.0925 71.7334ZM80.7167 32.5069C80.7448 32.8325 80.7082 33.1604 80.6089 33.4719C80.5097 33.7834 80.3498 34.0724 80.1384 34.3223C79.927 34.5723 79.6682 34.7783 79.3768 34.9286C79.0854 35.079 78.7671 35.1707 78.4401 35.1985C78.1541 35.226 77.8655 35.203 77.5875 35.1305C77.6387 35.0881 77.6728 35.0371 77.7239 34.9862L77.7921 34.9098C77.8689 34.8164 77.9456 34.7145 78.0138 34.6126C78.0735 34.5192 78.1247 34.4173 78.1758 34.3239L78.227 34.2135C78.227 34.1371 78.2867 34.0607 78.3123 33.9758C78.3378 33.8909 78.3122 33.8909 78.3549 33.8485C78.3798 33.7705 78.3997 33.6911 78.4146 33.6107V33.4834V33.2286C78.4185 33.1891 78.4185 33.1493 78.4146 33.1098C78.4231 32.9826 78.4231 32.8549 78.4146 32.7277C78.4146 32.6003 78.4146 32.4815 78.3549 32.3541C78.2952 32.2268 78.3549 32.2777 78.3549 32.2353C78.3549 32.1928 78.3122 32.0739 78.2866 31.9975L78.2355 31.8617C78.2078 31.7894 78.1765 31.7185 78.1417 31.6494C78.1223 31.6052 78.0995 31.5626 78.0735 31.522C78.0735 31.4541 77.9968 31.3862 77.9541 31.3183L77.8774 31.2079C77.8251 31.1286 77.7651 31.0547 77.6983 30.9871L77.6472 30.9192C77.5661 30.8329 77.4808 30.7507 77.3914 30.673L77.2891 30.5966L77.1441 30.4777C77.3984 30.3669 77.6691 30.2981 77.9456 30.2739C78.5983 30.2019 79.2532 30.3888 79.7686 30.794C80.284 31.1992 80.6185 31.7901 80.6997 32.439L80.7167 32.5069ZM96.525 22.3182C96.4748 22.3228 96.4265 22.3401 96.3847 22.3683C96.343 22.3965 96.3091 22.4348 96.2863 22.4796C96.2616 22.5237 96.2487 22.5734 96.2487 22.6239C96.2487 22.6744 96.2616 22.7241 96.2863 22.7682C97.1392 24.1841 97.6255 25.7887 97.7017 27.4381C96.5335 26.1645 93.7539 23.4475 91.4176 23.6513C91.3681 23.6548 91.3205 23.6717 91.28 23.7001C91.2394 23.7285 91.2074 23.7674 91.1874 23.8126C91.1627 23.8567 91.1498 23.9064 91.1498 23.9569C91.1498 24.0075 91.1627 24.0571 91.1874 24.1013C92.0244 25.4432 92.3285 27.0479 92.04 28.6013C91.1874 27.4466 88.8681 24.7041 86.9667 24.8739C86.9113 24.8763 86.858 24.8955 86.8138 24.9289C86.7696 24.9623 86.7367 25.0082 86.7194 25.0607C86.6984 25.1112 86.6937 25.1669 86.7059 25.2201C86.7182 25.2734 86.7467 25.3215 86.7876 25.3579C87.2501 25.8288 87.5885 26.4061 87.773 27.0386C87.9574 27.671 87.9822 28.3391 87.845 28.9833C87.3154 28.178 86.5876 27.5211 85.7309 27.0752C84.8741 26.6294 83.917 26.4094 82.9507 26.4362C82.8968 26.4396 82.8448 26.4571 82.7999 26.4869C82.755 26.5167 82.7188 26.5578 82.6949 26.606C82.674 26.6547 82.6668 26.7081 82.6744 26.7605C82.6819 26.8129 82.7037 26.8623 82.7375 26.9032C83.3216 27.6859 83.6758 28.6147 83.7607 29.5862C82.173 29.1921 80.5302 29.0658 78.9006 29.2126C78.1109 29.2851 77.3274 29.4128 76.5558 29.5947C79.9664 26.4956 92.6284 15.6446 99.9953 20.0343C100.038 20.0343 104.037 22.8447 104.83 26.8862C103.346 25.4428 99.2791 22.0381 96.525 22.2758V22.3182Z" fill="#999999"/>
</svg>