<svg xmlns="http://www.w3.org/2000/svg" width="785" height="191" viewBox="0 0 785 191" fill="none">
<path fill-rule="evenodd" clip-rule="evenodd" d="M525.424 115.816C522.629 118.495 523.43 118.182 516.927 116.222C511.224 114.366 513.929 113.751 508.823 116.732C504.225 119.516 496.719 122.288 493.225 124.445C494.533 127.426 505.724 137.204 508.429 141.217C507.426 141.728 506.626 142.145 505.532 142.656C503.831 143.479 504.236 143.479 502.23 142.25C497.835 139.675 483.724 131.439 480.929 130.21C477.233 131.857 467.427 137.007 464.035 136.798C462.435 136.694 459.831 136.288 460.338 134.223C461.634 129.178 470.437 126.405 476.139 123.83C478.439 122.798 477.841 122.903 478.337 120.328C478.946 117.555 482.744 97.3848 483.634 96.3525C484.029 96.0394 487.128 94.7055 487.737 94.3923C488.041 96.2481 488.232 98.3012 488.334 100.261L489.337 111.686C489.337 113.542 489.641 115.7 489.934 117.451C492.538 116.117 495.13 114.98 497.835 113.647C511.235 107.058 508.835 111.489 511.934 104.077C513.737 99.9598 513.737 97.4892 517.637 98.104C516.927 106.351 519.124 111.489 525.424 115.816ZM411.628 36.0612C415.235 37.1978 414.423 37.3022 419.427 32.5583C423.823 28.4406 421.129 29.0554 427.023 29.5773C432.219 29.9833 440.221 29.2642 444.323 29.6817C444.425 32.8714 438.327 46.6626 437.527 51.4994C438.632 51.4994 439.522 51.4994 440.728 51.4994C442.633 51.4994 442.227 51.7081 443.625 49.7479C446.521 45.4215 455.729 31.7347 457.825 29.4729C461.927 29.3686 472.826 29.5773 475.824 28.0347C477.221 27.2111 479.419 25.5641 478.123 23.917C474.821 20.0082 465.726 21.3421 459.527 21.5509C457.025 21.5509 457.634 21.4465 456.022 19.3935C454.32 17.1317 442.52 0.55675 441.325 0.0463958C440.829 -0.0579948 437.426 0.0463958 436.828 0.0463958C437.234 1.90223 437.933 3.74646 438.632 5.6023L442.531 16.4009C443.23 18.048 443.929 20.2054 444.436 21.8524C441.539 21.748 438.632 21.8524 435.634 21.8524C420.836 21.8524 424.938 24.8334 418.931 19.4862C415.64 16.5053 414.637 14.3363 411.335 16.6097C415.336 23.7199 415.528 29.3686 411.628 36.0612ZM410.028 25.5641C411.527 25.3553 412.034 27.7215 410.321 28.0347L407.92 28.3478C406.421 28.661 405.813 26.1904 407.514 25.8773L410.028 25.5641ZM197.65 190.223C196.85 191.87 194.652 190.629 195.351 189.191L195.948 187.857C196.748 186.314 198.946 187.544 198.146 188.993L197.65 190.223ZM201.448 182.092C200.648 183.635 198.45 182.51 199.25 180.955L200.355 178.693C201.054 177.151 203.251 178.38 202.552 179.819L201.448 182.092ZM205.945 173.033C205.246 174.471 202.947 173.439 203.747 171.897L204.942 169.635C205.641 168.196 207.838 169.229 207.139 170.876L205.945 173.033ZM210.746 164.183C209.844 165.726 207.748 164.288 208.548 162.942L209.844 160.68C210.746 159.138 212.741 160.576 211.941 161.91L210.746 164.183ZM215.75 155.438C214.848 156.876 212.752 155.542 213.654 154.104L214.95 151.946C215.75 150.508 217.948 151.842 217.046 153.28L215.75 155.438ZM221.047 146.796C220.247 148.13 218.049 146.901 218.951 145.463L220.348 143.305C221.148 141.971 223.346 143.201 222.343 144.743L221.047 146.796ZM226.547 138.457C225.544 139.791 223.65 138.248 224.552 136.914L225.95 134.861C226.953 133.527 228.948 135.07 227.944 136.404L226.547 138.457ZM232.34 130.221C231.337 131.555 229.443 130.013 230.435 128.679L231.934 126.626C232.937 125.292 234.831 126.939 233.828 128.168L232.34 130.221ZM238.144 122.508C237.242 123.019 236.149 122.195 236.239 121.174C236.138 120.56 236.634 119.736 237.344 119.632L238.144 118.599C239.147 117.37 241.142 118.912 240.049 120.246L239.846 120.56L240.24 120.664C241.841 121.279 240.838 123.645 239.339 123.03L238.144 122.508ZM244.85 114.482C243.644 115.723 241.953 113.971 243.047 112.73L244.647 110.874C245.842 109.541 247.544 111.385 246.45 112.521L244.85 114.482ZM251.545 106.966C250.44 108.195 248.547 106.455 249.741 105.214L251.443 103.358C252.548 102.129 254.34 103.869 253.246 105.11L251.545 106.966ZM258.442 99.7626C257.146 100.899 255.545 98.9391 256.74 97.9068L258.442 96.1553C259.738 94.9143 261.338 96.8745 260.245 98.0112L258.442 99.7626ZM265.644 92.7684C264.438 93.9051 262.747 92.0493 263.942 90.9126L265.847 89.1612C267.041 88.0245 268.743 89.9847 267.447 91.1214L265.644 92.7684ZM273.037 86.1802C271.933 87.2126 270.242 85.3567 271.538 84.2316L273.443 82.5846C274.84 81.4479 276.238 83.6169 274.942 84.5448L273.037 86.1802ZM280.836 79.8008C279.439 80.8331 278.041 78.7685 279.337 77.8406L281.242 76.2979C282.639 75.2656 284.037 77.3302 282.741 78.2582L280.836 79.8008ZM288.737 73.8274C287.542 74.7553 285.942 72.795 287.339 71.7743C288.038 71.264 288.737 70.742 289.435 70.3361C290.63 69.4081 292.23 71.3684 290.833 72.3891C290.145 72.8994 289.447 73.317 288.737 73.8274ZM296.941 68.1671C295.544 69.095 294.338 66.8332 295.645 66.0097L297.742 64.6758C299.139 63.7479 300.446 66.0097 299.038 66.8332L296.941 68.1671ZM305.338 62.9243C304.042 63.7479 302.644 61.5905 304.143 60.6625L306.341 59.433C307.637 58.6095 309.034 60.7669 307.535 61.6948L305.338 62.9243ZM314.038 57.9832C312.438 58.8067 311.435 56.4405 312.833 55.7214L315.03 54.4919C316.529 53.7728 317.634 56.1389 316.236 56.8581L314.038 57.9832ZM322.841 53.4596C321.443 54.1787 320.237 51.9169 321.736 51.0934C322.536 50.7802 323.235 50.3743 324.035 50.0611C325.433 49.342 326.537 51.6038 325.038 52.3229C324.339 52.7289 323.539 53.042 322.841 53.4596ZM331.834 49.2376C330.234 49.8523 329.434 47.4861 330.831 46.8714L333.13 45.8391C334.731 45.2243 335.531 47.6833 334.032 48.2053L331.834 49.2376ZM340.941 45.4215C339.442 46.0363 338.54 43.6701 340.039 43.0553L342.44 42.1274C343.837 41.5127 344.84 43.8788 343.24 44.4936L340.941 45.4215ZM350.239 41.9302C348.74 42.4406 347.838 40.0744 349.438 39.564C350.239 39.2509 351.039 38.9493 351.839 38.7405C353.237 38.1258 354.138 40.492 352.538 41.1067C351.738 41.4083 351.039 41.6171 350.239 41.9302ZM359.638 38.8449C357.936 39.2509 357.44 36.7919 358.939 36.3743L361.34 35.6552C362.94 35.2492 363.538 37.7082 361.937 38.1258L359.638 38.8449ZM369.139 36.0612C367.539 36.4787 366.941 34.0081 368.542 33.5906L370.942 32.9758C372.441 32.5699 373.14 35.0288 371.54 35.4464L369.139 36.0612ZM378.73 33.695C377.231 34.1009 376.431 31.642 378.133 31.12L380.635 30.6096C382.337 30.2965 382.641 32.8714 381.131 33.0802L378.73 33.695ZM388.332 31.5376C386.732 31.8507 386.337 29.3802 387.938 29.067L390.338 28.661C392.04 28.3478 392.435 30.8184 390.834 31.1316L388.332 31.5376ZM398.126 29.7861C396.526 30.0993 396.03 27.6287 397.732 27.3155L400.132 26.9096C401.733 26.5964 402.229 29.1714 400.527 29.4845L398.126 29.7861ZM65.1561 129.398C62.3498 132.077 63.1612 131.764 56.6583 129.711C50.9555 127.96 53.6604 127.241 48.5549 130.326C43.9566 133.005 36.4506 135.882 32.9568 138.039C34.2529 141.02 45.4556 150.798 48.1604 154.811C47.1574 155.322 46.3572 155.635 45.264 156.145C43.5621 157.073 43.9679 157.073 41.9618 155.832C37.5663 153.257 23.4672 144.917 20.6609 143.792C16.9642 145.439 7.15903 150.589 3.76667 150.38C2.16628 150.276 -0.437161 149.766 0.0700027 147.701C1.36609 142.656 10.1682 139.883 15.871 137.308C18.1701 136.276 17.5728 136.485 18.0687 133.91C18.666 131.033 22.4754 110.967 23.3657 109.935C23.67 109.622 26.8595 108.183 27.4681 107.975C27.7724 109.831 27.9753 111.779 28.0655 113.739L29.0685 125.269C29.0685 127.02 29.3728 129.282 29.6658 130.929C32.2693 129.688 34.8615 128.458 37.5663 127.229C50.9667 120.641 48.4647 125.072 51.6655 117.66C53.4688 113.542 53.3673 111.072 57.3683 111.686C56.6583 119.933 58.856 125.083 65.1561 129.398ZM62.2596 119.214C60.7607 119.724 61.358 122.091 63.0598 121.685L65.3589 120.861C66.7565 120.444 66.2606 117.985 64.5587 118.391L62.2596 119.214ZM322.739 174.576C324.035 175.713 325.433 173.648 324.238 172.627L323.235 171.804C321.837 170.667 320.44 172.732 321.635 173.764L322.739 174.576ZM315.842 168.916C317.138 169.948 318.637 167.988 317.442 166.955L315.447 165.308C314.151 164.276 312.652 166.341 313.948 167.361L315.842 168.916ZM308.043 162.745C309.237 163.777 310.838 161.817 309.542 160.692L307.547 159.149C306.251 158.221 304.65 160.182 306.048 161.214L308.043 162.745ZM300.041 156.771C301.438 157.804 302.746 155.542 301.438 154.718L299.342 153.28C297.944 152.248 296.637 154.521 297.944 155.333L300.041 156.771ZM291.836 151.111C293.233 152.039 294.541 149.882 293.233 148.954L291.137 147.62C289.74 146.692 288.342 148.757 289.74 149.685L291.836 151.111ZM283.541 145.66C284.837 146.483 286.235 144.43 284.736 143.502L282.639 142.168C281.343 141.345 279.946 143.398 281.343 144.326L283.541 145.66ZM274.942 140.51C276.542 141.333 277.545 139.071 276.238 138.248L274.04 137.018C272.541 136.195 271.437 138.457 272.845 139.28L274.942 140.51ZM266.342 135.673C267.841 136.392 268.844 134.13 267.447 133.411L265.249 132.17C263.75 131.451 262.646 133.713 264.145 134.432L266.342 135.673ZM257.439 131.149C258.938 131.869 260.042 129.607 258.532 128.783L256.334 127.751C254.937 127.032 253.731 129.189 255.23 130.013L257.439 131.149ZM248.547 126.927C250.147 127.542 250.947 125.176 249.448 124.561L247.149 123.529C245.65 122.914 244.749 125.28 246.247 125.895L248.547 126.927ZM230.142 119.516C231.844 120.026 232.34 117.555 230.942 117.149L228.542 116.326C226.84 115.816 226.344 118.286 227.742 118.692L230.142 119.516ZM220.743 116.43C222.242 116.941 222.94 114.47 221.442 113.96L219.041 113.241C217.441 112.823 216.742 115.294 218.342 115.711L220.743 116.43ZM211.242 113.763C212.639 114.169 213.541 111.814 211.839 111.292L209.439 110.677C207.635 110.271 207.342 112.835 208.841 113.148L211.242 113.763ZM201.651 111.396C203.251 111.71 203.646 109.239 202.147 108.926L199.645 108.415C198.044 108.102 197.548 110.573 199.138 110.886L201.651 111.396ZM191.947 109.541C193.446 109.854 194.043 107.383 192.342 106.966C191.541 106.861 190.64 106.652 189.84 106.56C188.341 106.246 187.743 108.717 189.445 109.135C190.245 109.227 191.147 109.332 191.947 109.541ZM182.153 107.998C183.855 108.207 184.058 105.632 182.457 105.527L180.057 105.214C178.355 105.005 178.152 107.58 179.753 107.685L182.153 107.998ZM172.348 106.966C173.948 107.07 174.253 104.599 172.551 104.391L170.049 104.182C168.55 103.973 168.155 106.548 169.947 106.757L172.348 106.966ZM162.554 106.246C164.256 106.351 164.155 103.776 162.656 103.776L160.154 103.671C158.452 103.567 158.452 106.142 160.052 106.142L162.554 106.246ZM152.648 106.038C154.248 106.038 154.349 103.463 152.648 103.463C151.847 103.463 150.946 103.463 150.146 103.463C148.647 103.463 148.444 106.038 150.146 106.038C151.058 106.038 151.847 106.038 152.648 106.038ZM142.752 106.246C144.555 106.038 144.251 103.567 142.651 103.671L140.25 103.776C138.548 103.88 138.751 106.455 140.352 106.351L142.752 106.246ZM132.958 106.757C134.559 106.652 134.356 104.077 132.755 104.182L130.253 104.391C128.653 104.495 128.856 107.07 130.456 106.966L132.958 106.757ZM123.153 107.685C124.652 107.58 124.551 105.005 122.849 105.214C122.049 105.319 121.147 105.423 120.347 105.527C118.848 105.632 118.949 108.207 120.651 107.998C121.451 107.893 122.251 107.789 123.153 107.685ZM113.359 109.019C115.061 108.705 114.464 106.246 112.965 106.548L110.451 106.861C108.851 107.279 109.347 109.749 110.846 109.436L113.359 109.019ZM103.554 110.77C105.154 110.457 104.76 107.893 103.16 108.195L100.658 108.705C99.1586 109.019 99.5531 111.489 101.153 111.176L103.554 110.77ZM93.9517 112.73C95.4507 112.521 95.0562 109.958 93.3544 110.26L90.9538 110.874C89.252 111.292 90.0522 113.751 91.5511 113.345L93.9517 112.73ZM84.3607 115.201C85.9611 114.69 85.2623 112.22 83.6619 112.73L81.2613 113.345C79.661 113.751 80.3597 116.222 81.9601 115.816L84.3607 115.201ZM74.7584 117.88C76.3588 117.474 75.7614 114.899 74.0596 115.41L71.7605 116.129C70.2615 116.535 70.7574 119.005 72.4592 118.599L74.7584 117.88ZM522.517 105.632C521.018 106.142 521.615 108.508 523.317 108.102L525.616 107.279C527.014 106.861 526.619 104.402 524.816 104.913L522.517 105.632ZM782.996 161.098C784.292 162.13 785.791 160.066 784.495 159.138L783.492 158.21C782.095 157.073 780.697 159.242 781.892 160.17L782.996 161.098ZM776.099 155.438C777.406 156.47 778.894 154.405 777.699 153.385L775.693 151.842C774.397 150.81 772.887 152.77 774.194 153.802L776.099 155.438ZM768.3 149.163C769.494 150.195 771.095 148.235 769.799 147.202L767.804 145.66C766.508 144.627 764.907 146.588 766.305 147.713L768.3 149.163ZM760.298 143.294C761.695 144.221 763.003 142.064 761.695 141.136L759.701 139.698C758.202 138.77 756.894 140.939 758.303 141.855L760.298 143.294ZM752.104 137.529C753.502 138.457 754.798 136.299 753.502 135.371L751.406 134.038C750.008 133.11 748.701 135.279 750.008 136.195L752.104 137.529ZM743.798 132.077C745.105 133.005 746.503 130.941 745.105 129.92L742.908 128.586C741.713 127.762 740.214 129.816 741.713 130.848L743.798 132.077ZM735.3 126.927C736.799 127.751 737.802 125.489 736.506 124.77L734.308 123.436C732.809 122.717 731.705 124.979 733.114 125.698L735.3 126.927ZM726.611 122.091C728.11 122.81 729.214 120.652 727.704 119.829L725.506 118.692C724.007 117.869 723.004 120.235 724.402 120.954L726.611 122.091ZM717.707 117.567C719.206 118.286 720.311 116.024 718.812 115.305L716.614 114.169C715.217 113.449 714.022 115.711 715.51 116.43L717.707 117.567ZM708.804 113.345C710.404 113.96 711.204 111.594 709.705 110.979L707.508 109.947C705.907 109.332 705.006 111.802 706.505 112.313L708.804 113.345ZM699.607 109.541C701.106 110.155 702.098 107.789 700.509 107.07L698.21 106.246C696.711 105.632 695.809 107.998 697.308 108.613L699.607 109.541ZM690.411 106.038C692.112 106.548 692.608 103.985 691.211 103.567L688.81 102.744C687.108 102.233 686.612 104.704 688.01 105.214L690.411 106.038ZM681.011 102.848C682.612 103.358 683.209 100.899 681.71 100.482L679.309 99.7626C677.709 99.2523 677.01 101.723 678.611 102.129L681.011 102.848ZM671.51 100.18C672.908 100.586 673.809 98.2199 672.108 97.7096L669.707 97.0949C667.904 96.6889 667.599 99.2523 669.11 99.5654L671.51 100.18ZM661.908 97.9068C663.508 98.22 663.903 95.645 662.404 95.3318L659.902 94.8215C658.301 94.5083 657.896 96.9789 659.507 97.292L661.908 97.9068ZM652.216 95.9582C653.714 96.2713 654.323 93.8008 652.61 93.4876C651.81 93.2788 651.01 93.1744 650.108 92.9772C648.71 92.7685 648.012 95.239 649.713 95.5522C650.615 95.645 651.415 95.8538 652.216 95.9582ZM642.41 94.4155C644.112 94.6243 644.315 92.1537 642.715 91.9449L640.314 91.6317C638.612 91.423 638.409 93.9979 640.01 94.1023L642.41 94.4155ZM632.616 93.3832C634.217 93.592 634.51 91.017 632.819 90.8082L630.317 90.5994C628.818 90.495 628.413 92.9656 630.216 93.1744L632.616 93.3832ZM622.811 92.7684C624.513 92.7684 624.412 90.1935 622.913 90.1935L620.411 90.0891C618.709 90.0891 618.709 92.5597 620.309 92.6641L622.811 92.7684ZM612.916 92.4553C614.516 92.4553 614.618 89.9847 612.916 89.8803C612.116 89.8803 611.214 89.8803 610.414 89.8803C608.915 89.8803 608.712 92.4553 610.414 92.4553C611.315 92.4553 612.116 92.4553 612.916 92.4553ZM603.021 92.6641C604.824 92.5597 604.52 89.9847 602.919 90.0891L600.519 90.1935C598.817 90.2979 599.02 92.8728 600.62 92.7684L603.021 92.6641ZM593.215 93.1744C594.816 93.07 594.714 90.495 593.013 90.7038L590.511 90.9126C588.91 91.017 589.113 93.4876 590.713 93.3832L593.215 93.1744ZM583.421 94.2067C584.92 93.9979 584.819 91.423 583.117 91.6317C582.317 91.7361 581.415 91.8405 580.615 91.9449C579.116 92.0493 579.218 94.6243 580.919 94.4155C581.72 94.3111 582.52 94.2067 583.421 94.2067ZM573.616 95.4362C575.318 95.123 574.71 92.6641 573.222 92.9656L570.72 93.3716C569.119 93.6848 569.615 96.1553 571.114 95.8422L573.616 95.4362ZM563.811 97.1876C565.412 96.8745 565.017 94.4155 563.417 94.7171L560.926 95.123C559.427 95.4362 559.821 97.9996 561.422 97.698L563.811 97.1876ZM554.22 99.2523C555.719 98.9391 555.325 96.3757 553.623 96.7817L551.222 97.292C549.52 97.8024 550.321 100.18 551.82 99.7626L554.22 99.2523ZM544.618 101.618C546.218 101.108 545.519 98.7419 544.021 99.1479L541.518 99.7626C539.918 100.273 540.617 102.639 542.217 102.233L544.618 101.618ZM535.117 104.286C536.616 103.88 536.019 101.41 534.418 101.816L532.018 102.535C530.519 102.941 531.015 105.516 532.716 105.005L535.117 104.286Z" fill="#CCCCCC"/>
</svg>