<svg xmlns="http://www.w3.org/2000/svg" width="180" height="131" viewBox="0 0 180 131" fill="none">
<path d="M67.2398 54.9713C67.2835 54.9366 67.3188 54.8926 67.343 54.8423C67.3673 54.7921 67.3799 54.7371 67.3798 54.6813L66.9898 47.6813L70.3598 45.6213C70.6128 45.4684 70.833 45.267 71.0078 45.0287C71.1826 44.7903 71.3085 44.5197 71.3782 44.2325C71.4479 43.9452 71.4601 43.647 71.414 43.3551C71.368 43.0631 71.2646 42.7831 71.1098 42.5313L69.8398 40.4413C69.5273 39.9318 69.0257 39.5667 68.4447 39.4262C67.8637 39.2856 67.2507 39.381 66.7398 39.6913L66.5598 39.8013L65.7698 25.4213L81.7698 17.1713C82.6074 16.6614 83.3355 15.9906 83.9123 15.1976C84.489 14.4046 84.9028 13.5052 85.1299 12.5513L85.1898 12.2813L87.3498 8.85132C87.7077 8.27486 87.8974 7.60983 87.8974 6.9313C87.8974 6.25278 87.7077 5.58775 87.3498 5.01129C86.996 4.42912 86.4862 3.95762 85.8783 3.65012C85.2704 3.34261 84.5885 3.21139 83.9099 3.2713L79.9099 3.62131C78.9187 3.33863 77.8794 3.26556 76.8585 3.40674C75.8375 3.54792 74.8571 3.90027 73.9798 4.44131L59.2398 14.8513L46.8198 7.57129L46.9998 7.4613C47.5094 7.14881 47.8744 6.64715 48.015 6.06616C48.1555 5.48517 48.0602 4.87216 47.7498 4.3613L46.4798 2.2713C46.1655 1.76379 45.664 1.4005 45.0837 1.26013C44.5035 1.11976 43.8914 1.21359 43.3799 1.5213L40.0098 3.5813L34.0098 0.0413184C33.9591 0.014182 33.9024 -2.3602e-06 33.8448 -2.36271e-06C33.7873 -2.36523e-06 33.7306 0.014182 33.6798 0.0413184L27.9598 2.9913C27.9056 3.02136 27.8597 3.06461 27.8265 3.11703C27.7933 3.16946 27.7738 3.22936 27.7698 3.29129C27.755 3.35037 27.755 3.41223 27.7698 3.47131C27.8028 3.52123 27.8474 3.56241 27.8998 3.59131L30.8398 5.23129L32.9498 7.88131L31.4298 8.81131C31.3916 8.83482 31.3584 8.86566 31.3322 8.90207C31.3059 8.93847 31.2872 8.97971 31.2769 9.0234C31.2667 9.0671 31.2653 9.11238 31.2726 9.15664C31.28 9.20091 31.296 9.24328 31.3198 9.28131L31.4898 9.56131L30.1698 10.3713C29.9479 10.5098 29.789 10.7297 29.7273 10.9839C29.6656 11.2382 29.706 11.5065 29.8398 11.7313L31.7298 14.8313C31.8683 15.0533 32.0883 15.2121 32.3425 15.2738C32.5967 15.3355 32.865 15.2951 33.0898 15.1613L34.4099 14.3513L34.5798 14.6313C34.6275 14.7082 34.7031 14.7635 34.7907 14.7859C34.8783 14.8083 34.9712 14.7959 35.0498 14.7513L37.2998 13.3713L45.9698 24.2813L33.0698 33.4613L24.6198 29.9413L20.9998 31.8013L26.6698 38.1113L24.3498 40.8013L26.7198 44.6913L30.1098 43.7613L33.1098 51.6713L36.4198 49.3113L37.1598 40.1813L51.5098 32.7613L56.9598 45.6113L54.6998 46.9913C54.6237 47.0371 54.5685 47.1109 54.5461 47.1968C54.5237 47.2828 54.5358 47.3741 54.5798 47.4513L54.7598 47.7413L53.4298 48.5513C53.2122 48.6912 53.0573 48.91 52.9976 49.1618C52.938 49.4135 52.9782 49.6786 53.1098 49.9013L54.9998 53.0013C55.1382 53.2206 55.3563 53.3776 55.6082 53.4391C55.86 53.5007 56.1259 53.462 56.3498 53.3313L57.6798 52.5313L57.8498 52.8113C57.8733 52.8495 57.9042 52.8827 57.9406 52.9089C57.977 52.9352 58.0182 52.9539 58.0619 52.9642C58.1056 52.9744 58.1509 52.9759 58.1952 52.9685C58.2394 52.9612 58.2818 52.9451 58.3198 52.9213L59.8398 52.0013L61.2298 55.0813L61.3398 58.4513C61.3458 58.5106 61.3628 58.5682 61.3898 58.6213C61.4264 58.6744 61.4742 58.7188 61.5298 58.7513C61.5834 58.7811 61.6436 58.7967 61.7048 58.7967C61.7661 58.7967 61.8263 58.7811 61.8798 58.7513L67.2398 54.9713ZM40.7498 3.97131L43.7498 2.1113C44.1067 1.89306 44.5355 1.82525 44.9423 1.92273C45.3491 2.02021 45.7006 2.27504 45.9198 2.63132L47.1998 4.72131C47.4145 5.08005 47.4793 5.5089 47.3801 5.91504C47.2809 6.32118 47.0257 6.67191 46.6698 6.89129L46.1798 7.19131L43.4398 5.5813L40.7498 3.97131ZM32.8198 14.5813C32.7506 14.6225 32.668 14.6351 32.5896 14.6164C32.5112 14.5978 32.4431 14.5493 32.3998 14.4813L30.5098 11.3713C30.4881 11.3374 30.4734 11.2994 30.4667 11.2597C30.46 11.2199 30.4613 11.1793 30.4706 11.1401C30.48 11.1009 30.4971 11.064 30.521 11.0315C30.5449 10.9991 30.5751 10.9718 30.6098 10.9513L31.9298 10.1413L34.1498 13.7713L32.8198 14.5813ZM35.0798 13.9913L32.1599 9.2113L33.4598 8.42129L36.9698 12.8413L35.0798 13.9913ZM37.7398 12.7213L33.8098 7.72131L31.4298 4.72131C31.4014 4.68625 31.3677 4.65588 31.3298 4.63131L28.8799 3.2713L33.8799 0.691282L42.8799 5.95129L46.0898 7.84131L58.7298 15.2513L46.5898 23.8113L37.7398 12.7213ZM67.0898 40.2913C67.4467 40.0731 67.8755 40.0053 68.2823 40.1028C68.6891 40.2002 69.0406 40.455 69.2598 40.8113L70.5298 42.9013C70.7481 43.2582 70.8159 43.687 70.7184 44.0938C70.6209 44.5006 70.3661 44.8521 70.0098 45.0713L66.9498 46.9313L66.7798 43.7613L66.5998 40.5813L67.0898 40.2913ZM83.9798 3.95129C84.5333 3.89675 85.0909 4.00143 85.5869 4.25299C86.0829 4.50455 86.4968 4.89253 86.7798 5.37131C87.0758 5.83966 87.2328 6.38231 87.2328 6.93631C87.2328 7.49031 87.0758 8.03296 86.7798 8.50131L85.3498 10.7813L85.3498 10.6813C85.3497 10.4202 85.3297 10.1594 85.2898 9.90131C85.2996 9.82495 85.2996 9.74765 85.2898 9.6713C85.2501 9.37747 85.1899 9.08677 85.1098 8.8013L85.1098 8.72131C85.0299 8.45671 84.9364 8.19637 84.8298 7.94131L84.7298 7.73129C84.6099 7.45136 84.4695 7.18063 84.3098 6.9213C84.1498 6.66129 83.9698 6.41129 83.7898 6.17129L83.6398 5.9913C83.4603 5.77845 83.27 5.57486 83.0698 5.38132L83.0198 5.3313C82.7979 5.13077 82.5642 4.94377 82.3198 4.7713L82.1398 4.6413C81.9213 4.49154 81.6943 4.35464 81.4598 4.23129C81.4356 4.21109 81.4087 4.19428 81.3799 4.1813L83.9798 3.95129ZM79.7598 4.29129C81.3901 4.76676 82.7821 5.83755 83.6599 7.29129C84.5425 8.74368 84.8493 10.474 84.5198 12.1413L84.4598 12.4213C84.0395 14.17 82.9426 15.6805 81.4099 16.6213L65.2698 24.9613L51.6398 31.9613L30.5298 42.8813L29.6098 41.3713C32.1098 39.838 34.6098 38.3113 37.1098 36.7913C37.3275 36.6529 37.4833 36.4358 37.5446 36.1853C37.606 35.9348 37.5682 35.6702 37.4391 35.4469C37.31 35.2236 37.0997 35.0589 36.852 34.987C36.6043 34.9151 36.3384 34.9418 36.1098 35.0613L28.5998 39.6313L27.7098 38.1713L59.4698 15.5813L59.5798 15.5113L74.2398 5.00131C75.053 4.50234 75.9622 4.18033 76.9081 4.05627C77.8541 3.93222 78.8155 4.0089 79.7298 4.28131L79.7598 4.29129ZM22.1798 32.0013L24.7398 30.6813L32.3998 33.8713L27.2998 37.6213L27.2998 37.5413L27.2498 37.6013L22.1798 32.0013ZM27.1198 43.9013L25.2698 40.9013L27.1598 38.7113L27.9698 40.0513C27.7404 40.1919 27.5763 40.4178 27.5134 40.6794C27.4506 40.941 27.4943 41.2169 27.6348 41.4463C27.7754 41.6757 28.0014 41.8399 28.263 41.9027C28.5246 41.9655 28.8004 41.9219 29.0298 41.7813L29.8799 43.1713L27.1198 43.9013ZM35.8799 48.9013L33.5398 50.5713L30.8498 43.5713L30.9298 43.5713L30.9298 43.5013L36.5898 40.6813L35.8799 48.9013ZM56.1098 52.7213C56.0394 52.7616 55.9559 52.7727 55.8774 52.7521C55.7988 52.7315 55.7315 52.681 55.6898 52.6113L53.7898 49.5113C53.7683 49.476 53.7541 49.4367 53.748 49.3958C53.7418 49.3549 53.744 49.3132 53.7542 49.2731C53.7645 49.2331 53.7826 49.1954 53.8076 49.1625C53.8327 49.1295 53.864 49.1019 53.8998 49.0813L55.2198 48.2813L57.4398 51.9113L56.1098 52.7213ZM58.3598 52.1313L55.4498 47.3513L57.3398 46.1913L57.5598 46.6713L59.6698 51.3413L58.3598 52.1313ZM62.0198 54.9513L62.0198 54.8313L60.4498 51.3313L57.8398 45.5713L52.2398 32.4613L63.7598 26.4613L65.1198 25.7513L65.9298 40.3913L66.1398 44.0513L66.7098 54.5113L62.1298 57.7713L62.0198 54.9513Z" fill="#999999"/>
<path d="M159.24 95.9713C159.284 95.9366 159.319 95.8926 159.343 95.8423C159.367 95.7921 159.38 95.7371 159.38 95.6813L158.99 88.6813L162.36 86.6213C162.613 86.4684 162.833 86.267 163.008 86.0287C163.183 85.7903 163.308 85.5197 163.378 85.2325C163.448 84.9452 163.46 84.647 163.414 84.3551C163.368 84.0631 163.265 83.7831 163.11 83.5313L161.84 81.4413C161.527 80.9318 161.026 80.5667 160.445 80.4262C159.864 80.2856 159.251 80.381 158.74 80.6913L158.56 80.8013L157.77 66.4213L173.77 58.1713C174.607 57.6614 175.336 56.9906 175.912 56.1976C176.489 55.4046 176.903 54.5052 177.13 53.5513L177.19 53.2813L179.35 49.8513C179.708 49.2749 179.897 48.6098 179.897 47.9313C179.897 47.2528 179.708 46.5877 179.35 46.0113C178.996 45.4291 178.486 44.9576 177.878 44.6501C177.27 44.3426 176.588 44.2114 175.91 44.2713L171.91 44.6213C170.919 44.3386 169.879 44.2656 168.858 44.4067C167.837 44.5479 166.857 44.9003 165.98 45.4413L151.24 55.8513L138.82 48.5713L139 48.4613C139.509 48.1488 139.874 47.6472 140.015 47.0662C140.156 46.4852 140.06 45.8722 139.75 45.3613L138.48 43.2713C138.166 42.7638 137.664 42.4005 137.084 42.2601C136.504 42.1198 135.891 42.2136 135.38 42.5213L132.01 44.5813L126.01 41.0413C125.959 41.0142 125.902 41 125.845 41C125.787 41 125.731 41.0142 125.68 41.0413L119.96 43.9913C119.906 44.0214 119.86 44.0646 119.827 44.117C119.793 44.1695 119.774 44.2294 119.77 44.2913C119.755 44.3504 119.755 44.4122 119.77 44.4713C119.803 44.5212 119.847 44.5624 119.9 44.5913L122.84 46.2313L124.95 48.8813L123.43 49.8113C123.392 49.8348 123.358 49.8657 123.332 49.9021C123.306 49.9385 123.287 49.9797 123.277 50.0234C123.267 50.0671 123.265 50.1124 123.273 50.1566C123.28 50.2009 123.296 50.2433 123.32 50.2813L123.49 50.5613L122.17 51.3713C121.948 51.5098 121.789 51.7297 121.727 51.9839C121.666 52.2382 121.706 52.5065 121.84 52.7313L123.73 55.8313C123.868 56.0533 124.088 56.2121 124.342 56.2738C124.597 56.3355 124.865 56.2951 125.09 56.1613L126.41 55.3513L126.58 55.6313C126.628 55.7082 126.703 55.7635 126.791 55.7859C126.878 55.8083 126.971 55.7959 127.05 55.7513L129.3 54.3713L137.97 65.2813L125.07 74.4613L116.62 70.9413L113 72.8013L118.67 79.1113L116.35 81.8013L118.72 85.6913L122.11 84.7613L125.11 92.6713L128.42 90.3113L129.16 81.1813L143.51 73.7613L148.96 86.6113L146.7 87.9913C146.624 88.0371 146.569 88.1109 146.546 88.1968C146.524 88.2828 146.536 88.3741 146.58 88.4513L146.76 88.7413L145.43 89.5513C145.212 89.6912 145.057 89.91 144.998 90.1618C144.938 90.4135 144.978 90.6786 145.11 90.9013L147 94.0013C147.138 94.2206 147.356 94.3776 147.608 94.4391C147.86 94.5007 148.126 94.462 148.35 94.3313L149.68 93.5313L149.85 93.8113C149.873 93.8495 149.904 93.8827 149.941 93.9089C149.977 93.9352 150.018 93.9539 150.062 93.9642C150.106 93.9744 150.151 93.9759 150.195 93.9685C150.239 93.9612 150.282 93.9451 150.32 93.9213L151.84 93.0013L153.23 96.0813L153.34 99.4513C153.346 99.5106 153.363 99.5682 153.39 99.6213C153.426 99.6744 153.474 99.7188 153.53 99.7513C153.583 99.7811 153.644 99.7967 153.705 99.7967C153.766 99.7967 153.826 99.7811 153.88 99.7513L159.24 95.9713ZM132.75 44.9713L135.75 43.1113C136.107 42.8931 136.536 42.8252 136.942 42.9227C137.349 43.0202 137.701 43.275 137.92 43.6313L139.2 45.7213C139.415 46.0801 139.479 46.5089 139.38 46.915C139.281 47.3212 139.026 47.6719 138.67 47.8913L138.18 48.1913L135.44 46.5813L132.75 44.9713ZM124.82 55.5813C124.751 55.6225 124.668 55.6351 124.59 55.6164C124.511 55.5978 124.443 55.5493 124.4 55.4813L122.51 52.3713C122.488 52.3374 122.473 52.2994 122.467 52.2597C122.46 52.2199 122.461 52.1793 122.471 52.1401C122.48 52.1009 122.497 52.064 122.521 52.0315C122.545 51.9991 122.575 51.9718 122.61 51.9513L123.93 51.1413L126.15 54.7713L124.82 55.5813ZM127.08 54.9913L124.16 50.2113L125.46 49.4213L128.97 53.8413L127.08 54.9913ZM129.74 53.7213L125.81 48.7213L123.43 45.7213C123.401 45.6863 123.368 45.6559 123.33 45.6313L120.88 44.2713L125.88 41.6913L134.88 46.9513L138.09 48.8413L150.73 56.2513L138.59 64.8113L129.74 53.7213ZM159.09 81.2913C159.447 81.0731 159.876 81.0053 160.282 81.1028C160.689 81.2002 161.041 81.455 161.26 81.8113L162.53 83.9013C162.748 84.2582 162.816 84.687 162.718 85.0938C162.621 85.5006 162.366 85.8521 162.01 86.0713L158.95 87.9313L158.78 84.7613L158.6 81.5813L159.09 81.2913ZM175.98 44.9513C176.533 44.8968 177.091 45.0014 177.587 45.253C178.083 45.5045 178.497 45.8925 178.78 46.3713C179.076 46.8397 179.233 47.3823 179.233 47.9363C179.233 48.4903 179.076 49.033 178.78 49.5013L177.35 51.7813L177.35 51.6813C177.35 51.4202 177.33 51.1594 177.29 50.9013C177.3 50.8249 177.3 50.7477 177.29 50.6713C177.25 50.3775 177.19 50.0868 177.11 49.8013L177.11 49.7213C177.03 49.4567 176.936 49.1964 176.83 48.9413L176.73 48.7313C176.61 48.4514 176.47 48.1806 176.31 47.9213C176.15 47.6613 175.97 47.4113 175.79 47.1713L175.64 46.9913C175.46 46.7784 175.27 46.5749 175.07 46.3813L175.02 46.3313C174.798 46.1308 174.564 45.9438 174.32 45.7713L174.14 45.6413C173.921 45.4915 173.694 45.3546 173.46 45.2313C173.436 45.2111 173.409 45.1943 173.38 45.1813L175.98 44.9513ZM171.76 45.2913C173.39 45.7668 174.782 46.8375 175.66 48.2913C176.543 49.7437 176.849 51.474 176.52 53.1413L176.46 53.4213C176.04 55.17 174.943 56.6805 173.41 57.6213L157.27 65.9613L143.64 72.9613L122.53 83.8813L121.61 82.3713C124.11 80.838 126.61 79.3113 129.11 77.7913C129.327 77.6529 129.483 77.4358 129.545 77.1853C129.606 76.9348 129.568 76.6702 129.439 76.4469C129.31 76.2236 129.1 76.0589 128.852 75.987C128.604 75.9151 128.338 75.9418 128.11 76.0613L120.6 80.6313L119.71 79.1713L151.47 56.5813L151.58 56.5113L166.24 46.0013C167.053 45.5023 167.962 45.1803 168.908 45.0563C169.854 44.9322 170.816 45.0089 171.73 45.2813L171.76 45.2913ZM114.18 73.0013L116.74 71.6813L124.4 74.8713L119.3 78.6213L119.3 78.5413L119.25 78.6013L114.18 73.0013ZM119.12 84.9013L117.27 81.9013L119.16 79.7113L119.97 81.0513C119.74 81.1919 119.576 81.4178 119.513 81.6794C119.451 81.941 119.494 82.2169 119.635 82.4463C119.775 82.6757 120.001 82.8399 120.263 82.9027C120.525 82.9655 120.8 82.9219 121.03 82.7813L121.88 84.1713L119.12 84.9013ZM127.88 89.9013L125.54 91.5713L122.85 84.5713L122.93 84.5713L122.93 84.5013L128.59 81.6813L127.88 89.9013ZM148.11 93.7213C148.039 93.7616 147.956 93.7727 147.877 93.7521C147.799 93.7315 147.732 93.681 147.69 93.6113L145.79 90.5113C145.768 90.476 145.754 90.4367 145.748 90.3958C145.742 90.3549 145.744 90.3132 145.754 90.2731C145.764 90.2331 145.783 90.1954 145.808 90.1625C145.833 90.1295 145.864 90.1019 145.9 90.0813L147.22 89.2813L149.44 92.9113L148.11 93.7213ZM150.36 93.1313L147.45 88.3513L149.34 87.1913L149.56 87.6713L151.67 92.3413L150.36 93.1313ZM154.02 95.9513L154.02 95.8313L152.45 92.3313L149.84 86.5713L144.24 73.4613L155.76 67.4613L157.12 66.7513L157.93 81.3913L158.14 85.0513L158.71 95.5113L154.13 98.7713L154.02 95.9513Z" fill="#999999"/>
<path d="M10.0144 91.2901L9.80994 90.527C9.79882 90.4856 9.79614 90.4424 9.80205 90.3999C9.80796 90.3575 9.82235 90.3166 9.84436 90.2798C9.86637 90.243 9.89555 90.211 9.93016 90.1857C9.96478 90.1604 10.0041 90.1423 10.0459 90.1325C10.0873 90.1214 10.1305 90.1187 10.173 90.1247C10.2154 90.1306 10.2563 90.1449 10.2931 90.1669C10.3299 90.1889 10.3619 90.2181 10.3872 90.2527C10.4125 90.2874 10.4306 90.3267 10.4404 90.3685C10.6086 90.9963 10.7743 91.6145 10.9373 92.223C10.9622 92.3053 10.954 92.394 10.9146 92.4703C10.8751 92.5466 10.8074 92.6045 10.7259 92.6317C10.6421 92.6543 10.5528 92.644 10.4763 92.6029C10.3998 92.5618 10.342 92.493 10.3146 92.4106L10.0144 91.2901ZM9.41736 88.6755C9.24912 88.0477 9.18715 87.3914 9.09619 86.7428C9.09005 86.7008 9.09232 86.658 9.10287 86.6169C9.11343 86.5758 9.13206 86.5372 9.15768 86.5034C9.18329 86.4695 9.21539 86.4411 9.25209 86.4198C9.28879 86.3985 9.32937 86.3847 9.37146 86.3792C9.41345 86.373 9.45625 86.3753 9.49736 86.3859C9.53847 86.3964 9.57707 86.4151 9.61091 86.4407C9.64475 86.4663 9.67316 86.4984 9.69448 86.5351C9.7158 86.5718 9.7296 86.6124 9.73509 86.6544C9.82345 87.2933 9.93115 87.9271 10.0556 88.5459C10.0704 88.6308 10.0514 88.7181 10.0028 88.7892C9.95412 88.8602 9.8796 88.9095 9.79514 88.9263C9.75386 88.9348 9.71132 88.9349 9.66997 88.9269C9.62862 88.9188 9.58927 88.9027 9.55417 88.8794C9.51908 88.8561 9.48893 88.8261 9.46545 88.7911C9.44197 88.7561 9.42562 88.7168 9.41736 88.6755ZM10.9211 94.2876C10.8996 94.2095 10.9075 94.1262 10.9434 94.0536C10.9793 93.9809 11.0407 93.9241 11.1158 93.8938C11.1974 93.8661 11.2865 93.8715 11.3642 93.9087C11.4419 93.946 11.5019 94.0121 11.5315 94.093C11.7118 94.5727 11.8966 95.0304 12.1085 95.512L12.2551 95.8661C12.2729 95.9049 12.2827 95.9469 12.284 95.9896C12.2853 96.0322 12.278 96.0747 12.2626 96.1145C12.2472 96.1543 12.2241 96.1907 12.1944 96.2214C12.1648 96.2521 12.1293 96.2766 12.0901 96.2934C12.0124 96.326 11.925 96.3268 11.8468 96.2954C11.7686 96.264 11.706 96.2031 11.6725 96.1258L11.5162 95.7742C11.3069 95.3023 11.1221 94.8445 10.9289 94.3166L10.9211 94.2876ZM8.8266 84.848L8.81365 84.7997C8.75685 84.1627 8.70454 83.5038 8.67412 82.8494C8.67131 82.7648 8.70111 82.6823 8.75739 82.6191C8.81367 82.5558 8.89209 82.5166 8.97646 82.5096C9.01966 82.5065 9.06304 82.5123 9.10396 82.5265C9.14488 82.5407 9.18247 82.5631 9.21449 82.5922C9.24651 82.6214 9.27227 82.6568 9.29022 82.6962C9.30816 82.7356 9.31791 82.7783 9.31888 82.8216C9.35637 83.4637 9.39385 84.1059 9.46032 84.7404C9.46778 84.8248 9.44144 84.9088 9.38705 84.9738C9.33266 85.0389 9.25466 85.0796 9.17022 85.0872C9.10015 85.0834 9.03329 85.0566 8.97993 85.0111C8.92657 84.9655 8.88966 84.9037 8.87489 84.8351L8.8266 84.848ZM12.4797 97.8247C12.4616 97.7532 12.4687 97.6777 12.4998 97.6109C12.531 97.5441 12.5842 97.4901 12.6506 97.458C12.688 97.4374 12.7293 97.4247 12.7718 97.4208C12.8143 97.4169 12.8572 97.4218 12.8977 97.4353C12.9383 97.4487 12.9756 97.4704 13.0074 97.4989C13.0391 97.5274 13.0647 97.5622 13.0824 97.6011C13.3658 98.1567 13.6737 98.7264 14.001 99.2909C14.0217 99.3275 14.035 99.3679 14.0401 99.4096C14.0452 99.4513 14.0421 99.4937 14.0308 99.5342C14.0195 99.5747 14.0004 99.6126 13.9745 99.6457C13.9486 99.6788 13.9164 99.7065 13.8798 99.7272C13.8047 99.7696 13.716 99.7809 13.6327 99.7587C13.5493 99.7366 13.478 99.6826 13.4339 99.6085C13.1066 99.044 12.7961 98.4646 12.5075 97.8897L12.4797 97.8247ZM8.62808 80.9775L8.60738 80.9003C8.61112 80.2574 8.61226 79.6049 8.64239 78.9446C8.64594 78.86 8.68287 78.7802 8.7451 78.7228C8.80733 78.6653 8.88978 78.6349 8.9744 78.6382C9.01672 78.6386 9.05853 78.6476 9.09723 78.6648C9.13592 78.6819 9.17068 78.7068 9.19938 78.7379C9.22809 78.769 9.25012 78.8057 9.26412 78.8456C9.27812 78.8856 9.28379 78.928 9.28078 78.9702C9.26738 79.6157 9.25398 80.2611 9.25731 80.8917C9.25911 80.9341 9.2522 80.9765 9.23697 81.0161C9.22174 81.0557 9.19856 81.0918 9.16882 81.1221C9.13908 81.1524 9.10344 81.1763 9.0641 81.1922C9.02477 81.2082 8.98256 81.2159 8.94013 81.2149C8.87541 81.2062 8.81507 81.1774 8.76771 81.1325C8.72035 81.0875 8.68837 81.0288 8.67637 80.9646L8.62808 80.9775ZM14.4013 101.171C14.3843 101.104 14.3889 101.033 14.4144 100.969C14.4398 100.905 14.4849 100.85 14.5433 100.812C14.6149 100.767 14.7015 100.752 14.7842 100.771C14.8668 100.79 14.9386 100.84 14.984 100.912C15.3254 101.452 15.6861 101.987 16.0636 102.507C16.1105 102.578 16.1289 102.664 16.115 102.749C16.1012 102.833 16.0561 102.909 15.9888 102.962C15.9168 103.011 15.8283 103.029 15.7426 103.014C15.6569 102.998 15.581 102.949 15.5313 102.877C15.1539 102.357 14.788 101.803 14.4466 101.263L14.4013 101.171ZM8.76643 77.0892L8.73796 76.983C8.79259 76.3368 8.85686 75.6881 8.93339 75.0464C8.93802 75.0041 8.95103 74.9632 8.97167 74.926C8.99232 74.8888 9.02017 74.856 9.05361 74.8297C9.08705 74.8034 9.1254 74.784 9.16641 74.7727C9.20743 74.7614 9.2503 74.7584 9.2925 74.7639C9.3348 74.7685 9.37574 74.7815 9.41294 74.8021C9.45015 74.8228 9.48286 74.8506 9.50917 74.884C9.53548 74.9175 9.55486 74.9558 9.56617 74.9969C9.57749 75.0379 9.58052 75.0807 9.57506 75.1229C9.49594 75.755 9.42907 76.394 9.38411 77.0376C9.37641 77.1219 9.33556 77.1998 9.27054 77.2541C9.20552 77.3084 9.12163 77.3347 9.03725 77.3272C8.9835 77.3118 8.93492 77.2822 8.89665 77.2414C8.85839 77.2006 8.83185 77.1502 8.81989 77.0956L8.76643 77.0892ZM16.6449 104.328C16.6296 104.268 16.6313 104.204 16.65 104.144C16.6687 104.084 16.7036 104.031 16.7507 103.989C16.7858 103.948 16.8304 103.916 16.8807 103.896C16.931 103.876 16.9855 103.869 17.0392 103.875C17.093 103.881 17.1445 103.9 17.1891 103.931C17.2337 103.961 17.2701 104.003 17.2951 104.051C17.6867 104.546 18.0906 105.049 18.5111 105.536C18.539 105.568 18.5603 105.605 18.5737 105.646C18.5871 105.686 18.5924 105.728 18.5892 105.771C18.5861 105.813 18.5746 105.854 18.5555 105.892C18.5363 105.93 18.5098 105.963 18.4775 105.991C18.412 106.044 18.3283 106.071 18.2437 106.065C18.1592 106.058 18.0803 106.02 18.0234 105.957C17.6002 105.46 17.1841 104.95 16.7803 104.447L16.6449 104.328ZM9.23527 73.2366C9.21501 73.1977 9.20353 73.1548 9.20162 73.111C9.30971 72.4713 9.42747 71.8289 9.55748 71.1936C9.56513 71.1519 9.58098 71.1122 9.60411 71.0767C9.62724 71.0412 9.65718 71.0107 9.69221 70.9868C9.72723 70.963 9.76664 70.9464 9.80815 70.9379C9.84966 70.9294 9.89244 70.9292 9.934 70.9374C10.0194 70.9546 10.0945 71.0049 10.1429 71.0772C10.1914 71.1496 10.2093 71.2381 10.1928 71.3236C10.0602 71.9492 9.93984 72.5819 9.83881 73.2095C9.83303 73.2512 9.81908 73.2913 9.79776 73.3276C9.77645 73.3639 9.74819 73.3956 9.71459 73.421C9.68099 73.4463 9.64271 73.4648 9.60197 73.4753C9.56122 73.4859 9.5188 73.4883 9.47712 73.4824C9.4288 73.4606 9.38645 73.4274 9.35366 73.3857C9.32087 73.3441 9.2986 73.2951 9.28875 73.243L9.23527 73.2366ZM19.1806 107.262C19.1654 107.207 19.165 107.15 19.1794 107.095C19.1939 107.04 19.2226 106.99 19.2626 106.95C19.2932 106.92 19.3295 106.897 19.3693 106.881C19.4091 106.865 19.4517 106.858 19.4944 106.859C19.5372 106.86 19.5793 106.87 19.6183 106.887C19.6572 106.905 19.6923 106.93 19.7213 106.962C20.1657 107.422 20.6197 107.881 21.1169 108.306C21.1768 108.368 21.2111 108.45 21.213 108.536C21.2149 108.622 21.1842 108.705 21.1271 108.77C21.0978 108.8 21.0629 108.824 21.0243 108.841C20.9856 108.858 20.9441 108.867 20.9019 108.868C20.8598 108.868 20.8179 108.861 20.7787 108.845C20.7396 108.83 20.7038 108.807 20.6736 108.777C20.2028 108.334 19.7462 107.866 19.2677 107.394C19.2367 107.36 19.2122 107.321 19.1954 107.279L19.1806 107.262ZM10.0108 69.4468C9.98278 69.4001 9.96843 69.3466 9.96939 69.2922C10.131 68.6588 10.2951 68.0351 10.4979 67.401C10.5249 67.3194 10.5819 67.251 10.6572 67.2097C10.7326 67.1684 10.8208 67.1572 10.9041 67.1783C10.9857 67.2053 11.054 67.2622 11.0954 67.3376C11.1367 67.4129 11.1479 67.5011 11.1268 67.5844C10.9408 68.2037 10.774 68.8178 10.5905 69.4467C10.5811 69.4884 10.5634 69.5278 10.5385 69.5626C10.5136 69.5973 10.4819 69.6268 10.4454 69.6491C10.409 69.6714 10.3684 69.6862 10.3261 69.6926C10.2838 69.6989 10.2406 69.6967 10.1992 69.6862C10.1655 69.6558 10.1386 69.6187 10.1203 69.5771C10.1021 69.5356 10.0928 69.4907 10.0933 69.4454L10.0108 69.4468ZM21.9691 109.942C21.9562 109.889 21.9563 109.835 21.9694 109.782C21.9825 109.73 22.0081 109.682 22.0441 109.642C22.103 109.581 22.1826 109.544 22.2674 109.538C22.3521 109.533 22.4358 109.559 22.5021 109.612C22.9773 110.034 23.4815 110.447 23.9806 110.842C24.0453 110.896 24.0865 110.974 24.0956 111.058C24.1047 111.143 24.081 111.227 24.0294 111.294C24.0038 111.328 23.9718 111.356 23.9353 111.377C23.8987 111.398 23.8584 111.412 23.8165 111.417C23.7747 111.423 23.7322 111.42 23.6914 111.409C23.6507 111.398 23.6126 111.379 23.5792 111.353C23.0679 110.952 22.5611 110.528 22.0736 110.1C22.03 110.063 21.9987 110.014 21.9839 109.958L21.9691 109.942ZM11.151 65.7041C11.1356 65.6413 11.1395 65.5753 11.1624 65.5147C11.3703 64.9 11.6002 64.2897 11.8327 63.689C11.8474 63.648 11.8703 63.6104 11.9 63.5786C11.9297 63.5467 11.9656 63.5213 12.0055 63.5038C12.0455 63.4863 12.0885 63.4772 12.1321 63.477C12.1756 63.4767 12.2188 63.4853 12.2589 63.5024C12.2979 63.5183 12.3335 63.5418 12.3634 63.5716C12.3933 63.6013 12.4171 63.6367 12.4333 63.6756C12.4495 63.7146 12.4579 63.7564 12.4579 63.7986C12.4579 63.8408 12.4495 63.8825 12.4333 63.9215C12.2008 64.5221 11.9677 65.0815 11.7797 65.7324C11.7491 65.8118 11.6889 65.8764 11.6117 65.9125C11.5346 65.9486 11.4464 65.9535 11.3658 65.9261C11.3184 65.9105 11.2755 65.8837 11.2407 65.848C11.2058 65.8122 11.1802 65.7686 11.1658 65.7209L11.151 65.7041ZM25.0633 112.332C25.0515 112.286 25.05 112.237 25.0589 112.19C25.0677 112.143 25.0867 112.099 25.1145 112.06C25.1394 112.026 25.1707 111.997 25.2067 111.975C25.2427 111.954 25.2826 111.939 25.3242 111.933C25.3657 111.926 25.4081 111.928 25.449 111.938C25.4898 111.949 25.5282 111.967 25.5621 111.991C26.0727 112.352 26.6226 112.743 27.1544 113.066C27.2282 113.11 27.2819 113.181 27.3041 113.264C27.3264 113.347 27.3154 113.435 27.2735 113.51C27.2527 113.548 27.2245 113.581 27.1907 113.607C27.1568 113.634 27.118 113.653 27.0766 113.664C27.0351 113.675 26.9919 113.678 26.9494 113.672C26.9068 113.666 26.866 113.651 26.8292 113.629C26.2799 113.28 25.73 112.889 25.2123 112.541C25.1733 112.517 25.1397 112.485 25.1136 112.448C25.0875 112.41 25.0695 112.367 25.0607 112.323L25.0633 112.332ZM12.5748 62.0926C12.5551 62.0225 12.5607 61.9476 12.5906 61.8812C12.8546 61.2825 13.1432 60.6979 13.422 60.1159C13.4429 60.0784 13.4711 60.0455 13.5049 60.0191C13.5387 59.9927 13.5775 59.9733 13.619 59.9622C13.6604 59.9511 13.7037 59.9484 13.7462 59.9544C13.7887 59.9604 13.8296 59.9748 13.8664 59.9969C13.9391 60.0394 13.9921 60.1089 14.0139 60.1903C14.0357 60.2716 14.0245 60.3583 13.9828 60.4315C13.7014 61.0039 13.4303 61.6149 13.1585 62.1846C13.1159 62.2573 13.0465 62.3104 12.9651 62.3322C12.8837 62.354 12.797 62.3428 12.7238 62.3011C12.6882 62.281 12.6571 62.2539 12.6323 62.2213C12.6076 62.1888 12.5898 62.1515 12.5799 62.1119L12.5748 62.0926ZM28.3613 114.44C28.3444 114.356 28.3575 114.268 28.3984 114.192C28.4441 114.12 28.5151 114.068 28.5973 114.046C28.6796 114.024 28.7672 114.034 28.8427 114.073C29.3938 114.392 29.9643 114.705 30.5296 114.998C30.6023 115.041 30.6553 115.11 30.6771 115.192C30.6989 115.273 30.6877 115.36 30.646 115.433C30.6018 115.504 30.5323 115.555 30.4516 115.577C30.371 115.598 30.2851 115.589 30.2114 115.549C29.6242 115.251 29.0151 114.949 28.4903 114.613C28.4298 114.571 28.3845 114.51 28.3613 114.44ZM14.3504 58.6352C14.3294 58.5527 14.3392 58.4655 14.3778 58.3897C14.7005 57.8167 15.0354 57.2507 15.3755 56.704C15.4195 56.6303 15.4906 56.5766 15.5736 56.5543C15.6565 56.5321 15.7449 56.5431 15.8199 56.585C15.8926 56.6275 15.9456 56.697 15.9674 56.7784C15.9892 56.8598 15.9781 56.9465 15.9363 57.0197C15.6059 57.5637 15.278 58.1175 14.9624 58.6783C14.9184 58.752 14.8474 58.8057 14.7644 58.828C14.6815 58.8502 14.5931 58.8392 14.5181 58.7973C14.4746 58.7888 14.4336 58.7708 14.3979 58.7446C14.3623 58.7183 14.3328 58.6845 14.3118 58.6455L14.3504 58.6352ZM31.8451 116.199C31.8239 116.126 31.8286 116.048 31.8583 115.978C31.9023 115.904 31.9734 115.85 32.0563 115.828C32.1393 115.806 32.2277 115.817 32.3027 115.859C32.8795 116.118 33.4757 116.373 34.0737 116.595C34.152 116.628 34.2148 116.689 34.2491 116.767C34.2834 116.844 34.2865 116.932 34.2578 117.012C34.2439 117.052 34.2218 117.09 34.1929 117.121C34.164 117.153 34.1289 117.178 34.0898 117.195C34.0506 117.212 34.0084 117.221 33.9656 117.222C33.9228 117.222 33.8805 117.213 33.8412 117.196C33.2309 116.966 32.6734 116.701 32.036 116.448C31.9758 116.437 31.9196 116.41 31.874 116.369C31.8283 116.328 31.7949 116.275 31.7775 116.217L31.8451 116.199ZM16.4368 55.3327C16.4218 55.2876 16.4178 55.2396 16.425 55.1927C16.4323 55.1458 16.4505 55.1012 16.4783 55.0627C16.8526 54.5276 17.2294 54.0022 17.6282 53.4812C17.6538 53.4477 17.6858 53.4196 17.7224 53.3985C17.7589 53.3774 17.7993 53.3638 17.8411 53.3583C17.8829 53.3529 17.9254 53.3558 17.9662 53.3668C18.0069 53.3779 18.045 53.3968 18.0784 53.4227C18.147 53.4759 18.1919 53.554 18.2034 53.6401C18.2148 53.7262 18.1918 53.8133 18.1395 53.8826C17.7549 54.379 17.378 54.9045 17.0108 55.4273C16.9668 55.5011 16.8958 55.5548 16.8128 55.577C16.7299 55.5992 16.6415 55.5882 16.5665 55.5464C16.522 55.529 16.4815 55.5026 16.4476 55.469C16.4136 55.4354 16.387 55.3951 16.3692 55.3508L16.4368 55.3327ZM35.4585 117.591C35.4392 117.533 35.4407 117.47 35.4628 117.414C35.4897 117.332 35.5475 117.264 35.6239 117.224C35.7002 117.184 35.7891 117.176 35.8716 117.201C36.4741 117.402 37.0934 117.588 37.7049 117.745C37.746 117.755 37.7847 117.774 37.8185 117.799C37.8524 117.825 37.8809 117.857 37.9023 117.894C37.9237 117.93 37.9375 117.971 37.9431 118.013C37.9487 118.055 37.9458 118.098 37.9347 118.139C37.9112 118.22 37.8572 118.29 37.7838 118.333C37.7104 118.375 37.6234 118.388 37.5407 118.368C36.9144 118.195 36.2855 118.011 35.6688 117.835C35.6095 117.823 35.5547 117.795 35.5106 117.754C35.4666 117.713 35.4351 117.66 35.4199 117.601L35.4585 117.591ZM18.7914 52.2585C18.7767 52.2074 18.7751 52.1536 18.7865 52.1017C18.7979 52.0499 18.822 52.0017 18.8567 51.9615C19.2729 51.4669 19.7109 50.9768 20.1542 50.506C20.2118 50.4442 20.2916 50.4077 20.3761 50.4044C20.4606 50.4012 20.5429 50.4315 20.6051 50.4888C20.6679 50.5478 20.7051 50.6289 20.7088 50.715C20.7125 50.801 20.6824 50.8851 20.625 50.9493C20.1888 51.4078 19.7604 51.8953 19.3416 52.3802C19.3145 52.4131 19.2812 52.4402 19.2435 52.46C19.2058 52.4798 19.1646 52.4918 19.1222 52.4955C19.0797 52.4991 19.037 52.4943 18.9965 52.4812C18.956 52.4682 18.9185 52.4472 18.8862 52.4194C18.8203 52.3872 18.7641 52.3379 18.7237 52.2766L18.7914 52.2585ZM39.1965 118.598C39.1706 118.554 39.1572 118.504 39.1577 118.453C39.1753 118.37 39.2251 118.297 39.2962 118.251C39.3673 118.205 39.4538 118.189 39.5368 118.206C40.1721 118.336 40.8048 118.457 41.4297 118.548C41.4714 118.554 41.5115 118.568 41.5475 118.589C41.5836 118.611 41.6149 118.64 41.6395 118.674C41.6642 118.708 41.6816 118.746 41.6908 118.787C41.7 118.829 41.7007 118.871 41.693 118.912C41.6872 118.954 41.6732 118.994 41.6519 119.03C41.6306 119.067 41.6024 119.098 41.5688 119.124C41.5352 119.149 41.4969 119.168 41.4561 119.178C41.4154 119.189 41.373 119.191 41.3313 119.185C40.6941 119.087 40.0517 118.969 39.4068 118.842C39.3436 118.835 39.2838 118.81 39.2345 118.77C39.1853 118.73 39.1486 118.676 39.1289 118.616L39.1965 118.598ZM21.4387 49.4268C21.4245 49.3722 21.4246 49.3148 21.439 49.2602C21.4534 49.2056 21.4815 49.1556 21.5208 49.115C21.9952 48.6704 22.4778 48.2305 22.9685 47.7953C23.0004 47.7674 23.0375 47.7461 23.0777 47.7327C23.1179 47.7193 23.1604 47.7141 23.2026 47.7172C23.2449 47.7203 23.2861 47.7318 23.3238 47.751C23.3616 47.7701 23.3952 47.7967 23.4227 47.8289C23.4506 47.8608 23.4718 47.8979 23.4852 47.9381C23.4986 47.9783 23.5039 48.0208 23.5008 48.063C23.4977 48.1053 23.4862 48.1465 23.467 48.1842C23.4478 48.222 23.4214 48.2556 23.3891 48.2831C22.911 48.7011 22.4284 49.1409 21.9774 49.5827C21.9468 49.6126 21.9105 49.6361 21.8707 49.6517C21.8309 49.6674 21.7883 49.6748 21.7456 49.6738C21.7028 49.6727 21.6607 49.663 21.6218 49.6454C21.5828 49.6277 21.5477 49.6024 21.5187 49.571C21.4565 49.5472 21.4043 49.5027 21.3711 49.445L21.4387 49.4268ZM43.0371 119.215L43.0086 119.108C43.0181 119.023 43.0607 118.944 43.1274 118.89C43.194 118.835 43.2793 118.809 43.3651 118.816C43.8438 118.864 44.3295 118.899 44.8101 118.916L45.281 118.934C45.3656 118.938 45.4453 118.975 45.5027 119.037C45.5602 119.099 45.5906 119.182 45.5873 119.266C45.5868 119.309 45.5779 119.351 45.5609 119.39C45.544 119.429 45.5196 119.464 45.4889 119.494C45.4582 119.523 45.422 119.546 45.3823 119.561C45.3427 119.577 45.3004 119.584 45.2579 119.582L44.787 119.564C44.2845 119.543 43.7988 119.508 43.3008 119.465C43.2193 119.467 43.1397 119.44 43.0765 119.389C43.0133 119.337 42.9707 119.265 42.9565 119.185L43.0371 119.215ZM46.9131 119.346L46.8924 119.269C46.8916 119.183 46.9239 119.101 46.9826 119.039C47.0413 118.977 47.1217 118.94 47.207 118.936C47.835 118.923 48.4798 118.895 49.129 118.845C49.1706 118.842 49.2124 118.846 49.2521 118.859C49.2917 118.872 49.3284 118.893 49.3599 118.92C49.3914 118.947 49.417 118.981 49.4353 119.018C49.4536 119.056 49.4641 119.096 49.4663 119.138C49.4738 119.223 49.4474 119.307 49.393 119.372C49.3386 119.437 49.2606 119.477 49.1762 119.485C48.5173 119.537 47.8629 119.568 47.2252 119.583C47.1817 119.592 47.137 119.593 47.0935 119.584C47.05 119.575 47.0087 119.558 46.972 119.533C46.9354 119.508 46.9041 119.476 46.8802 119.439C46.8562 119.401 46.84 119.36 46.8326 119.316L46.9131 119.346ZM50.7796 119.055L50.7667 119.007C50.7571 118.923 50.7809 118.839 50.8329 118.773C50.8849 118.707 50.961 118.664 51.0445 118.653C51.7109 118.564 52.3498 118.476 52.9612 118.388C53.0025 118.381 53.0448 118.382 53.0856 118.392C53.1264 118.401 53.1648 118.419 53.1985 118.444C53.2323 118.468 53.2606 118.5 53.2819 118.536C53.3032 118.572 53.3169 118.612 53.3223 118.654C53.3295 118.695 53.3285 118.738 53.3192 118.779C53.3099 118.82 53.2925 118.859 53.268 118.894C53.2436 118.928 53.2125 118.958 53.1767 118.98C53.1409 119.002 53.101 119.017 53.0593 119.024C52.4133 119.125 51.7744 119.213 51.1232 119.295C51.0777 119.313 51.0285 119.32 50.9796 119.315C50.9308 119.311 50.8837 119.295 50.8423 119.268C50.8009 119.242 50.7663 119.206 50.7414 119.164C50.7165 119.122 50.702 119.074 50.6991 119.025L50.7796 119.055ZM54.6046 118.455C54.5973 118.413 54.5984 118.371 54.6077 118.329C54.617 118.288 54.6344 118.249 54.6588 118.215C54.6833 118.18 54.7143 118.151 54.7501 118.129C54.786 118.106 54.8259 118.091 54.8676 118.084C55.4858 117.919 56.1247 117.83 56.7506 117.694C56.7924 117.684 56.8357 117.682 56.8781 117.689C56.9204 117.697 56.9608 117.712 56.997 117.736C57.0331 117.759 57.0642 117.789 57.0885 117.824C57.1127 117.86 57.1296 117.9 57.1381 117.942C57.148 117.984 57.1493 118.027 57.1421 118.069C57.1349 118.112 57.1193 118.152 57.0961 118.188C57.073 118.224 57.0428 118.255 57.0073 118.28C56.9719 118.304 56.932 118.321 56.8899 118.329C56.262 118.497 55.6161 118.598 54.9849 118.715C54.9359 118.739 54.8815 118.751 54.827 118.748C54.7724 118.745 54.7195 118.728 54.6733 118.699C54.6271 118.67 54.5891 118.629 54.563 118.581C54.5369 118.533 54.5234 118.479 54.524 118.425L54.6046 118.455ZM58.3919 117.637C58.3808 117.596 58.3783 117.553 58.3844 117.511C58.3906 117.469 58.4053 117.429 58.4276 117.393C58.45 117.357 58.4795 117.325 58.5144 117.301C58.5493 117.277 58.5888 117.26 58.6304 117.252C59.2582 117.084 59.8764 116.918 60.4946 116.752C60.5766 116.731 60.6639 116.742 60.7374 116.784C60.811 116.827 60.8646 116.897 60.8865 116.979C60.8962 117.02 60.8976 117.062 60.8909 117.104C60.8841 117.145 60.8692 117.185 60.847 117.221C60.8249 117.256 60.7959 117.287 60.7618 117.312C60.7276 117.336 60.689 117.354 60.648 117.364C60.0298 117.529 59.402 117.697 58.7741 117.866C58.7274 117.889 58.6755 117.901 58.6232 117.9C58.5708 117.899 58.5196 117.885 58.4739 117.859C58.4282 117.834 58.3895 117.797 58.3612 117.753C58.3328 117.709 58.3157 117.659 58.3113 117.607L58.3919 117.637ZM62.1552 116.691C62.1333 116.609 62.1432 116.523 62.183 116.449C62.2228 116.374 62.2894 116.318 62.3692 116.292C62.9584 116.134 63.5766 115.968 64.1979 115.698C64.2795 115.67 64.3686 115.676 64.4463 115.713C64.524 115.75 64.584 115.816 64.6136 115.897C64.6387 115.979 64.6321 116.067 64.5952 116.144C64.5583 116.221 64.4938 116.281 64.4144 116.313C63.7731 116.547 63.1434 116.747 62.5085 116.927C62.4265 116.949 62.3391 116.938 62.2656 116.895C62.1921 116.853 62.1385 116.783 62.1166 116.701L62.1552 116.691ZM65.8008 115.382C65.78 115.307 65.7875 115.226 65.8221 115.156C65.8567 115.086 65.9159 115.03 65.9885 115.001C66.5641 114.753 67.1467 114.494 67.7435 114.21C67.8215 114.174 67.9106 114.169 67.9917 114.198C68.0729 114.226 68.1396 114.285 68.1778 114.362C68.214 114.441 68.2182 114.53 68.1897 114.611C68.1612 114.692 68.1021 114.759 68.0251 114.797C67.4186 115.084 66.8263 115.346 66.241 115.596C66.1608 115.629 66.0707 115.629 65.9902 115.597C65.9098 115.564 65.8454 115.501 65.8112 115.421L65.8008 115.382ZM69.3121 113.727C69.2919 113.656 69.2981 113.579 69.3295 113.512C69.3608 113.445 69.4153 113.391 69.483 113.361C70.036 113.067 70.6057 112.759 71.1728 112.442C71.2493 112.399 71.3395 112.389 71.4236 112.413C71.5077 112.437 71.5788 112.494 71.6213 112.57C71.6605 112.646 71.6688 112.734 71.6444 112.816C71.62 112.898 71.5648 112.967 71.4904 113.009C70.9136 113.329 70.3439 113.637 69.7716 113.935C69.695 113.972 69.6075 113.977 69.5271 113.95C69.4468 113.923 69.3797 113.867 69.3399 113.792L69.3121 113.727ZM72.6981 111.836C72.6814 111.768 72.6871 111.696 72.7144 111.631C72.7417 111.566 72.7891 111.511 72.8497 111.475C73.3949 111.153 73.9446 110.809 74.4943 110.465C74.5293 110.441 74.5689 110.425 74.6105 110.417C74.6521 110.409 74.6948 110.41 74.7361 110.419C74.7774 110.429 74.8164 110.446 74.8506 110.471C74.8848 110.496 74.9135 110.528 74.935 110.564C74.9587 110.599 74.975 110.639 74.9829 110.68C74.9907 110.722 74.99 110.765 74.9807 110.806C74.9714 110.847 74.9537 110.886 74.9288 110.92C74.9038 110.955 74.8722 110.983 74.8357 111.005C74.2886 111.359 73.7389 111.703 73.184 112.027C73.1479 112.05 73.1076 112.064 73.0656 112.071C73.0237 112.078 72.9808 112.076 72.9395 112.066C72.8982 112.056 72.8594 112.037 72.8253 112.012C72.7911 111.987 72.7624 111.955 72.7407 111.918L72.6981 111.836ZM75.9692 109.749C75.9503 109.683 75.9529 109.613 75.9767 109.549C76.0005 109.485 76.0442 109.43 76.1015 109.392C76.6363 109.032 77.1589 108.664 77.679 108.286C77.7128 108.261 77.7514 108.242 77.7926 108.231C77.8338 108.22 77.8767 108.218 77.9188 108.224C77.9609 108.23 78.0014 108.244 78.0379 108.266C78.0743 108.288 78.1061 108.317 78.1312 108.352C78.1806 108.422 78.2004 108.509 78.1864 108.594C78.1724 108.679 78.1258 108.755 78.0564 108.806C77.5364 109.184 77.0067 109.564 76.4622 109.927C76.3929 109.976 76.307 109.995 76.2236 109.981C76.1401 109.966 76.0658 109.919 76.017 109.85L75.9692 109.749ZM79.1035 107.46C79.0876 107.398 79.09 107.332 79.1105 107.272C79.131 107.211 79.1687 107.158 79.219 107.118C79.7339 106.721 80.2365 106.317 80.7172 105.909C80.7491 105.88 80.7868 105.858 80.8278 105.844C80.8688 105.831 80.9121 105.826 80.9551 105.83C80.9982 105.834 81.0398 105.847 81.0775 105.868C81.1152 105.889 81.148 105.918 81.174 105.952C81.2015 105.984 81.2224 106.02 81.2355 106.059C81.2486 106.099 81.2536 106.141 81.2502 106.182C81.2468 106.224 81.2351 106.264 81.2158 106.301C81.1965 106.338 81.17 106.37 81.1378 106.397C80.6403 106.82 80.1377 107.224 79.6158 107.633C79.5827 107.659 79.5447 107.678 79.5042 107.689C79.4636 107.7 79.4212 107.704 79.3795 107.698C79.3377 107.693 79.2973 107.68 79.2607 107.659C79.2241 107.638 79.192 107.611 79.1661 107.577L79.1035 107.46ZM79.3342 98.3908C79.166 97.7629 79.0821 97.1021 78.9937 96.4632C78.9861 96.4211 78.9873 96.3777 78.9973 96.3361C79.0073 96.2944 79.0257 96.2552 79.0516 96.221C79.0775 96.1869 79.1102 96.1584 79.1476 96.1375C79.185 96.1166 79.2263 96.1037 79.269 96.0996C79.311 96.0934 79.3538 96.0957 79.3949 96.1063C79.436 96.1168 79.4746 96.1354 79.5084 96.1611C79.5423 96.1867 79.5707 96.2188 79.592 96.2555C79.6133 96.2922 79.6271 96.3328 79.6326 96.3749C79.7158 96.9944 79.8357 97.6352 79.9698 98.2515C79.9797 98.2933 79.9811 98.3366 79.9739 98.3789C79.9667 98.4213 79.9511 98.4617 79.9279 98.4979C79.9047 98.534 79.8745 98.5651 79.8391 98.5894C79.8037 98.6136 79.7637 98.6305 79.7216 98.639C79.673 98.6615 79.6196 98.6718 79.566 98.6691C79.5124 98.6663 79.4604 98.6505 79.4143 98.6231C79.3682 98.5957 79.3295 98.5575 79.3015 98.5117C79.2735 98.466 79.2571 98.4141 79.2537 98.3606L79.3342 98.3908ZM79.8363 100.265C79.8121 100.185 79.8199 100.099 79.8581 100.025C79.8962 99.951 79.9617 99.8948 80.0407 99.8683C80.1229 99.8434 80.2116 99.8516 80.2879 99.891C80.3642 99.9305 80.4222 99.9982 80.4493 100.08C80.6176 100.708 80.8702 101.302 81.115 101.868C81.1457 101.949 81.1448 102.038 81.1123 102.118C81.0799 102.198 81.0184 102.262 80.9403 102.298C80.9011 102.315 80.859 102.323 80.8166 102.323C80.7741 102.323 80.7322 102.314 80.693 102.298C80.6539 102.281 80.6185 102.257 80.5888 102.227C80.5591 102.196 80.5357 102.16 80.5201 102.121C80.2701 101.536 80.0413 100.914 79.8286 100.236L79.8363 100.265ZM78.8137 94.5548L78.7955 94.4872C78.7626 93.8299 78.7693 93.1712 78.8157 92.5147C78.8211 92.4289 78.8599 92.3485 78.9237 92.2908C78.9876 92.2331 79.0714 92.2026 79.1574 92.2058C79.1998 92.2084 79.2412 92.2194 79.2793 92.2382C79.3173 92.257 79.3513 92.2832 79.3792 92.3152C79.407 92.3473 79.4282 92.3845 79.4415 92.4249C79.4548 92.4652 79.46 92.5077 79.4567 92.5501C79.413 93.1856 79.4075 93.8232 79.4403 94.4594C79.442 94.502 79.4352 94.5445 79.4202 94.5845C79.4052 94.6244 79.3824 94.661 79.3531 94.692C79.3238 94.723 79.2886 94.7478 79.2495 94.765C79.2105 94.7822 79.1684 94.7914 79.1257 94.7921C79.0827 94.8012 79.0382 94.8013 78.9952 94.7924C78.9521 94.7835 78.9113 94.7658 78.8754 94.7405C78.8395 94.7151 78.8092 94.6827 78.7863 94.6451C78.7635 94.6075 78.7487 94.5656 78.7428 94.522L78.8137 94.5548ZM81.3659 103.81C81.3475 103.741 81.3524 103.668 81.3799 103.603C81.4073 103.537 81.4557 103.483 81.5175 103.448C81.592 103.409 81.6786 103.399 81.7597 103.422C81.8408 103.445 81.9102 103.497 81.9538 103.569C82.1113 103.848 82.2881 104.122 82.4597 104.376C82.8323 104.027 83.2023 103.67 83.5529 103.317C83.6147 103.255 83.6983 103.22 83.7856 103.22C83.8729 103.22 83.9567 103.255 84.0186 103.316C84.0749 103.379 84.1058 103.46 84.1054 103.545C84.105 103.629 84.0734 103.71 84.0166 103.772C83.6396 104.142 83.2458 104.527 82.8301 104.908L83.0133 105.128C83.0664 105.196 83.0907 105.283 83.0808 105.369C83.0709 105.455 83.0277 105.533 82.9604 105.587C82.9273 105.613 82.8893 105.633 82.8488 105.644C82.8082 105.655 82.7658 105.658 82.7241 105.653C82.6823 105.648 82.6419 105.635 82.6053 105.614C82.5687 105.593 82.5366 105.565 82.5107 105.532L82.2159 105.166L82.1469 105.101C82.119 105.051 82.1039 104.995 82.1029 104.937C81.8693 104.606 81.6499 104.251 81.4375 103.884L81.3659 103.81ZM79.1053 90.6979C79.0826 90.6527 79.0694 90.6034 79.0665 90.553C79.2074 89.8917 79.4365 89.2523 79.7477 88.6519C79.7917 88.5782 79.8627 88.5245 79.9457 88.5022C80.0287 88.48 80.117 88.491 80.192 88.5329C80.2295 88.5537 80.2625 88.5819 80.2889 88.6157C80.3153 88.6495 80.3346 88.6883 80.3457 88.7298C80.3568 88.7712 80.3595 88.8145 80.3535 88.857C80.3476 88.8995 80.3332 88.9404 80.3111 88.9772C80.0329 89.5292 79.8244 90.1137 79.6903 90.7171C79.6817 90.7583 79.6649 90.7972 79.6408 90.8317C79.6167 90.8661 79.5859 90.8953 79.5502 90.9174C79.5145 90.9396 79.4747 90.9543 79.4331 90.9606C79.3916 90.9668 79.3492 90.9646 79.3086 90.954C79.2369 90.9439 79.1709 90.9099 79.1211 90.8574C79.0713 90.8049 79.0408 90.7371 79.0344 90.6651L79.1053 90.6979ZM83.8102 106.788C83.7967 106.74 83.795 106.689 83.8051 106.639C83.8153 106.59 83.837 106.543 83.8685 106.504C83.9232 106.439 84.0008 106.398 84.0851 106.389C84.1694 106.38 84.254 106.403 84.3213 106.455C84.6765 106.742 85.065 106.986 85.4784 107.18C85.6202 107.246 85.7646 107.321 85.916 107.384C85.9868 107.428 86.0382 107.497 86.0598 107.578C86.0814 107.659 86.0717 107.745 86.0325 107.818C86.0116 107.856 85.9835 107.889 85.9497 107.915C85.9158 107.942 85.877 107.961 85.8356 107.972C85.7941 107.983 85.7508 107.986 85.7083 107.98C85.6658 107.974 85.625 107.959 85.5882 107.937C85.4367 107.874 85.2923 107.799 85.1383 107.727C84.6937 107.499 84.2738 107.227 83.8851 106.913C83.8216 106.877 83.7707 106.822 83.7393 106.756L83.8102 106.788ZM84.8128 102.223C84.7982 102.172 84.7966 102.118 84.808 102.067C84.8194 102.015 84.8435 101.967 84.8782 101.926C85.3234 101.424 85.7395 100.929 86.1074 100.448C86.1635 100.382 86.2425 100.34 86.3284 100.331C86.4143 100.321 86.5007 100.345 86.5698 100.396C86.603 100.423 86.6306 100.455 86.651 100.493C86.6715 100.53 86.6843 100.57 86.6889 100.613C86.6934 100.655 86.6896 100.697 86.6775 100.738C86.6655 100.779 86.6455 100.816 86.6187 100.849C86.2437 101.343 85.8495 101.842 85.3657 102.355C85.3067 102.418 85.2255 102.455 85.1395 102.458C85.0534 102.462 84.9693 102.432 84.9051 102.375C84.8649 102.36 84.8289 102.335 84.8004 102.303C84.7719 102.271 84.7519 102.232 84.742 102.191L84.8128 102.223ZM81.0449 87.4658C81.0265 87.3972 81.0314 87.3245 81.0588 87.259C81.0863 87.1936 81.1347 87.1391 81.1965 87.1042C81.4049 86.9862 81.6276 86.8952 81.859 86.8335C82.3262 86.7151 82.8138 86.7011 83.2871 86.7925C83.3287 86.8002 83.3685 86.816 83.4039 86.8391C83.4394 86.8623 83.47 86.8922 83.4938 86.9272C83.5177 86.9623 83.5343 87.0017 83.5428 87.0432C83.5513 87.0847 83.5514 87.1275 83.5432 87.169C83.5365 87.2101 83.5215 87.2494 83.4992 87.2845C83.477 87.3197 83.4479 87.35 83.4136 87.3737C83.3794 87.3974 83.3407 87.4139 83.3 87.4223C83.2592 87.4307 83.2172 87.4308 83.1764 87.4226C82.7948 87.3547 82.4033 87.3679 82.0272 87.4614C81.8473 87.5072 81.6746 87.5778 81.5141 87.6713C81.4775 87.692 81.4372 87.7053 81.3954 87.7104C81.3537 87.7155 81.3114 87.7124 81.2708 87.7011C81.2303 87.6899 81.1924 87.6707 81.1593 87.6448C81.1262 87.6189 81.0985 87.5867 81.0779 87.5501L81.0449 87.4658ZM87.2572 108.525C87.2396 108.46 87.2426 108.39 87.266 108.326C87.2801 108.286 87.3021 108.249 87.3306 108.218C87.3592 108.186 87.3938 108.161 87.4323 108.143C87.4709 108.125 87.5126 108.114 87.5551 108.113C87.5977 108.111 87.6401 108.118 87.68 108.133C88.278 108.355 88.8902 108.554 89.4939 108.682C89.5345 108.693 89.5723 108.713 89.6054 108.739C89.6384 108.765 89.6659 108.798 89.6864 108.834C89.7068 108.871 89.7198 108.912 89.7246 108.954C89.7293 108.996 89.7257 109.038 89.7141 109.078C89.7026 109.119 89.6832 109.157 89.657 109.19C89.6308 109.223 89.5984 109.25 89.5615 109.271C89.5247 109.291 89.4842 109.304 89.4423 109.309C89.4004 109.314 89.358 109.31 89.3175 109.299C88.6938 109.134 88.0694 108.929 87.4494 108.702C87.3901 108.696 87.3337 108.673 87.2871 108.636C87.2404 108.599 87.2055 108.549 87.1863 108.493L87.2572 108.525ZM87.1797 99.1563C87.1681 99.1123 87.166 99.0663 87.1736 99.0214C87.1813 98.9765 87.1984 98.9338 87.2238 98.896C87.5657 98.364 87.874 97.8112 88.1468 97.2407C88.1908 97.167 88.2619 97.1133 88.3448 97.091C88.4278 97.0688 88.5162 97.0798 88.5912 97.1217C88.6639 97.1642 88.7169 97.2337 88.7387 97.315C88.7605 97.3964 88.7493 97.4831 88.7076 97.5563C88.4206 98.1513 88.0982 98.7286 87.7422 99.2851C87.7213 99.3226 87.6932 99.3556 87.6593 99.382C87.6255 99.4084 87.5867 99.4277 87.5453 99.4388C87.5038 99.4499 87.4605 99.4526 87.418 99.4466C87.3755 99.4407 87.3347 99.4262 87.2979 99.4042C87.2433 99.3797 87.1966 99.3405 87.1632 99.2909C87.1298 99.2413 87.1109 99.1833 87.1088 99.1235L87.1797 99.1563ZM84.7267 87.8768C84.7066 87.799 84.7137 87.7167 84.7471 87.6436C84.7928 87.5717 84.8638 87.5196 84.9461 87.4975C85.0283 87.4755 85.1159 87.4851 85.1914 87.5246C85.787 87.8223 86.3575 88.168 86.8971 88.5583C86.931 88.5832 86.9596 88.6146 86.9814 88.6505C87.0031 88.6865 87.0176 88.7264 87.0239 88.768C87.0303 88.8096 87.0283 88.852 87.0183 88.8928C87.0082 88.9336 86.9902 88.9721 86.9653 89.0059C86.9135 89.0753 86.8366 89.1216 86.7511 89.1349C86.6656 89.1481 86.5783 89.1272 86.508 89.0767C86.0018 88.7086 85.4648 88.3849 84.9029 88.1092C84.8414 88.0917 84.7859 88.0578 84.7424 88.0111C84.6988 87.9643 84.6689 87.9066 84.6558 87.8441L84.7267 87.8768ZM90.9881 109.545C90.9671 109.502 90.9547 109.456 90.9519 109.409C90.9595 109.368 90.9754 109.328 90.9985 109.292C91.0216 109.257 91.0516 109.226 91.0866 109.203C91.1216 109.179 91.161 109.162 91.2026 109.154C91.2441 109.145 91.2868 109.145 91.3284 109.153C91.9585 109.264 92.5906 109.343 93.227 109.4C93.3114 109.408 93.3893 109.449 93.4435 109.514C93.4978 109.579 93.5241 109.663 93.5167 109.747C93.5141 109.789 93.503 109.831 93.4842 109.869C93.4655 109.907 93.4393 109.941 93.4072 109.969C93.3752 109.997 93.3379 110.018 93.2976 110.031C93.2573 110.044 93.2147 110.05 93.1724 110.046C92.514 109.985 91.8601 109.901 91.2177 109.783C91.1434 109.782 91.0722 109.753 91.017 109.703C90.9619 109.654 90.9264 109.586 90.9172 109.512L90.9881 109.545ZM88.8039 95.636C88.7917 95.5805 88.7941 95.5228 88.8108 95.4685C88.9763 94.8762 89.0631 94.2647 89.0688 93.6497C89.0684 93.6077 89.0763 93.566 89.092 93.527C89.1077 93.488 89.131 93.4524 89.1605 93.4224C89.1899 93.3924 89.225 93.3685 89.2637 93.3521C89.3024 93.3356 89.344 93.327 89.386 93.3266C89.4284 93.3248 89.4708 93.3317 89.5104 93.347C89.55 93.3622 89.5861 93.3854 89.6164 93.4151C89.6467 93.4449 89.6705 93.4805 89.6865 93.5198C89.7024 93.5592 89.7101 93.6014 89.7091 93.6438C89.7057 94.319 89.6142 94.9908 89.4371 95.6423C89.4122 95.7253 89.3557 95.7952 89.2797 95.8369C89.2036 95.8786 89.1143 95.8887 89.0309 95.865C88.9631 95.8597 88.8985 95.8336 88.8461 95.7902C88.7937 95.7467 88.756 95.6882 88.7382 95.6225L88.8039 95.636ZM87.795 90.1709C87.7797 90.1101 87.7815 90.0463 87.8002 89.9865C87.8189 89.9267 87.8538 89.8732 87.9009 89.8319C87.9665 89.7793 88.0502 89.7545 88.1339 89.7631C88.2175 89.7717 88.2945 89.8129 88.348 89.8778C88.7925 90.4119 89.1409 91.0191 89.3776 91.6724C89.3925 91.712 89.3994 91.7541 89.3979 91.7963C89.3964 91.8386 89.3865 91.8801 89.3689 91.9185C89.3513 91.9569 89.3263 91.9915 89.2952 92.0201C89.2642 92.0488 89.2277 92.071 89.1881 92.0856C89.1486 92.1019 89.1063 92.1099 89.0636 92.1091C89.0209 92.1083 88.9789 92.0987 88.9401 92.0809C88.9014 92.0631 88.8667 92.0375 88.8382 92.0057C88.8098 91.9739 88.7883 91.9366 88.7749 91.896C88.5587 91.3244 88.2515 90.7914 87.8654 90.3176C87.8028 90.2817 87.7546 90.225 87.7293 90.1574L87.795 90.1709ZM94.838 109.849L94.8173 109.771C94.8184 109.685 94.8532 109.603 94.9143 109.542C94.9754 109.481 95.0579 109.446 95.1441 109.446C95.7747 109.442 96.4169 109.405 97.0417 109.341C97.084 109.336 97.127 109.339 97.168 109.351C97.2091 109.363 97.2473 109.383 97.2805 109.409C97.3137 109.436 97.3413 109.469 97.3615 109.507C97.3817 109.545 97.3942 109.586 97.3982 109.628C97.4058 109.713 97.38 109.798 97.3264 109.865C97.2728 109.931 97.1955 109.974 97.1107 109.985C96.4666 110.054 95.8026 110.087 95.1526 110.095C95.0678 110.11 94.9805 110.091 94.9094 110.043C94.8384 109.994 94.7891 109.92 94.7723 109.835L94.838 109.849ZM98.6953 109.446C98.6854 109.405 98.6841 109.361 98.6913 109.319C98.6985 109.277 98.7141 109.236 98.7373 109.2C98.7604 109.164 98.7906 109.133 98.8261 109.109C98.8615 109.084 98.9014 109.068 98.9435 109.059C99.3396 108.953 99.7259 108.849 100.122 108.743C100.344 108.684 100.566 108.624 100.788 108.565C100.829 108.553 100.871 108.548 100.913 108.553C100.955 108.557 100.995 108.569 101.032 108.589C101.069 108.609 101.102 108.636 101.129 108.668C101.155 108.701 101.175 108.738 101.187 108.779C101.201 108.819 101.207 108.862 101.203 108.905C101.2 108.948 101.188 108.99 101.168 109.028C101.149 109.066 101.121 109.1 101.088 109.127C101.055 109.155 101.017 109.175 100.976 109.187C100.744 109.249 100.522 109.309 100.29 109.371C99.8845 109.48 99.4788 109.589 99.0731 109.697C99.0268 109.717 98.9766 109.725 98.9264 109.722C98.8762 109.718 98.8276 109.703 98.7844 109.678C98.7412 109.652 98.7047 109.616 98.6778 109.574C98.6509 109.531 98.6344 109.483 98.6296 109.433L98.6953 109.446ZM102.4 108.319C102.379 108.244 102.387 108.163 102.421 108.093C102.456 108.022 102.515 107.967 102.587 107.938C103.166 107.7 103.746 107.431 104.318 107.132C104.356 107.113 104.397 107.102 104.439 107.099C104.481 107.095 104.524 107.101 104.564 107.114C104.604 107.127 104.641 107.148 104.673 107.176C104.705 107.204 104.731 107.238 104.75 107.275C104.788 107.35 104.796 107.437 104.771 107.517C104.746 107.598 104.69 107.665 104.616 107.705C104.025 108.008 103.428 108.292 102.83 108.535C102.791 108.551 102.749 108.56 102.707 108.56C102.664 108.56 102.622 108.551 102.583 108.535C102.544 108.518 102.509 108.494 102.479 108.464C102.449 108.433 102.426 108.397 102.41 108.358L102.4 108.319ZM105.836 106.539C105.808 106.486 105.796 106.425 105.802 106.364C105.808 106.304 105.831 106.246 105.869 106.199C106.4 105.86 106.932 105.49 107.44 105.105C107.473 105.079 107.511 105.06 107.551 105.049C107.592 105.038 107.634 105.035 107.676 105.04C107.718 105.045 107.758 105.058 107.795 105.079C107.831 105.1 107.864 105.128 107.889 105.161C107.94 105.231 107.961 105.318 107.95 105.404C107.938 105.49 107.894 105.568 107.827 105.623C107.312 106.02 106.76 106.395 106.223 106.746C106.149 106.792 106.059 106.806 105.975 106.786C105.89 106.766 105.816 106.714 105.77 106.64L105.836 106.539ZM108.911 104.183C108.896 104.127 108.896 104.068 108.912 104.013C108.928 103.957 108.96 103.907 109.003 103.869C109.478 103.441 109.927 102.989 110.36 102.521C110.421 102.459 110.503 102.423 110.59 102.421C110.677 102.419 110.761 102.452 110.824 102.511C110.855 102.54 110.881 102.574 110.898 102.613C110.916 102.652 110.925 102.694 110.926 102.736C110.927 102.779 110.919 102.821 110.902 102.86C110.886 102.9 110.862 102.935 110.831 102.965C110.391 103.445 109.923 103.902 109.448 104.371C109.384 104.428 109.299 104.458 109.213 104.454C109.127 104.45 109.046 104.412 108.987 104.349L108.911 104.183ZM111.549 101.354C111.538 101.306 111.538 101.257 111.548 101.21C111.559 101.162 111.58 101.117 111.61 101.079C112.004 100.58 112.371 100.057 112.726 99.527C112.77 99.4533 112.841 99.3996 112.924 99.3773C113.007 99.3551 113.095 99.3661 113.17 99.408C113.208 99.4288 113.241 99.457 113.267 99.4908C113.294 99.5246 113.313 99.5635 113.324 99.6049C113.335 99.6464 113.338 99.6896 113.332 99.7321C113.326 99.7746 113.312 99.8155 113.289 99.8523C112.927 100.394 112.541 100.922 112.14 101.434C112.086 101.502 112.008 101.547 111.922 101.559C111.836 101.57 111.749 101.547 111.68 101.495C111.598 101.469 111.528 101.414 111.483 101.341L111.549 101.354ZM113.687 98.1307C113.677 98.0913 113.674 98.0502 113.679 98.0097C113.684 97.9693 113.697 97.9303 113.717 97.8949C114.023 97.3366 114.314 96.7617 114.574 96.1849C114.591 96.1463 114.615 96.1115 114.646 96.0824C114.676 96.0533 114.712 96.0304 114.751 96.0151C114.79 95.9998 114.832 95.9924 114.874 95.9932C114.916 95.9941 114.957 96.0032 114.996 96.0201C115.034 96.037 115.069 96.0612 115.098 96.0916C115.127 96.1219 115.15 96.1576 115.166 96.1968C115.181 96.236 115.188 96.2778 115.187 96.3198C115.187 96.3619 115.177 96.4033 115.161 96.4418C114.897 97.0406 114.598 97.6277 114.288 98.2079C114.244 98.2816 114.173 98.3353 114.09 98.3576C114.007 98.3798 113.919 98.3688 113.844 98.3269C113.794 98.3098 113.748 98.2822 113.71 98.246C113.672 98.2098 113.642 98.1659 113.622 98.1172L113.687 98.1307ZM115.268 94.6014C115.254 94.5398 115.255 94.4758 115.27 94.4145C115.48 93.8094 115.669 93.1998 115.816 92.5909C115.826 92.5492 115.843 92.5098 115.868 92.475C115.893 92.4403 115.925 92.4109 115.961 92.3885C115.998 92.3662 116.038 92.3514 116.081 92.3451C116.123 92.3387 116.166 92.3409 116.208 92.3515C116.29 92.3729 116.362 92.4257 116.406 92.4987C116.451 92.5718 116.466 92.6593 116.447 92.7428C116.285 93.3762 116.102 94.0051 115.913 94.6147C115.9 94.6555 115.879 94.6932 115.851 94.7255C115.823 94.7579 115.789 94.7844 115.751 94.8034C115.712 94.8223 115.67 94.8334 115.628 94.8359C115.585 94.8385 115.542 94.8324 115.502 94.8181C115.43 94.8211 115.359 94.7996 115.3 94.7569C115.242 94.7143 115.199 94.6531 115.18 94.5834L115.268 94.6014ZM116.197 90.8429L116.166 90.727C116.264 90.0959 116.329 89.46 116.359 88.8219C116.367 88.7373 116.407 88.659 116.471 88.6032C116.535 88.5475 116.619 88.5186 116.703 88.5227C116.789 88.5281 116.87 88.5668 116.927 88.6307C116.985 88.6945 117.016 88.7784 117.012 88.8643C116.967 89.5079 116.906 90.1663 116.81 90.8132C116.796 90.8986 116.75 90.9753 116.681 91.0268C116.611 91.0783 116.524 91.1006 116.439 91.0887C116.364 91.0873 116.291 91.0597 116.235 91.0105C116.178 90.9613 116.14 90.8938 116.128 90.8197L116.197 90.8429Z" fill="#999999"/>
</svg>