<svg width="60" height="60" fill="none" xmlns="http://www.w3.org/2000/svg"><g filter="url(#prefix__filter0_d_0_376)"><path fill-rule="evenodd" clip-rule="evenodd" d="M30 48c11.046 0 20-8.954 20-20S41.046 8 30 8s-20 8.954-20 20 8.954 20 20 20z" fill="#fff"/></g><path d="M37.317 23.16a6.671 6.671 0 01-1.844.505 3.182 3.182 0 001.408-1.769 6.397 6.397 0 01-2.03.775 3.2 3.2 0 00-5.536 2.188c.001.254.022.498.075.73a9.058 9.058 0 01-6.596-3.347 3.205 3.205 0 00.983 4.277 3.16 3.16 0 01-1.445-.395v.036a3.215 3.215 0 002.564 3.144c-.26.071-.545.105-.84.105a2.83 2.83 0 01-.605-.054 3.23 3.23 0 002.99 2.23 6.43 6.43 0 01-3.968 1.364c-.262 0-.514-.012-.766-.044a9.008 9.008 0 004.91 1.436c5.888 0 9.108-4.878 9.108-9.106 0-.142-.005-.278-.012-.414a6.382 6.382 0 001.604-1.661z" fill="#444"/><defs><filter id="prefix__filter0_d_0_376" x="0" y="0" width="60" height="60" filterUnits="userSpaceOnUse" color-interpolation-filters="sRGB"><feFlood flood-opacity="0" result="BackgroundImageFix"/><feColorMatrix in="SourceAlpha" values="0 0 0 0 0 0 0 0 0 0 0 0 0 0 0 0 0 0 127 0" result="hardAlpha"/><feOffset dy="2"/><feGaussianBlur stdDeviation="5"/><feColorMatrix values="0 0 0 0 0 0 0 0 0 0 0 0 0 0 0 0 0 0 0.1 0"/><feBlend in2="BackgroundImageFix" result="effect1_dropShadow_0_376"/><feBlend in="SourceGraphic" in2="effect1_dropShadow_0_376" result="shape"/></filter></defs></svg>